<?xml version="1.0" encoding="utf-8"?>
<!-- Generator: Adobe Illustrator 23.1.0, SVG Export Plug-In . SVG Version: 6.00 Build 0)  -->
<svg version="1.1" id="Layer_1" xmlns="http://www.w3.org/2000/svg" xmlns:xlink="http://www.w3.org/1999/xlink" x="0px" y="0px"
	 viewBox="0 0 50 50" enable-background="new 0 0 50 50" xml:space="preserve">
<g id="no">
	
		<circle fill="none" stroke="#000000" stroke-width="2.5" stroke-linejoin="round" stroke-miterlimit="10" cx="25" cy="25" r="23.8"/>
	<path fill="none" stroke="#000000" stroke-width="2.5" stroke-miterlimit="10" d="M8.3,8.3l34.4,33.4L8.3,8.3z"/>
</g>
<g id="camera">
	<path d="M41.5,14.5h-6.8l-0.9-4.4c-0.2-1.1-1.2-1.9-2.3-1.9H18.5c-1.1,0-2.1,0.8-2.3,1.9l-0.9,4.4H8.5C6.6,14.5,5,16,5,18v20.3
		c0,1.9,1.6,3.5,3.5,3.5h33c1.9,0,3.5-1.6,3.5-3.5V18C45,16,43.4,14.5,41.5,14.5z M18.5,10.5h13.1l0.8,3.9H17.7L18.5,10.5z
		 M42.7,38.3c0,0.6-0.5,1.2-1.2,1.2h-33c-0.6,0-1.2-0.5-1.2-1.2V18c0-0.6,0.5-1.2,1.2-1.2h33c0.6,0,1.2,0.5,1.2,1.2V38.3z"/>
	<path d="M25,19.5c-4.8,0-8.7,3.9-8.7,8.7s3.9,8.7,8.7,8.7s8.7-3.9,8.7-8.7S29.8,19.5,25,19.5z M25,34.5c-3.5,0-6.3-2.8-6.3-6.3
		s2.8-6.3,6.3-6.3s6.3,2.8,6.3,6.3S28.5,34.5,25,34.5z"/>
	<path d="M15,19.5h-3.8c-0.6,0-1.2,0.5-1.2,1.2c0,0.6,0.5,1.2,1.2,1.2H15c0.6,0,1.2-0.5,1.2-1.2C16.2,20,15.6,19.5,15,19.5z"/>
</g>
</svg>
