<?xml version="1.0" encoding="utf-8"?>
<!-- Generator: Adobe Illustrator 23.1.0, SVG Export Plug-In . SVG Version: 6.00 Build 0)  -->
<svg version="1.1" id="Layer_1" xmlns="http://www.w3.org/2000/svg" xmlns:xlink="http://www.w3.org/1999/xlink" x="0px" y="0px"
	 viewBox="0 0 50 50" enable-background="new 0 0 50 50" xml:space="preserve">
<g id="speaker">
	<path fill="none" stroke="#00031F" stroke-width="3" stroke-linecap="round" stroke-linejoin="round" d="M23.5,28.6
		c2.3-2.5,2.3-5,0-7.5"/>
	<path fill="none" stroke="#00031F" stroke-width="3" stroke-linecap="round" stroke-linejoin="round" d="M26.4,31.6
		c3.5-4.6,3.5-9.1,0-13.7"/>
	<path fill="#00031F" d="M20.4,25v12.4c0.1,0.6-0.4,1.2-1,1.3c-0.4,0.1-0.9,0-1.2-0.3l-5.2-4.5c-1-0.9-2-1.8-3.1-2.6
		c-0.1-0.1-0.3-0.2-0.5-0.2H5.7C5,31.2,4.4,30.7,4.3,30c0-0.1,0-0.2,0-0.3v-9.5c-0.1-0.7,0.4-1.3,1.1-1.4c0.1,0,0.2,0,0.3,0h4
		c0.2,0,0.4-0.1,0.5-0.2l8.1-7c0.4-0.4,1-0.5,1.4-0.2c0.5,0.2,0.8,0.7,0.8,1.3C20.4,16.7,20.4,20.9,20.4,25z"/>
</g>
<g id="pause" display="none">
	
		<line display="inline" fill="none" stroke="#000020" stroke-width="4.28" stroke-linecap="round" stroke-linejoin="round" x1="34.6" y1="15" x2="34.6" y2="34.7"/>
	
		<line display="inline" fill="none" stroke="#000020" stroke-width="4.28" stroke-linecap="round" stroke-linejoin="round" x1="43.1" y1="15" x2="43.1" y2="34.7"/>
</g>
<polygon id="play" fill="#00031F" stroke="#00031F" stroke-width="3" stroke-linecap="round" stroke-linejoin="round" points="
	44.2,24.7 35.3,19.7 35.3,29.9 "/>
</svg>
