<?xml version="1.0" encoding="utf-8"?>
<!-- Generator: Adobe Illustrator 23.1.0, SVG Export Plug-In . SVG Version: 6.00 Build 0)  -->
<svg version="1.1" id="Layer_1" xmlns="http://www.w3.org/2000/svg" xmlns:xlink="http://www.w3.org/1999/xlink" x="0px" y="0px"
	 viewBox="0 0 50 50" enable-background="new 0 0 50 50" xml:space="preserve">
<g id="camera">
	<path fill="#00031F" stroke="#00031F" stroke-width="0.25" stroke-miterlimit="10" d="M36.5,14.3v0.6c0,1.1-0.9,2-2,2l0,0
		c-1.1,0-2-0.8-2-2l0,0v-0.8h-1.3v1.8c0,0.1-0.1,0.1-0.1,0.1h-13c-0.1,0-0.1-0.1-0.1-0.1v-1.8h-3.5c-3,0-5.5,2.5-5.5,5.5v12
		c0,3,2.5,5.5,5.5,5.5h20.6c3,0,5.5-2.5,5.5-5.5v-12C40.6,17.1,39,14.9,36.5,14.3z M14.8,20.9c-1,0-1.8-0.8-1.8-1.8s0.8-1.8,1.8-1.8
		s1.8,0.8,1.8,1.8C16.6,20.1,15.8,20.9,14.8,20.9L14.8,20.9z M25.1,34c-4.6,0-8.2-3.7-8.2-8.2s3.7-8.2,8.2-8.2s8.2,3.7,8.2,8.2l0,0
		C33.4,30.3,29.7,34,25.1,34z"/>
	<path fill="#00031F" d="M36.5,14.3v-0.2c0-1.1-0.9-2-2-2l0,0c-1.1,0-2,0.9-2,2v0.1h2.6C35.6,14.1,36.1,14.2,36.5,14.3z"/>
	<path fill="#00031F" stroke="#00031F" stroke-width="0.25" stroke-miterlimit="10" d="M34.5,16.8L34.5,16.8c1.1,0,2-0.8,2-1.9v-0.6
		c-0.4-0.1-0.8-0.2-1.3-0.2h-2.6v0.8C32.5,16,33.4,16.8,34.5,16.8z"/>
	<path fill="#00031F" stroke="#00031F" stroke-width="0.25" stroke-miterlimit="10" d="M31.3,13.5c0-1.3-1-2.2-2.2-2.2h-8.5
		c-1.3,0-2.3,1.1-2.3,2.3l0,0v0.5h13.1C31.3,14.1,31.3,13.5,31.3,13.5z"/>
	<path fill="#00031F" stroke="#00031F" stroke-width="0.25" stroke-miterlimit="10" d="M18.2,16h13c0.1,0,0.1-0.1,0.1-0.1v-1.8H18.1
		L18.2,16C18.1,16,18.1,16,18.2,16z"/>
	<circle fill="#00031F" stroke="#00031F" stroke-width="0.25" stroke-miterlimit="10" cx="25" cy="25.8" r="6.5"/>
</g>
<g id="no">
	<circle fill="none" stroke="#00031F" stroke-width="2" stroke-miterlimit="10" cx="25" cy="25" r="24"/>
	<line fill="none" stroke="#00031F" stroke-width="4" stroke-miterlimit="10" x1="5.8" y1="39.3" x2="44.2" y2="10.6"/>
</g>
</svg>
