<?xml version="1.0" encoding="utf-8"?>
<!-- Generator: Adobe Illustrator 23.1.0, SVG Export Plug-In . SVG Version: 6.00 Build 0)  -->
<svg version="1.1" id="Layer_1" xmlns="http://www.w3.org/2000/svg" xmlns:xlink="http://www.w3.org/1999/xlink" x="0px" y="0px"
	 viewBox="0 0 400 282" style="enable-background:new 0 0 400 282;" xml:space="preserve">
<style type="text/css">
	.st0{fill:#FCBD1B;}
</style>
<g>
	<path class="st0" d="M306,0c0.7,0,1.3,0,2,0c3.7,2.2,4.7,5.5,4.7,9.6c-0.1,27.1-0.1,54.3-0.1,81.4c0,1.7,0,3.3,0,5
		c1.8-1,2.6-2,3.3-3.1c10.9-16.3,21.9-32.5,32.7-48.9c1.3-1.9,1.9-4.6,2-6.9c0.3-7,0.2-14,0-21c0-2.1-1-4.1-1-6.2
		c0-1.4,0.4-3.2,1.3-4.2c0.5-0.6,2.9-0.5,3.4,0.1c0.8,1.1,1.1,2.8,1.1,4.3c0,1.9-0.9,3.8-0.9,5.7c-0.1,6.8,0.1,13.7-0.1,20.5
		c-0.2,3.9,1,7,3.4,10c6.4,8.3,12.4,16.9,18.7,25.3c7.8,10.5,15.7,21,23.6,31.4c0,59.7,0,119.3,0,179c-1.3,0-2.7,0-4,0
		c-1.5-0.3-3.1-1-4.6-1c-123.9,0-247.8,0-371.7,0c-1.5,0-3.1,0.6-4.6,1c-0.7,0-1.3,0-2,0c-2.6-2.1-2.7-5-2.7-8.1
		c0-35,0-70.1,0-105.1c0-1.8,0-3.6,0-5.3c-0.3,0.2-0.6,0.5-0.9,0.7c-3.1-1.7-6.3-3.4-9.4-5.2c0-2,0-4,0-6c0.6-0.6,1.5-1,1.9-1.7
		c8.4-13.4,17-26.6,25.1-40.2c2.7-4.4,5.8-6.1,10.9-6.1c35.5,0.2,71,0.2,106.5,0c5.5,0,9.1,1.6,11.6,6.5c2.1,4.2,4.9,8,7.5,11.9
		c0.4-0.1,0.8-0.3,1.2-0.4c0-1.8,0-3.5,0-5.3c0-36,0-72-0.1-108c0-4.1,0.8-7.5,4.4-9.7c0.7,0,1.3,0,2,0c1.5,0.3,3.1,1,4.6,1
		C217.5,1,259.5,1,301.4,1C302.9,1,304.5,0.3,306,0z M172.1,7.9c0,2.4,0,4.2,0,6c0,35.7,0.3,71.3-0.2,107
		c-0.2,11.2,1.2,21.4,8.7,30.1c0.2,0.2,0.4,0.6,0.5,0.9c2.9,5,1,9.7-4.6,11.1c-1.3,0.3-2.6,0.3-4.1,0.5c0,36.9,0,73.7,0,110.7
		c14.8,0,29.4,0,44.3,0c0.1-1.1,0.2-2,0.2-3c0-16.7,0-33.3,0-50c0-5.5,0.5-6,6-6c10.5,0,21,0,31.5,0c5.8,0,6.3,0.6,6.4,6.2
		c0,16.2,0,32.3,0,48.5c0,1.4,0.1,2.9,0.2,4.2c14.8,0,29.2,0,43.6,0c0-88.9,0-177.5,0-266.1C260.5,7.9,216.6,7.9,172.1,7.9z
		 M312.8,105.8c0,56.3,0,112.1,0,168.2c26.6,0,53,0,79.2,0c0-56.2,0-112.1,0-168.2C365.6,105.8,339.5,105.8,312.8,105.8z M66,272.8
		c0-1.8,0-3.5,0-5.1c0-12,0-24,0-36c0-10.4,5.7-16.2,15.9-16.3c6.2-0.1,12.3-0.1,18.5,0c10.6,0.1,16.2,5.9,16.3,16.6
		c0.1,12.2,0,24.3,0,36.5c0,1.4,0,2.9,0,4.4c15.8,0,31.1,0,46.5,0c0-36.6,0-73,0-109.4c-48.2,0-96,0-144,0c0,36.6,0,72.9,0,109.4
		C34.8,272.8,50.1,272.8,66,272.8z M223.6,221.9c0,17.5,0,34.7,0,52.1c10.3,0,20.3,0,30.4,0c0-17.5,0-34.8,0-52.1
		C243.7,221.9,233.8,221.9,223.6,221.9z M107.9,272.9c0-14.4,0.1-28.5-0.1-42.6c0-4.1-2.4-6-6.9-6.1c-6.3-0.1-12.6-0.1-18.9,0
		c-5.2,0.1-7.1,2-7.1,7.4c-0.1,8.6,0,17.3,0,25.9c0,5.1,0,10.2,0,15.4C86,272.9,96.6,272.9,107.9,272.9z"/>
	<path class="st0" d="M394.1,8.6c0,8.3-0.1,15.3,0.1,22.2c0.1,2.5-0.9,4-2.8,5.3c-4.3,3-8.8,3.8-13.6,1.4c-1.3-0.7-2.7-1.3-4-2
		c-4.9-2.8-9.7-3.1-14.6,0c-0.5,0.3-1.1,0.5-2.2,0.8c0-7.8-0.1-15.3,0.1-22.7c0-1,1-2.4,2-3c4.2-2.7,8.6-3.4,13.2-1.1
		c0.4,0.2,0.9,0.4,1.3,0.6C380.4,15,387.1,15.3,394.1,8.6z"/>
	<path class="st0" d="M289,22.2c0,26.2,0,52.3,0,78.6c-33.4,0-66.8,0-100.3,0c0-26.2,0-52.3,0-78.6C222.1,22.2,255.5,22.2,289,22.2z
		"/>
	<path class="st0" d="M288.5,174.3c0,7.6,0,15,0,22.8c-7.8,0-15.4,0-23.3,0c0-7.6,0-15,0-22.8C272.8,174.3,280.3,174.3,288.5,174.3z
		"/>
	<path class="st0" d="M265.3,131c7.7,0,15.3,0,23.1,0c0,7.6,0,15,0,22.8c-7.7,0-15.2,0-23.1,0C265.3,146.4,265.3,138.8,265.3,131z"
		/>
	<path class="st0" d="M211.9,131.1c0,7.6,0,15.1,0,22.7c-7.7,0-15.2,0-23,0c0-7.5,0-15,0-22.7C196.3,131.1,203.8,131.1,211.9,131.1z
		"/>
	<path class="st0" d="M250,131.1c0,7.6,0,15,0,22.7c-7.5,0-15,0-22.8,0c0-7.4,0-15,0-22.7C234.8,131.1,242.3,131.1,250,131.1z"/>
	<path class="st0" d="M189,174.1c7.6,0,15,0,22.7,0c0,7.7,0,15.2,0,23c-7.5,0-14.9,0-22.7,0C189,189.7,189,182.1,189,174.1z"/>
	<path class="st0" d="M250,197.3c-7.7,0-15,0-22.7,0c0-7.6,0-15.1,0-23c7.3,0,14.9,0,22.7,0C250,181.8,250,189.3,250,197.3z"/>
	<path class="st0" d="M374.6,165.9c-14,0-28,0-42.3,0c0-4.1,0-8.3,0-12.7c14,0,28,0,42.3,0C374.6,157.2,374.6,161.2,374.6,165.9z"/>
	<path class="st0" d="M332.1,192.7c0-4.2,0-8.1,0-12.4c14.1,0,28.1,0,42.5,0c0,3.9,0,8,0,12.4C360.7,192.7,346.6,192.7,332.1,192.7z
		"/>
	<path class="st0" d="M374.7,207.1c0,4.5,0,8.4,0,12.6c-14.2,0-28.3,0-42.6,0c0-4.2,0-8.3,0-12.6
		C346.3,207.1,360.4,207.1,374.7,207.1z"/>
	<path class="st0" d="M71.4,181.2c12.6,0,24.9,0,37.3,0c0,8.2,0,16.1,0,24.4c-12.3,0-24.7,0-37.3,0
		C71.4,197.7,71.4,189.7,71.4,181.2z"/>
	<path class="st0" d="M51.9,181.3c0,8.2,0,16.3,0,24.6c-7.1,0-14,0-21.2,0c0-8.1,0-16.2,0-24.6C37.7,181.3,44.6,181.3,51.9,181.3z"
		/>
	<path class="st0" d="M51.8,251c-7.1,0-14,0-21,0c0-8.3,0-16.4,0-24.7c7.1,0,13.9,0,21,0C51.8,234.5,51.8,242.5,51.8,251z"/>
	<path class="st0" d="M152,181.4c0,8.1,0,16,0,24.3c-6.9,0-14,0-21.2,0c0-8.1,0-16,0-24.3C137.8,181.4,144.8,181.4,152,181.4z"/>
	<path class="st0" d="M151.9,251.1c-7.3,0-14.1,0-21.1,0c0-8.3,0-16.3,0-24.6c7.1,0,14,0,21.1,0
		C151.9,234.7,151.9,242.8,151.9,251.1z"/>
</g>
</svg>
