<svg xmlns="http://www.w3.org/2000/svg" width="59.15" height="68.7" viewBox="0 0 59.15 68.7"><title>disleksija</title><path d="M38.09,68.69h-11c-1.48,0-1.77-.28-2.09-1.7-.46-2.06-.88-4.13-1.49-6.15-.89-3-2.05-3.8-5.17-3.8-1.6,0-3.21.23-4.81.32a31.87,31.87,0,0,1-3.24.09A4,4,0,0,1,6.15,54c-.39-1.78-.5-3.63-.77-5.44-.14-.94-.32-1.89-.55-2.81a6,6,0,0,0-2.56-3.61,16.35,16.35,0,0,1-1.44-1A2.35,2.35,0,0,1,.42,38a9.39,9.39,0,0,1,1.1-1.32c3.25-3.15,4.27-7,3.65-11.38a20.19,20.19,0,0,1,1.5-11.44A22.14,22.14,0,0,1,16.26,3.73a30.42,30.42,0,0,1,18-3.58A30.31,30.31,0,0,1,46.07,3.46c6.53,3.49,10.38,9,12.18,16.1A26.81,26.81,0,0,1,54.9,40.93c-1.15,1.88-2.44,3.69-3.73,5.49a13,13,0,0,0-2.34,8.78A53.52,53.52,0,0,0,51,66.13a5.64,5.64,0,0,1,.2.81,1.38,1.38,0,0,1-1.38,1.74c-.65,0-1.31,0-2,0ZM22.71,30.05a0,0,0,0,0,0,0h2a1.36,1.36,0,0,0,1.54-1.46c0-.51,0-1,0-1.57,0,0,0,0,0,0,1.36.54,2.07.46,2.66-.2a1.75,1.75,0,0,0,.2-2c-.7-1.1-1.7-1-2.74-.56,0,0,0,0,0,0,0-.49,0-.91,0-1.33,0-1.27-.38-1.73-1.67-1.78-.6,0-1.2,0-1.86,0,0,0,0,0,0,0,.56-1.28.46-2.06-.23-2.66a1.82,1.82,0,0,0-2.11-.15c-.81.51-1,1.25-.57,2.67,0,0,0,0,0,0H18.35a1.33,1.33,0,0,0-1.47,1.29q-.12,3.14-.15,6.26A1.27,1.27,0,0,0,18,29.88a16,16,0,0,0,1.83,0l0,0c-.46-1.38-.3-2.12.55-2.67a1.77,1.77,0,0,1,1.95,0C23.11,27.8,23.24,28.51,22.71,30.05Zm21.95-7s0,0,0,0c0-.51,0-1,0-1.48,0-1.12-.52-1.59-1.66-1.57-1.93,0-3.87.08-5.81.14a1.35,1.35,0,0,0-1.46,1.53c0,.53,0,1.05,0,1.61,0,0,0,0,0,0-1.28-.47-2-.34-2.58.4a1.68,1.68,0,0,0,0,2.1,1.61,1.61,0,0,0,.88.64,10.39,10.39,0,0,0,1.89-.08h0c0,.56,0,1.22,0,1.88a1.36,1.36,0,0,0,1.51,1.49c.51,0,1,0,1.54,0,0,0,0,0,0,0-.45,1.4-.3,2.11.52,2.68a1.65,1.65,0,0,0,1.84,0c1.1-.74,1-1.74.47-2.84,0,0,0,0,0,0,.61,0,1.13,0,1.65,0a1.26,1.26,0,0,0,1.33-1.1c.07-.82,0-1.66,0-2.53,0,0,0,0,0,0-1.31.57-2.07.48-2.68-.27A1.82,1.82,0,0,1,42,23.58C42.55,22.78,43.3,22.63,44.66,23.07ZM29.85,13.82c-.05-.58-.09-1.16-.16-1.73-.23-1.87-1-2.33-2.77-1.76a4.94,4.94,0,0,0-.49.19,1.12,1.12,0,0,0-.75,1.5c.27.86.54,1.73.87,2.57a1.83,1.83,0,0,0,2.52,1C29.85,15.24,29.88,14.55,29.85,13.82Zm4.5-3a1,1,0,0,0-1,.21.94.94,0,0,0-.26.35,19.59,19.59,0,0,0-.59,2.25A.9.9,0,0,0,33,14.79c.55.2,1.17.38,1.56-.26a17.22,17.22,0,0,0,1.11-2.13.87.87,0,0,0-.48-1.25C35,11,34.67,10.93,34.35,10.81Z" fill="#fcbd1b"/></svg>