<?xml version="1.0" encoding="utf-8"?>
<!-- Generator: Adobe Illustrator 23.1.0, SVG Export Plug-In . SVG Version: 6.00 Build 0)  -->
<svg version="1.1" id="Layer_1" xmlns="http://www.w3.org/2000/svg" xmlns:xlink="http://www.w3.org/1999/xlink" x="0px" y="0px" viewBox="0 0 50 50" enable-background="new 0 0 50 50" xml:space="preserve">
	<title>info</title>
	<path fill="#6281ef" d="M28.6,6.2c0.1,1.9-1.4,3.5-3.3,3.6c-0.1,0-0.3,0-0.4,0c-1.9,0-3.5-1.5-3.5-3.4c0-0.1,0-0.1,0-0.2
	c-0.1-2,1.5-3.6,3.5-3.7c0.1,0,0.1,0,0.2,0c1.9-0.1,3.5,1.4,3.6,3.4C28.6,6,28.6,6.1,28.6,6.2z M22.1,44.8V17.9
	c0-1.5,1.2-2.7,2.6-2.7h0.5c1.5,0,2.7,1.2,2.7,2.7c0,0,0,0,0,0v26.9c0,1.5-1.2,2.7-2.7,2.7h-0.5C23.3,47.5,22.1,46.3,22.1,44.8z" />
</svg>
