<?xml version="1.0" encoding="utf-8"?>
<!-- Generator: Adobe Illustrator 23.1.0, SVG Export Plug-In . SVG Version: 6.00 Build 0)  -->
<svg version="1.1" id="Layer_1" xmlns="http://www.w3.org/2000/svg" xmlns:xlink="http://www.w3.org/1999/xlink" x="0px" y="0px" viewBox="0 0 50 50" enable-background="new 0 0 50 50" xml:space="preserve">
	<circle fill="none" stroke="#6281ef" stroke-width="2" stroke-miterlimit="10" cx="25" cy="25" r="24" />
	<path fill="#fafafc" d="M16.2,12.7c0.6-0.5,1.1-0.9,1.7-1.3c0.6-0.4,1.3-0.7,2-1c0.8-0.3,1.5-0.5,2.3-0.7C23.1,9.5,24,9.4,25,9.4
	c1.2,0,2.5,0.2,3.7,0.5c1,0.3,2,0.8,2.8,1.5c0.8,0.7,1.4,1.5,1.8,2.4c0.4,1,0.6,2.1,0.6,3.2c0,1-0.1,1.9-0.5,2.8
	c-0.3,0.8-0.7,1.5-1.1,2.1c-0.4,0.6-1,1.1-1.5,1.5c-0.6,0.4-1.1,0.8-1.6,1.2c-0.5,0.3-0.9,0.7-1.3,1.1c-0.3,0.3-0.6,0.7-0.7,1.2
	l-0.6,3h-4.6l-0.5-3.5c-0.1-0.6-0.1-1.3,0.2-1.9c0.3-0.5,0.7-1,1.1-1.4c0.5-0.4,1-0.8,1.5-1.2c0.5-0.4,1.1-0.8,1.6-1.2
	c0.5-0.4,0.9-0.9,1.2-1.5c0.3-0.6,0.5-1.3,0.5-2c0-0.8-0.3-1.5-0.9-2.1c-0.7-0.5-1.5-0.8-2.4-0.8c-0.6,0-1.3,0.1-1.9,0.2
	c-0.5,0.1-0.9,0.3-1.3,0.5c-0.4,0.2-0.7,0.4-1,0.5c-0.2,0.2-0.5,0.2-0.8,0.2c-0.6,0-1.1-0.3-1.4-0.8L16.2,12.7z M20.1,37.9
	c0-0.5,0.1-1,0.3-1.4c0.4-0.9,1.1-1.6,2-2c0.5-0.2,1-0.3,1.5-0.3c0.5,0,1,0.1,1.5,0.3c0.4,0.2,0.9,0.5,1.2,0.8
	c0.3,0.3,0.6,0.7,0.8,1.2c0.2,0.5,0.3,1,0.3,1.4c0,0.5-0.1,1-0.3,1.5c-0.2,0.5-0.5,0.9-0.8,1.2c-0.3,0.3-0.8,0.6-1.2,0.8
	c-0.5,0.2-1,0.3-1.5,0.3c-0.5,0-1-0.1-1.5-0.3c-0.4-0.2-0.9-0.4-1.2-0.8c-0.3-0.3-0.6-0.8-0.8-1.2C20.2,38.9,20.1,38.4,20.1,37.9
	L20.1,37.9z" />
</svg>
