<?xml version="1.0" encoding="utf-8"?>
<!-- Generator: Adobe Illustrator 23.1.0, SVG Export Plug-In . SVG Version: 6.00 Build 0)  -->
<svg version="1.1" id="Layer_1" xmlns="http://www.w3.org/2000/svg" xmlns:xlink="http://www.w3.org/1999/xlink" x="0px" y="0px"
	 viewBox="0 0 50 50" enable-background="new 0 0 50 50" xml:space="preserve">
<path fill="#FCBD1B" d="M46.3,9.5H3.7C1.7,9.5,0,7.8,0,5.8v-2C0,1.7,1.7,0,3.7,0h42.5C48.3,0,50,1.7,50,3.7v2
	C50,7.8,48.3,9.5,46.3,9.5z"/>
<path fill="#FCBD1B" d="M46.3,29.7H3.7C1.7,29.7,0,28,0,25.9v-2c0-2.1,1.7-3.7,3.7-3.7h42.5c2.1,0,3.7,1.7,3.7,3.7v2
	C50,28,48.3,29.7,46.3,29.7z"/>
<path fill="#FCBD1B" d="M46.3,50H3.7C1.7,50,0,48.3,0,46.3v-2c0-2.1,1.7-3.7,3.7-3.7h42.5c2.1,0,3.7,1.7,3.7,3.7v2
	C50,48.3,48.3,50,46.3,50z"/>
</svg>
