<?xml version="1.0" encoding="utf-8"?>
<!-- Generator: Adobe Illustrator 23.1.0, SVG Export Plug-In . SVG Version: 6.00 Build 0)  -->
<svg version="1.1" id="Layer_1" xmlns="http://www.w3.org/2000/svg" xmlns:xlink="http://www.w3.org/1999/xlink" x="0px" y="0px"
	 viewBox="0 0 50 50" enable-background="new 0 0 50 50" xml:space="preserve">
<g>
	<path d="M24.9,18.8c3.3,0,5.9,2.7,5.9,6.1s-2.7,6.1-5.9,6.1s-5.9-2.7-5.9-6.1S21.6,18.8,24.9,18.8 M24.9,16.8
		c-4.4,0-7.9,3.6-7.9,8.1s3.6,8.1,7.9,8.1s7.9-3.6,7.9-8.1S29.2,16.8,24.9,16.8L24.9,16.8z"/>
</g>
<g>
	<path d="M27.8,2l1.7,6.8l4.2,1.4l5.9-3.6l4.1,4.2L40.3,17l1,2.4l6.7,1.8l0,6l-6.7,1.8L40.1,33l3.5,6.1l-4.1,4.2l-5.9-3.6l-4.2,1.5
		L27.5,48h-5.9L20,41.2l-4.1-1.9l-5.9,3.6l-4.1-4.2l3.5-6.1l-0.6-3.8L2,27l0-6l6.7-1.8l1.5-2.4l-3.5-6.1l4.1-4.2l5.9,3.6l3.5-1.4
		L21.9,2H27.8 M27.8,0h-5.9C21,0,20.2,0.6,20,1.5l-1.5,5.8L16.9,8l-5.1-3.1c-0.3-0.2-0.7-0.3-1-0.3c-0.5,0-1,0.2-1.4,0.6L5.2,9.5
		c-0.6,0.6-0.8,1.6-0.3,2.4l2.9,5l-0.4,0.7l-5.9,1.6c-0.9,0.2-1.5,1-1.5,1.9l0,6C0,28,0.6,28.8,1.5,29l5.4,1.4l0.3,1.8L4,37.7
		c-0.4,0.8-0.3,1.8,0.3,2.4l4.1,4.2c0.4,0.4,0.9,0.6,1.4,0.6c0.4,0,0.7-0.1,1-0.3l5-3l2.3,1l1.5,5.9c0.2,0.9,1,1.5,1.9,1.5h5.9
		c0.9,0,1.7-0.6,1.9-1.5l1.5-5.8l2.3-0.8l5.1,3.1c0.3,0.2,0.7,0.3,1,0.3c0.5,0,1-0.2,1.4-0.6l4.1-4.2c0.6-0.6,0.8-1.6,0.3-2.4
		l-3.1-5.3l0.7-2.2l5.6-1.5c0.9-0.2,1.5-1,1.5-1.9l0-6c0-0.9-0.6-1.7-1.5-1.9l-5.7-1.5l-0.2-0.5l3-5.2c0.4-0.8,0.3-1.8-0.3-2.4
		l-4.1-4.2c-0.4-0.4-0.9-0.6-1.4-0.6c-0.4,0-0.7,0.1-1,0.3l-5.1,3.1l-2.3-0.8l-1.5-5.8C29.5,0.6,28.7,0,27.8,0L27.8,0z"/>
</g>
</svg>
