<?xml version="1.0" encoding="utf-8"?>
<!-- Generator: Adobe Illustrator 23.1.0, SVG Export Plug-In . SVG Version: 6.00 Build 0)  -->
<svg version="1.1" id="Layer_1" xmlns="http://www.w3.org/2000/svg" xmlns:xlink="http://www.w3.org/1999/xlink" x="0px" y="0px"
	 viewBox="0 0 530.9 592.5" enable-background="new 0 0 530.9 592.5" xml:space="preserve">
<g>
	<path fill="#FCBD1B" d="M261.2,0c1.1,13.1,2.1,26.2,3.2,39.3c0,0.5,0,1,0,2c-1.8,0.2-3.5,0.5-5.4,0.8c-7.1-9.3-13.1-19.3-20.4-28.4
		c-0.3,0.2-0.6,0.3-0.9,0.5c0.8,9.6,1.7,19.2,2.6,29.2c-1.9,0.2-3.5,0.4-5.6,0.6c-1.1-13.9-2.3-27.4-3.4-41.6c2.1-0.1,4-0.3,6.1-0.4
		c6.8,9.7,13.5,19.3,20.8,29.7c-0.7-11.3-1.3-21.5-1.9-31.7C257.9,0,259.5,0,261.2,0z"/>
	<path fill="#FCBD1B" d="M281.2,0c0.9,0.5,1.8,1,3,1.7c-0.8,13.3-1.6,26.7-2.5,40.3c-1.9,0-3.5,0-5.6,0c0.7-14.2,1.4-28.1,2-41.9
		C279.2,0,280.2,0,281.2,0z"/>
	<path fill="#FCBD1B" d="M299.2,310.2c-1.3,0.7-2.5,1.4-4.2,2.3c2.2,2.6,4.1,5.1,6.2,7.4c4.9,5.1,5.3,11,3.1,17.2
		c-1.8,5-4.4,9.7-6.6,14.5c-1.5,3.2-2.9,6.3-4.5,9.9c-59.2,0-119,0-178.9,0c0-66,0-131.9,0-198.2c101.6,0,202.8,0,304.4,0
		c0,66,0,132,0,198.2c-32,0-63.6,0-95.3,0c-1.7-2.8-2.5-5.4,0.5-8c0.9-0.8,1.3-2.2,1.7-3.5c2.4-8.1,4.9-16.2,7-24.4
		c0.5-1.7,0.3-4.2-0.6-5.6c-5.9-8.9-7.8-18.2-4.1-28.5c0.2-0.6,0.2-1.3,0.4-2.6c-3,0.3-5.8,0.5-9.1,0.8c0,3.2,0,6,0,9.3
		c-4.3-1.9-2.4-5.8-3.9-8.6c-3.4,0-7,0-10.7,0c0,2.8,0,5.7,0,9.4c-4.1-2.9-2.1-6.7-3.9-9.9c-6-0.9-12.5-2-19.6-3.1
		c-1,4.3-1.9,8.3-2.7,12.3c-0.4,1.9-0.8,3.8-1.3,5.8c-0.3,0-0.7,0-1-0.1c-0.4-0.3-0.7-0.5-1.1-0.8l0.1,0c-0.3-0.3-0.6-0.7-1-1l0,0.1
		c-0.3-0.4-0.5-0.7-0.8-1.1c0.9-0.8,1.8-1.5,2.7-2.3c-0.6-7.3,2.6-13.7,5-20.5c-1.3-0.3-2.4-0.5-3.4-0.8c-0.1-0.2-0.1-0.4-0.2-0.6
		c2.6-0.6,5.2-1.3,7.7-1.9c-1,2.7-2,5.4-3.2,8.6c6.3,0.9,11.9,1.7,18.7,2.7c-1.3-4.2-2.2-7.1-3-10.1c-0.3-1-0.4-2.1-0.6-3.2
		c2.4-1.4,2.4,1,2.8,2c1.3,3.5,2.4,7.1,3.6,10.6c3.6,0,7,0,11.3,0c-1.1-3.1-2-5.7-2.8-8.3c-0.4-1.4-0.5-2.9-0.8-4.4
		c0.8,0.6,1.9,1.1,2.4,1.9c1.9,3.5,3.5,7.1,5.6,11.3c3.1-0.8,6.3-1.3,9.4-2.4c3.6-1.3,7-3.2,10.5-4.5c2.1-0.8,4.5-2,6.5,0.2
		c1.7,1.9,1.8,4.1,0.8,6.5c-0.7,1.6-0.8,3.5-1.2,5.3c-1.6,6.9,1.9,11.4,7.3,15.8c0-2.8,0-4.9,0-7.4c2.2,0.6,4,1.2,6.2,1.8
		c-0.6-2.1-1-3.7-1.6-5.9c2.3,0.5,4.2,0.9,6.5,1.4c-3.6-6.6-3.6-6.9-2.9-13.9c0.1-1.5,0.3-3,0.3-4.5c-0.1-5.7-3.2-9.2-9-10.1
		c-6.2-0.9-11.4,1.7-16.3,5c-2.4,1.7-4.7,3.6-7,5.3c-11.6-10.4-13.8-11.7-19.8-11.3c0.1,0.8,0.2,1.6,0.3,2.4
		c-1.3-0.3-2.6-0.3-3.7-0.9c-2.8-1.6-5.7-2.5-8.8-1.5c0.2,1.9,0.3,3.7,0.5,5.5c-1.4-0.7-2.7-1.3-3.4-1.7c-3.3,1.4-5.9,2.5-8.6,3.6
		c0.4-0.7,0.6-1.6,1.1-2.1c2.2-2.1,4.4-4.1,7-6.5c-2.5-1.3-3.8-4-6.1-1.2c-0.2,0.2-0.5,0.4-0.7,0.6c-0.4-0.5-1.2-1.3-1.1-1.6
		c0.4-1.1,1.2-2.1,1.8-3c-1.7-2-3-3.6-4.4-5.2c-0.4-0.5-0.8-0.9-1.3-1.4c-0.5-0.5-0.9-0.9-1.4-1.4c-0.7,0.2-1.3,0.4-2,0.6
		c0.4-1,0.7-1.9,1.1-2.9c0-0.3,0-0.7,0-1c-0.3-0.5-0.5-1-0.8-1.5c0.1-0.2,0-0.4-0.2-0.5c-0.4-0.4-0.7-0.7-1.1-1.1c-0.3,0-0.7,0-1,0
		c-0.8,0.3-1.6,0.6-2.3,0.9c-0.3-0.1-0.5,0-0.7,0.2c-0.8,0.3-1.5,0.6-2.3,0.9c-0.9,0.3-1.8,0.7-2.7,1c-0.8,0.3-1.6,0.6-2.4,1
		c-0.2-0.2-0.4-0.1-0.6,0.2c-0.8,0.3-1.6,0.6-2.3,0.9c-1.6,0.6-3.2,1.2-5.4,1.9c0.6,1.7,1.1,3,1.6,4.3c0.7,0.6,1.4,1.2,2.1,1.8
		c0.3,0,0.7,0,1-0.1c0.6-0.1,1.1-0.1,1.7-0.2c0.2,0.2,0.3,0.4,0.5,0.5c-0.2,0.5-0.3,1-0.5,1.6l0.1-0.1c-0.6,0.4-1.1,0.9-1.7,1.3
		c-0.3,0.1-0.6,0.3-0.9,0.4c-0.6,0.2-1.2,0.3-1.4,0.3c-1-1.3-1.9-2.5-2.7-3.7c-0.6-1.9-1.2-3.9-1.8-6.1c-0.8,0.4-1.5,0.8-2.1,1.1
		c-1.3-0.4-2.7-0.7-4-1.1c1.2-0.5,2.5-0.9,3.7-1.4c0.4-0.4,0.9-0.8,2-1.7c-1.6,0.2-2.4,0.2-3.1,0.3c-1.2,0.4-2.4,0.7-3.6,1.1
		c-0.8,0.2-1.5,0.4-2.3,0.6c-0.3-0.1-0.6,0.1-0.7,0.4c-0.5,0.2-0.9,0.4-1.4,0.6c-0.2-0.1-0.4-0.1-0.6,0.1c-0.5,0.3-1.1,0.5-1.6,0.8
		l-0.4,0.1c-1.6,0.7-3.2,1.5-4.9,1.9c-1.3,0.4-3,1.7-4-0.7c3.7-1.6,7.4-3.3,11.2-4.9c-1-1.8-1.5-2.8-2.1-3.9
		c0.3-0.2,0.6-0.5,0.9-0.7c1.3,1.1,2.5,2.2,4.1,3.6c1.2-0.5,2.5-1.1,3.9-1.7c-2.5-5.8-5.4-9.3-9.2-11.4c-0.6-0.4-1.2-0.8-1.8-1.2
		l0.1,0.1c-0.4-0.4-0.7-0.7-1.1-1.1l0.1,0c-3.1-1.7-6.1-3.3-9.2-5l-0.4,0c-0.9-0.3-1.7-0.6-2.6-1l-0.4,0c-1.2-0.3-2.4-0.6-3.6-0.9
		c-0.5,0-0.9,0-1.4,0c-1.7-0.3-3.5-0.6-5.8-0.9c0.4,2.6,0.7,4.5,1,6.3l0,0.1c2.4,1,4.7,2,7.1,2.9l-0.1-0.1c0.1,1,0.1,2,0.2,3
		c-2-0.7-4-1.5-6-2.2c-0.2-0.1-0.3-0.2-0.5-0.2c-0.1,0-0.3,0.2-0.3,0.3c0.2,2.6,0.4,5.1,0.6,7.7c0.1,0.8,0.2,1.6,0.3,2.5
		c0.2,2.2,0.5,4.4,0.7,6.6c0.1,0.8,0.2,1.6,0.2,2.4c1.1,0.3,2.1,0.6,3.6,1c0-1.4,0-2.2,0-3c0.1-0.5,0.2-1.1,0.4-1.6
		c0.2-0.8,0.5-1.6,0.7-2.5c0,0,0.1-0.1,0.1-0.1c0.3,1.4,0.6,2.8,0.9,4.2c0,0.9,0,1.7,0,2.6c0,0.6,0,1.3,0,1.9
		c-0.2,0.1-0.2,0.3,0,0.5c0.1,0.3,0.2,0.7,0.3,1c0,0.4-0.1,0.7-0.1,1.1c0.8,0.4,1.6,0.7,2.3,1.1c-1.7,3.1-1.5,6.2-0.5,9.4
		c0,0.5,0,1,0,1.5c0.5,0.1,0.9,0.1,1.4,0.2c0,0,0,0,0,0c0.8-0.4,1.7-0.7,2.5-1.1l-0.2,0.3l0.3-0.1c-0.1,0.6-0.3,1.1-0.4,1.7
		c-0.1,0.6-0.3,1.2-0.4,1.8c-0.1,0.2-0.3,0.5-0.4,0.7c0.1-0.2,0.3-0.5,0.4-0.7c1.5,0,3,0.2,4.4,0c4.5-0.6,9-1.3,13.5-1.9
		c0.1,0.7,0.2,1.4,0.3,2.1c0,1-0.1,2-0.1,3c0.1,0.8,0.1,1.5,0.2,2.5c4.7,0.2,9.2,0.5,13.7,0.7c0,3.2,0,6,0,8.8L261,292
		c-0.4,0-0.9,0-1.3,0.1c0.1-0.7,0.2-1.4,0.3-2.1c0-0.3,0.1-0.7,0.1-1c-0.1-1.1-0.2-2.2-0.4-3.6c-4-0.4-7.9-0.7-11.6-1.1
		c-0.8,8.8-1.6,16.9-2.3,24.7c-5.3,3.2-10.5,5.3-11.5,12.5c7.3-2.5,14-4.8,20.2-7c0.7-4.5,1.3-8.4,1.9-12.3c0.5,0,0.9,0.1,1.4,0.1
		c-0.2,0.6-0.4,1.1-0.6,1.7c-0.1,1.4-0.4,2.9-0.1,4.3c0.1,0.7,1.3,1.3,2,1.9c9.7,1,19.3,2.7,29,0.8c3.5-0.7,7.1-1.5,10.6-2.3
		c0.1,0.2,0.3,0.3,0.4,0.5C299.2,309.5,299.2,309.8,299.2,310.2z M236.4,278.1c-0.3,0.1-0.7,0.1-1,0.2c-1.9,0.3-3.7,0.6-5.6,1
		c-0.8,0.4-1.6,0.9-2.4,1.3c-1.1,1.5-2.3,2.9-3.4,4.4c2.2,0.8,3.8,1.4,5.3,2c-2.5,0.7-5.9,0.3-5.7,4.5c1.4,0.4,2.7,0.7,5.1,1.4
		c-6.8,0.5-12.5,1.2-18.1,1.2c-3.5,0-6,1.2-8.4,3.5c-4.4,4.3-8.9,8.5-13.3,12.9c-3.4,3.3-4.5,7.5-4.3,12.7c2.7-0.4,5.1-0.7,7.4-1.1
		c-0.5-5.9-0.4-6.5,2.2-8.5c4.4-3.5,8.8-7.1,13.3-10.4c1.2-0.9,3-1.7,4.5-1.6c4.9,0.4,9.8,1.4,14.8,2c5.9,0.6,11.7,2.3,18.1,1
		c0-6.7,0-13.3,0-19.9c-3.9,0.2-7.7,0.3-11.5,0.5c3.3-0.7,6.7-1.5,10-2.2c0.6-0.1,1.2-0.4,2-0.6c-0.3-1.4-0.5-2.6-0.8-4.2
		C241.6,278.1,239,278.1,236.4,278.1z M269.2,215.1c0-3.1,0.1-6.2-0.1-9.3c-0.1-2.5-0.2-5-2.5-6.7c-3.6-0.1-3.9,2.5-4.2,5
		c-0.5,5,2,10.1,5.8,11.9c-1.4,2.4-2.7,4.7-4.1,7.1c-0.2-0.9-0.3-1.9-0.6-3c-5.1-2.1-10.3-4.2-15.9-6.5c-0.4-4.9-0.7-9.8-1.1-14.7
		c-0.2-2.9-0.8-5.8,1-8.7c1.3-2.2,0.8-4.9-1.6-6.1c-1.5-0.8-3.9-0.8-5.5-0.2c-2.6,1.1-2.9,4.2-1.7,6c2.6,4.1,1.4,8.4,1.5,12.6
		c0.1,5.6,0,11.2,0,17.2c6.8,3,14,6.1,20.8,9.1c1.2-2.2,2.2-4,3.2-5.9c-0.2,2.8-0.4,5.7-0.6,9.1c3.3-0.6,6.1-1.1,8.7-1.6
		c0-3.7,0-6.6,0-9.8c2.9-0.5,5.8-1.1,9-1.6c-0.9-1.5-1.5-2.7-2.1-3.8c2.8-5.3,4.2-10.8,2.9-16.9c-4.2-1.6-8.3-1.5-12.8-0.5
		C271.2,203.8,273.3,209.5,269.2,215.1z M274.2,222.3c2.3,16.7,6,32,20.2,43c3-3,4.6-6.2,5.7-9.7c2.9-9.4,2.3-19.1,1.4-28.7
		c-0.3-2.7-1.2-5.4-1.8-8.4C291,219.8,282.8,221,274.2,222.3z M253.9,197.3c0.4-0.2,0.7-0.3,1.1-0.5c0.5-2.2,0.9-4.5,1.4-7.1
		c1.3,0,2.4,0,3.5,0c13.6-0.2,27.3-0.4,40.9-0.6c4.6-0.1,8.9-1.6,13.1-3.9c-5.7-1.5-11.4-3-17.1-3c-12.5,0-24.9,0.8-37.4,1.2
		c-1.3,0-2.5,0-3.6,0c-0.9-2.7-1.7-4.8-2.6-7.6c-1.2,3.6-2.2,6.3-3.5,10.2C250.8,189,252.4,193.2,253.9,197.3z M222.3,284.5
		c-7.1-0.1-13.6-0.1-20-0.1c-0.8,0-1.6,0.4-2.3,0.8c-4.7,2.5-9.4,4.9-14,7.4c-6.8,3.7-8.7,9.7-8.7,17c3.3,0,6.3,0,9.6,0
		c-0.3-1.2-0.5-2-0.7-2.8c-0.9-3.8-0.4-6.8,3.7-8.6c3.6-1.6,7-3.7,10.5-5.5c2.9-1.5,5.9-1.8,9.2-1.3c3.9,0.5,7.8,0.5,12,0.7
		C221.8,289.5,222,287.6,222.3,284.5z M204.9,238.3c-0.5,1.1-1.5,2.3-1.3,3.3c1.2,5.7,2.8,11.4,4.3,17.5c2.8-0.5,5.4-0.9,8.3-1.4
		c-0.9-7.1-1.8-13.8-2.5-20c-2.6-1.4-5.4,1.1-7.8-1.4c2.6-0.7,4.8-1.3,7.3-1.9c-0.1-2-0.2-3.9-0.3-5.3c-3.4-1.6-6.1-2.9-9.2-4.3
		c-0.3,1.9-0.4,3.2-0.6,4.6c-1.5,0-2.7,0-4.5,0C200.7,232.8,200.6,237.2,204.9,238.3z M276.3,245.2c-1.2-4.7-2.3-8.7-3.4-12.8
		c-3.3,0.8-6.3,1.4-9.8,2.2c0.7,4.9,1.3,9.3,2.1,14.4C269.4,247.5,272.7,246.4,276.3,245.2z M208.2,260.9c2,6.2,5.3,8.5,9.4,7.5
		c3.6-0.9,4.8-3.4,3.7-8.5C217.1,260.2,212.9,260.6,208.2,260.9z"/>
	<path fill="#FCBD1B" d="M114.2,368.2c98.4,0,196.3,0,294.6,0c-2.2,6.4-7,10.7-11.9,15.7c2.9-0.3,5-0.6,7.1-0.8
		c0.1,0.3,0.2,0.7,0.4,1c-11.5,4.1-22.9,8.3-34,15.7c2.8,0,4.6,0,7,0c-9,3.6-17.2,6.8-25.6,10.1c2.9,7.4,8.3,13.7,3.6,22.5
		c-1.4-7.3-2.5-14.1-7.5-19.8c-4.4,0.9-9.1,1.8-14.1,2.8c5.1,14.2,6.9,28.6,4.1,43.9c17.5-7,33.5-15.3,49-25.2c-1.5,0-3,0-4.5,0
		c-1.4,0.1-2.8,0.2-4.3,0.3c-0.1-0.3-0.2-0.6-0.3-1c2.2-0.8,4.5-1.7,6.7-2.3c3.3-1,6.7-1.8,10.1-2.6c3.9-0.9,6.1-3.4,7.6-7.1
		c6.7-17,10.6-34.5,11.2-53.1c1-0.1,2-0.3,2.9-0.3c0.8,0,1.6,0.1,2.4,0.1c1.8,63.7-46.7,140-134.1,148.8
		C180.5,527.4,115,446.1,114.2,368.2z M277.2,460c-1,0.5-2,0.9-3,1.4c0.1,0.4,0.3,0.8,0.4,1.1c4.7-0.5,9.3-1.1,13.8-2.8
		c1.8-0.7,3.8-1.8,5.6-1.6c6.6,0.9,11.5-2.3,16.3-5.9c7.9-6,15.7-12.1,24.1-18.5c0.2-5-1-10.3-3.4-14.7c-19.7-2.2-37,5.3-54.8,10.4
		c6.9,2.7,13.9,2,21.2,0.8c-0.4,0.8-0.4,1.4-0.8,1.7c-5.8,5.2-11.5,10.6-18.6,14c-3.9,1.9-7.7,3.9-11.4,6c-1,0.6-1.6,1.8-2.4,2.8
		c0.9,0.4,1.7,0.9,2.6,1.3c0.8,0.4,1.6,0.7,2.4,1.1c0.3,0.6,0.6,1.7,0.9,1.7c2.4-0.2,4.7-0.6,7-0.9
		C277.2,458.7,277.2,459.4,277.2,460z M261.6,469.8c-0.5-19.3-1-38.2-1.6-57.4c-8.2-0.8-12.5-5.6-13.6-13.6c-2.7,0.3-5,0.6-7.3,0.8
		c-2.3,0.3-4.5,0.5-6.9,0.8c0.2,4.2-0.4,8.3-3.7,10.7c-3.1,2.2-6.8,3.5-10.4,5.3c0,18.7,0,38.1,0,57.6c4.5,0,8.5,0.7,10.9,3.9
		c2.2,2.9,3.5,6.5,5.5,10.4c4.4-0.5,9.4-1,14.7-1.6C249.1,478,252.9,472.4,261.6,469.8z M205.5,391.8c0,28.8,0,57.2,0,85.8
		c1.3,0,2.3,0,3.8,0c0-27.4,0-54.5,0-82.1c2-0.6,3.6-1.2,5.4-1.5c6.3-0.9,12.5-1.7,18.8-2.4c9.7-1.2,19.5-2.3,29.2-3.4
		c0.8-0.1,1.8,0.5,2.6,0.7c0,0.4-0.1,0.9-0.1,1.3c-17.4,2.1-34.8,4.2-52.8,6.4c-0.3,2.3-0.8,4.5-0.8,6.8
		c-0.1,23.8-0.2,47.6-0.2,71.5c0,2.5-0.4,5.2,3.6,6.1c0.4-2,1-4,1.1-6c0.1-9.8,0-19.7,0-29.5c0-15,0-29.9,0-45.2
		c1.5-0.4,2.8-1.1,4.3-1.2c11.2-1.4,22.5-2.6,33.7-4c4.4-0.5,8.9-1.3,13.3-2.1c2.6-0.5,4.5-2.2,4.9-5c0.4-3.1-1.5-5.1-3.9-6.5
		c-1.5-0.9-3.5-1.4-5.2-1.4c-3.6-0.1-7.3,0.1-11,0.4c-5.3,0.4-10.6,1.1-15.9,1.6c-10.3,0.9-20.6,1.7-30.8,2.7
		c-5.9,0.6-6.3,1.2-6.3,7.2c0,27,0.1,54,0.1,81c0,1.2-0.2,2.4,0.2,3.5c0.2,0.7,1.2,1.1,2.6,2.4c0.3-2.8,0.7-4.8,0.7-6.7
		c0.1-9,0.3-18,0.2-27c-0.2-16.8-0.6-33.6-0.8-50.5c-0.1-4.7,0.9-5.9,5-6.5c6.1-0.8,12.2-1.4,18.3-2c9.8-1,19.5-1.8,29.3-2.8
		c4.5-0.5,7.1-0.5,9.4,1.3C244.7,387,225.3,389.4,205.5,391.8z M272.1,419.7c0-6.5,0-12.2,0-17.9c-3.1,1.2-6,2.3-8.8,3.4
		c0,6.1,0,12,0,18.9C266.8,422.3,269.6,420.9,272.1,419.7z M333.9,462.3c2.1-8.8,2-16.5,1.2-25.2c-3.2,2.2-5.9,4-8.7,5.9
		C327.2,450,327.9,456.5,333.9,462.3z M265,459.8c0,6.1,0,12.1,0,18.9c3.5-1.2,6.3-2.2,9.1-3.2c0-4,0-7.5,0-10.7
		C270.9,463.1,268,461.4,265,459.8z M217.6,476.4c-0.1,1.4-0.2,2.8-0.2,4.3c0.1,8.7,0.3,9,8.9,8.5c1.3-0.1,2.5-0.3,3.7-0.4
		C230.2,480.6,225.7,476.1,217.6,476.4z M264,450.4c3.4-1.9,5.9-3.4,7.9-4.5c0-5.3,0-9.9,0-14.8c-2.9,0.9-5.4,1.6-7.9,2.3
		C264,438.8,264,444.2,264,450.4z M217.6,412.6c9.1-0.4,12.2-3.8,11.2-12.2c-3.7,0.3-7.3,0.7-11.2,1
		C217.6,405.5,217.6,408.9,217.6,412.6z M261.8,485c0-3.3,0-6.1,0-8.9c0-0.8-0.3-1.5-0.5-2.3c-6.8,1.3-9.8,5.8-8,12.3
		C256,485.7,258.7,485.4,261.8,485z M259.8,409c0-3.9,0-7.5,0-11.4c-3.7,0.3-7,0.6-10.3,0.8C250.9,406.2,253.6,408.9,259.8,409z
		 M273.3,422c-3.6,1.5-6.9,2.8-10.6,4.4c0.1,1.2,0.2,2.6,0.3,3.9C270.6,430.7,274,428.1,273.3,422z M262.6,401.7
		c7.6-0.5,10.9-3.5,9.5-8.5c-3.1,1.3-6.2,2.6-9.5,4C262.6,398.5,262.6,399.9,262.6,401.7z M264.9,484.7c8.8-1.2,9.9-2,9.8-6.6
		c-3.4,1.3-6.7,2.5-10.2,3.8C264.6,482.9,264.7,483.8,264.9,484.7z"/>
	<path fill="#FCBD1B" d="M28.7,158.2c1-2,1.7-3.4,2.7-5.4c11.4-0.3,23-0.7,34.6-1c-3.7-3.5-8.1-5.7-12.4-8.1
		c-4.3-2.4-8.7-4.8-13.2-7.2c0.9-1.6,1.6-3,2.6-4.8c12.3,6.6,24.3,13.1,36.4,19.7c-1.1,2-1.9,3.6-2.8,5.3
		c-11.7,0.4-23.4,0.9-35.1,1.3c-0.1,0.2-0.1,0.5-0.2,0.7c8.6,4.7,17.2,9.4,26.2,14.3c-0.9,1.7-1.6,3.1-2.5,4.9
		C52.9,171.3,41,164.8,28.7,158.2z"/>
	<path fill="#FCBD1B" d="M459.3,431.4c1-1.5,1.8-2.9,2.9-4.6c11.8,7.2,23.5,14.3,35.4,21.6c-1.1,1.9-2,3.5-2.9,5
		c-11.8,0-23.4,0-36,0c8.9,5.5,17.3,10.7,25.9,16c-0.9,1.7-1.7,3-2.6,4.7c-11.8-7.2-23.3-14.2-35.3-21.5c1-1.7,1.9-3.4,3-5.5
		c11.7,0.3,23.4,0.7,35.1,1c0.1-0.3,0.2-0.6,0.3-0.9C476.6,441.9,468,436.7,459.3,431.4z"/>
	<path fill="#FCBD1B" d="M424.5,536.1c-1.5,1.2-2.7,2.1-4.2,3.4c-8.9-10.4-17.8-20.6-26.8-31.2c1.6-1.5,3-2.8,4.4-4.1
		c11.1,3.8,21.9,7.5,32.8,11.3c0.2-0.3,0.4-0.5,0.6-0.8c-6.3-7.4-12.5-14.7-19.5-22.9c1.3-0.8,2.8-1.5,4.8-2.7
		c8.4,9.8,17.3,20,26.6,30.8c-1.6,1.2-3.2,2.3-5.2,3.8c-10.3-3.5-21.3-7.3-32.3-11.1c-0.2,0.3-0.3,0.6-0.5,0.9
		C411.5,520.8,417.8,528.2,424.5,536.1z"/>
	<path fill="#FCBD1B" d="M311.2,274c-2.4,0.3-2.8-0.4-2-3C311.1,271.2,312,272.1,311.2,274z"/>
	<path fill="#FCBD1B" d="M290.1,246.6c-1.7,0.3-3.2,0.6-5,1c-0.3-1.2-0.6-2.3-0.9-3.7c1.9-0.4,3.5-0.7,5.4-1.1
		c-0.3-2.5-0.6-4.7-0.9-6.9c-2.2,0-3.9,0-6,0c-0.1-0.8-0.2-1.6-0.4-2.7c1.9-0.5,3.6-0.9,5.5-1.4c-0.4-2.3-0.8-4.5-1.2-7.1
		c0.9-0.3,1.9-0.7,3.4-1.2c0.5,2.5,1,4.9,1.5,7.7c1.7-0.2,3.4-0.3,5.4-0.5c0.1,0.9,0.3,1.9,0.5,3c-1.7,0.4-3.2,0.8-5.1,1.3
		c0.4,2.3,0.8,4.5,1.2,7.1c1.8-0.2,3.3-0.5,5.1-0.7c0.2,1.3,0.4,2.3,0.6,3.6c-1.8,0.5-3.4,0.9-5.1,1.3c0.4,2.5,0.7,4.7,1.1,7.4
		c-1.6,0.1-3,0.2-4.5,0.3C290.4,251.3,290.3,249,290.1,246.6z"/>
	<path fill="#7B0340" d="M268.2,216.1c0.4-0.4,0.7-0.7,1.1-1.1C268.9,215.4,268.5,215.7,268.2,216.1z"/>
	<path fill="#FCBD1B" d="M260,289.9c-0.1-0.2-0.1-0.5-0.2-0.7c0-0.1,0.2-0.2,0.3-0.3C260.1,289.2,260,289.6,260,289.9z"/>
	<path fill="#FCBD1B" d="M264.3,454.8c1.9-0.1,4,0.2,5.7-0.5c6.6-2.7,13-5.7,19.5-8.6c1.4-0.6,2.8-1.4,4.5-1.6
		c-7,6.6-15.9,9.8-24.7,13.1c-0.8-0.4-1.6-0.7-2.4-1.1C266,455.7,265.2,455.3,264.3,454.8z"/>
	<path fill="#FCBD1B" d="M277.2,458.1c6.9-3.2,13.7-6.4,20.6-9.6c0.2,0.4,0.3,0.7,0.5,1.1c-6.1,5.3-13.4,8.3-21.1,10.4
		C277.2,459.4,277.2,458.7,277.2,458.1z"/>
	<path fill="#FCBD1B" d="M263.8,260.7c0.6-0.3,1.3-0.5,1.9-0.8c0.1,0.2,0.2,0.5,0.3,0.7c-0.6,0.2-1.1,0.4-1.7,0.7
		C264.2,261,264,260.9,263.8,260.7z"/>
	<path fill="#FCBD1B" d="M234,434.8c1.2-5.4,2.3-6.7,6-6.8c3.7-0.1,4.4,0.6,5.8,5.9c3.1,0.7,6.2,1.7,6.3,5.8
		c0.1,3.7-2.7,4.6-5.6,5.5c-0.6,3.4-0.3,7.9-5.1,8.4c-4,0.4-4.8-3.4-6-6.4c-2.9-1.3-7.3-0.8-7.5-5.8
		C227.9,437.4,230.6,436.1,234,434.8z M238.1,444c0.2,3.3-0.2,6.1,3.4,6.9c3.4-1.6,2.5-4.7,2.5-7.6c1.7-0.6,3.3-1.2,5.3-1.9
		c-0.1-1.4-0.2-2.8-0.4-4.3c-2.1-0.5-3.9-1-5.6-1.4c-1-5.9-1.9-6.4-6.1-3.1c0,1.4,0,2.8,0,4.5c-1.3,0.4-2.8,0.5-3.8,1.2
		c-1,0.8-2.3,2.2-2.2,3.4c0,0.8,1.9,1.8,3.1,2.3C235.3,444.3,236.6,444,238.1,444z"/>
	<path fill="#FCBD1B" d="M57.5,183.6c1.8,0.7,2.9,1.2,4.5,1.8c-2.3,6-4.6,11.7-6.9,17.7c-13-5-25.6-9.9-38.6-14.9
		c0.7-1.9,1.3-3.4,1.9-5.2c11.4,4.4,22.5,8.7,33.9,13.1C54.1,191.9,55.7,188,57.5,183.6z"/>
	<path fill="#FCBD1B" d="M370.1,522.9c1.7-1.1,3.1-1.9,4.7-2.8c6.4,10.2,12.7,20.3,19.3,30.8c3.9-2.3,7.6-4.5,11.5-6.8
		c0.8,1.2,1.6,2.4,2.7,3.9c-5.4,3.4-10.7,6.7-16.2,10.1C384.7,546.4,377.5,534.9,370.1,522.9z"/>
	<path fill="#FCBD1B" d="M291,97.3c-5.3,11.9-10.3,23.2-15.3,34.5c-1.5,0-2.8,0-4.8,0c4.5-10.2,8.9-20,13.5-30.3
		c-5.1,0-9.7,0-14.6,0c0-1.6,0-2.8,0-4.2C276.6,97.3,283.4,97.3,291,97.3z"/>
	<path fill="#FCBD1B" d="M184.9,532.7c1.9,0.8,3.5,1.4,5.3,2.1c-5.5,12.9-10.8,25.3-16.3,38.1c-1.8-0.7-3.3-1.4-5.3-2.2
		C174.1,557.9,179.4,545.5,184.9,532.7z"/>
	<path fill="#FCBD1B" d="M376.4,566.4c-1.8,0.8-3.2,1.5-5.1,2.4c-6-12.5-11.8-24.8-17.8-37.3c1.9-0.9,3.3-1.6,5.1-2.5
		C364.6,541.5,370.5,553.8,376.4,566.4z"/>
	<path fill="#FCBD1B" d="M520.8,392.2c-13.2-4-26.1-7.8-39.5-11.9c0.5-1.8,0.9-3.4,1.4-5.5c13.3,4,26.4,7.9,39.8,11.9
		C521.9,388.7,521.4,390.3,520.8,392.2z"/>
	<path fill="#FCBD1B" d="M10.9,204.7c13.9,4,26.9,7.7,40,11.5c-0.4,1.8-0.8,3.2-1.3,5.4c-13.1-3.7-26.1-7.3-39.7-11.2
		C10.1,208.8,10.5,207,10.9,204.7z"/>
	<path fill="#FCBD1B" d="M55.9,112.5c11.7,8.2,22.8,16,34,23.9c-1,1.5-1.9,2.9-3.2,4.7c-11.3-8-22.5-15.8-33.9-23.8
		C53.9,115.7,54.8,114.3,55.9,112.5z"/>
	<path fill="#FCBD1B" d="M69.6,418.5c1,2,1.8,3.4,2.6,5.1c-12.3,6.2-24.4,12.2-36.9,18.5c-0.8-1.5-1.7-3-2.8-4.9
		C45,430.8,57,424.8,69.6,418.5z"/>
	<path fill="#FCBD1B" d="M420.5,109.7c-1.2-1.2-2.3-2.4-3.1-3.3c9.6-9.9,19-19.6,28.7-29.6c1.4,1.3,2.7,2.5,3.4,3.1
		C439.9,89.9,430.3,99.7,420.5,109.7z"/>
	<path fill="#FCBD1B" d="M22.8,415.3c7.6-9.2,14.9-18,22.2-26.8c-0.1-0.3-0.2-0.5-0.4-0.8c-9.2,3.3-18.5,6.6-28.1,10.1
		c-0.6-1.7-1.2-3.3-1.9-5.1c13.1-4.8,25.8-9.4,38.7-14.1c0.8,1.9,1.4,3.3,2.3,5.4c-7.3,8.8-14.7,17.7-22.7,27.4
		c10.4-2.1,19.1-6.9,28.9-9.6c0.6,1.5,1.2,3,2,4.9c-13,4.8-25.9,9.4-38.9,14.2C24.2,418.9,23.5,417.2,22.8,415.3z"/>
	<path fill="#FCBD1B" d="M381.6,60.1c0,5.5,0,10.6,0,16.2c-1.9-1-3.4-1.8-5.4-2.8c0-2.4-0.2-4.9,0-7.3c0.6-6-1.2-10.4-8-11.8
		c-2,3.3-4.1,6.8-6.4,10.7c-1.6-0.9-3.1-1.7-4.8-2.6c6.9-12.1,13.6-23.8,20.6-36.1c5.2,3,10.2,5.5,14.8,8.7c4.5,3.1,6.3,10,4.5,15.3
		c-1.8,5.5-6.5,9.2-12.1,9.7C383.9,60.1,382.9,60.1,381.6,60.1z M370.9,49.5c3.2,1.7,6.1,3.6,9.2,4.9c4.2,1.8,8.1,0.3,10.6-3.7
		c2.5-4,2.2-8.4-1.2-11.2c-2.9-2.3-6.2-4-9.5-6C376.8,39.1,373.9,44.1,370.9,49.5z"/>
	<path fill="#FCBD1B" d="M122.1,490.7c4.2,3.6,8.2,6.7,11.7,10.2c7.9,7.8,4.9,20.5-5.4,23.6c-2.6,0.8-5.6,0.6-8.9,0.8
		c-0.8,4.7-1.7,9.8-2.7,15.4c-1.7-1.5-3.1-2.7-4.6-4c0.7-5,1.4-10.1,2.2-15.2c-2.1-1.8-4.1-3.5-6.3-5.4c-2.9,3.3-5.6,6.4-8.5,9.8
		c-1.4-1-2.8-2.1-4.4-3.2C104.2,511.9,113,501.5,122.1,490.7z M111.1,512.1c2.9,2.4,5.2,4.5,7.7,6.3c3.8,2.8,8.6,2.2,11.7-1.2
		c3.5-3.9,3.8-8.9,0.3-12.6c-2.3-2.3-4.9-4.3-7.6-6.7C119.1,502.7,115.4,507.1,111.1,512.1z"/>
	<path fill="#FCBD1B" d="M514.2,369.5c0-0.8,0-1.5,0-2.1c0.1-0.8,0.2-1.6,0.3-2.8c1.5-0.2,2.9-0.2,4.3-0.5c5.1-1,8.3-7,6.6-12
		c-1-2.9-3.2-4.6-5.8-4.7c-2,0-4.3,1.4-5.9,2.9c-1.6,1.5-2.4,3.9-3.7,5.9c-1.1,1.7-2.2,3.3-3.4,4.9c-2.6,3.2-6,4.8-10.1,3.8
		c-4.8-1.2-7.8-4.3-9.1-9c-2.4-9.2,5.2-17.6,14.6-16.2c0,1.4,0,2.9,0,4.7c-1.6,0.2-3,0.3-4.4,0.7c-3.5,0.8-6.1,5.3-5.4,9
		c0.6,3.4,3.5,5.8,6.8,5c1.9-0.5,3.8-2,5-3.6c1.9-2.4,3.2-5.4,5-8c3.8-5.5,8.7-7.1,14.1-4.7c5.6,2.4,8,8.1,7.4,14.2
		C529.8,364.9,522.4,371.3,514.2,369.5z"/>
	<path fill="#FCBD1B" d="M262.4,579c1.9-0.2,3.4-0.4,3.9-0.4c2.4,3,3.9,5.9,6.3,7.5c1.8,1.2,4.7,1.1,7.1,0.9
		c3.2-0.3,5.1-2.5,5.5-5.5c0.4-3.3-0.6-5.5-3.6-6.9c-2.2-1-4.7-1.6-7-2.5c-1.7-0.6-3.5-1.1-5.1-1.9c-4.8-2.4-7.1-6.6-6.3-11.3
		c0.9-5.2,5.3-9.3,10.5-9.8c8.8-0.9,14.6,3.5,15.2,12c-1.5,0.1-3.1,0.2-4.6,0.4c-2.5-6.3-4.5-7.9-9.3-7.3c-3.4,0.4-5.6,2.1-6.1,4.9
		c-0.6,3.3,0.7,5.7,4.1,7.1c2,0.8,4.1,1.3,6.1,2c1.6,0.5,3.2,1,4.7,1.7c5.4,2.5,8,7,7,11.9c-1.1,5.8-5.5,9.6-11,10.6
		C270.8,593.8,263.2,588.3,262.4,579z"/>
	<path fill="#FCBD1B" d="M520.6,252.5c-0.4-1.4-0.8-2.8-1.3-4.5c1.3-0.7,2.6-1.3,3.7-2.1c3.9-3.1,3.7-7.6,1.3-11.1
		c-2.8-4-8.5-3.2-10.3,1.5c-0.9,2.4-1.2,5.1-1.8,7.7c-0.4,1.8-0.6,3.6-1.2,5.3c-1.5,4.2-4.1,7.2-8.8,7.8c-4.8,0.6-9.1-0.8-11.8-4.9
		c-6.2-9.1-2.6-21.4,8.6-23.2c0.4,1.4,0.9,2.9,1.2,3.8c-2.6,2.4-5.1,4-6.6,6.4c-1,1.6-0.7,4.2-0.5,6.3c0.4,3.6,3.2,6.2,6.5,6.4
		c3.1,0.2,5.7-1.7,6.6-5.5c0.8-3,1.1-6.2,1.8-9.2c1.6-7.4,4.6-10.1,10.7-10.1c6.2,0,10.1,3.3,11.6,10
		C532.2,244.9,528.9,250.4,520.6,252.5z"/>
	<path fill="#FCBD1B" d="M395.2,69.8c1.6,1.4,2.8,2.3,3.3,2.8c-0.3,3.4-1.2,6.4-0.6,9.1c0.4,2,2.4,3.9,4.1,5.3
		c2.3,2,6.6,1.7,8.8-0.1c2.6-2.2,3.2-5,1.3-8.5c-1.2-2.3-2.7-4.6-4.1-6.8c-5.9-9.2-1.9-14.7,3.1-17.5c5.9-3.3,14.2-0.1,17.6,6.7
		c2.3,4.6,1.8,8.9-1.7,13.3c-1.3-1-2.6-1.9-4-2.9c2-4.3,2.4-8.3-1.5-11.4c-2.6-2.1-5.8-2.4-8.2-0.5c-2.5,1.9-3.2,4.7-1.5,8
		c1.7,3.4,4,6.5,5.6,9.9c4,8.6-1.5,16.2-10.8,16.6c-9.8,0.5-17.5-11.7-13.4-20.6C393.7,72.1,394.4,71.2,395.2,69.8z"/>
	<path fill="#FCBD1B" d="M493,428.3c0.7-1.7,1.2-3,1.8-4.3c1.9,0,3.5,0.1,5.2,0c4.6-0.4,9-5.7,8.2-10.2c-0.4-2.5-1.7-4.7-4.3-5.7
		c-2.5-0.9-5-0.7-6.9,1.3c-2.2,2.2-4.3,4.6-6.5,6.9c-5.3,5.4-9.8,6.2-15,2.8c-4.7-3-6.3-8.4-4.3-14c2.6-7,7.4-10.2,13.9-9.3
		c1,0.1,1.9,0.3,3.3,0.6c-0.6,1.7-1.1,3.2-1.6,4.6c-1.8,0-3.2-0.1-4.7,0c-4.1,0.5-7.6,5.6-6.5,9.6c1.2,4.4,6.3,6.1,9.9,3.1
		c2.1-1.8,4-4,5.9-6c6.3-6.5,12-7.5,17.3-2.9c5.8,5,6.5,12,0.9,19.5C505.5,429.5,500.6,430.7,493,428.3z"/>
	<path fill="#FCBD1B" d="M136,538c1.6,1,2.9,1.7,4.2,2.5c-0.4,1.8-0.9,3.4-1,5c-0.1,3.7,1.8,6.2,4.8,8.1c2.6,1.6,5.2,2.1,7.9,0.4
		c3.3-2.1,4.4-5.6,2.3-9c-1.2-2-2.8-3.7-4.2-5.5c-1.1-1.4-2.3-2.8-3.3-4.3c-2.4-3.7-3.1-7.6-0.4-11.6c2.9-4.3,7-6.4,12-5.3
		c10,2.2,14.8,12.2,9.5,19.5c-1.3-0.7-2.6-1.4-4-2.1c0.2-1.9,0.5-3.5,0.5-5.1c-0.1-4.1-4.3-7.7-8.5-7.3c-4.4,0.4-6.9,4.8-4.7,8.7
		c1.3,2.3,3.1,4.3,4.7,6.4c0.9,1.2,1.9,2.3,2.8,3.5c2.7,4,3.6,8.2,0.7,12.5c-2.9,4.3-7.1,6.5-12.4,5.8
		C136.3,558.6,130.9,548,136,538z"/>
	<path fill="#FCBD1B" d="M156.5,39c-1.4,0.9-2.7,1.6-3.8,2.3c-5.6-4-8.4-4.4-12.3-1.7c-2.5,1.7-3.4,4.5-2.4,7.4
		c0.9,2.8,2.9,4.2,6.1,3.9c2.6-0.2,5.2-1.1,7.8-1.4c3-0.3,6.1-0.8,8.9-0.1c8.1,2,10.4,13.9,3.9,20c-7.3,6.8-17.9,6.7-23-2
		c1.2-0.9,2.4-1.8,3.8-2.9c1.1,1,2,1.9,3.1,2.7c4.4,3.4,12.1,1.7,13.9-3.4c0.7-2,0.2-5-0.8-7c-1.2-2.2-3.8-3-6.5-2.6
		c-4.1,0.7-8.2,1.4-12.3,1.9c-8.3,1-13.5-9.2-9.5-16.2C138.4,31.4,151.4,29.7,156.5,39z"/>
	<path fill="#FCBD1B" d="M187.1,13.3c1.8-0.6,3.2-1,5.1-1.6c1.1,3.5,2.1,6.8,3,10c1.7,5.9,3.1,11.8,5,17.6c1.8,5.5,7.4,7.8,12.4,5.4
		c3.9-1.8,5.7-6.4,4.4-11.6c-1.1-4.1-2.4-8.2-3.6-12.3c-1.3-4.6-2.4-9.2-3.7-14.1c2-0.4,3.5-0.7,5.3-1.1c2.7,9.8,5.5,19.3,7.9,28.9
		c1.5,6.2-3.3,13.2-9.8,15.4c-6.9,2.3-13.6-0.1-17-6.3c-1.1-2-1.9-4.2-2.5-6.4C191.4,29.4,189.3,21.6,187.1,13.3z"/>
	<path fill="#FCBD1B" d="M111.1,54.7c1.3-1.1,2.5-2,4-3.3c1.4,1.5,2.8,2.8,4,4.3c4.6,5.5,9.1,11,13.7,16.5c3.7,4.4,5.2,9.3,3.1,14.7
		c-2.2,5.5-6.5,8.8-12.4,9.6c-4.5,0.6-8.6-1-11.6-4.5c-4.6-5.2-9.1-10.6-13.6-15.9c-1.7-2-3.3-4.1-5.2-6.4c1.4-1.1,2.6-2.1,4.3-3.4
		c5.3,6.4,10.5,12.6,15.7,18.8c2.2,2.6,4.2,5.6,8.2,5.8c3.8,0.2,7-0.8,8.8-4.3c1.9-3.5,1.7-7.1-0.9-10.2
		c-5.2-6.3-10.4-12.5-15.6-18.7C112.9,56.9,112.1,55.9,111.1,54.7z"/>
	<path fill="#FCBD1B" d="M49.1,361.2c0.4,1.9,0.8,3.5,1.3,5.6c-10,1.9-19.7,4-29.4,5.4c-8,1.1-14.1-4.3-15.5-12.7
		c-1.1-6.7,3.8-13.8,11.1-15.4c9.2-2,18.4-3.8,28.3-5.9c0.2,1.9,0.3,3.6,0.5,5.6c-9.1,1.8-17.8,3.7-26.5,5.2
		c-7.4,1.3-10.3,8.5-6.9,13.7c2.1,3.3,5.7,5,9.9,4.2C30.6,365.1,39.5,363.2,49.1,361.2z"/>
	<path fill="#FCBD1B" d="M339.9,30.6c5.6,2.1,11,4.2,16.6,6.4c-0.6,1.7-1.2,3-1.8,4.5c-5.5-2-10.8-3.9-16.6-5.9
		c-1.5,4-3,7.8-4.6,12.1c5.6,2.2,10.9,4.2,16.6,6.5c-0.6,1.5-1.1,2.8-1.8,4.4c-7.2-2.6-14.2-5.1-21.8-7.9c4.8-13,9.5-25.7,14.4-39
		c7.2,2.6,14.1,5.2,21.5,7.9c-0.4,1.5-0.8,3-1.2,4.8c-5.8-2.1-11.1-4-16.7-6C343.1,22.4,341.5,26.4,339.9,30.6z"/>
	<path fill="#FCBD1B" d="M238.3,548.1c1.3,0.1,2.3,0.1,3.9,0.3c2.9,14.1,5.7,28.3,8.7,43c-1.9-0.1-3.5-0.2-5.4-0.3
		c-0.6-2.2-1.2-4.4-1.8-6.7c-5.3-0.8-10.5-1.5-16.1-2.3c-1,1.8-2,3.6-3.3,5.9c-1.5-0.1-3.2-0.3-5.7-0.6
		C225.3,574,231.7,561.3,238.3,548.1z M242.8,579.1c-1.2-7.2-2.4-13.8-3.5-20.4c-0.3,0-0.5,0.1-0.8,0.1c-2.8,5.9-5.7,11.8-8.8,18.4
		C234,577.8,237.8,578.3,242.8,579.1z"/>
	<path fill="#FCBD1B" d="M116.3,105.1c-1.7,1.8-2.7,2.8-3.9,4.1c-2.1-0.7-4.1-1.3-6.4-2.1c-3.5,4-7.2,8-10.9,12.2
		c1.1,2,2.1,3.9,3.1,5.9c-1.1,1.3-2.2,2.5-3.7,4.3c-7.2-12.7-14.3-25.2-21.5-37.9c0.7-1,1.5-2,2.5-3.3
		C89,93.8,102.4,99.3,116.3,105.1z M101.1,104.7c-6.8-3-12.9-5.7-19-8.3c-0.1,0.2-0.3,0.5-0.4,0.7c3.4,5.7,6.9,11.5,10.6,17.7
		C95.5,111.2,98.1,108.2,101.1,104.7z"/>
	<path fill="#FCBD1B" d="M485.4,226.3c-0.7-2.1-1.3-3.6-1.8-5.2c1.6-1.3,3.1-2.6,5.1-4.3c-1.5-4.9-3.1-10.1-4.7-15.5
		c-2.2-0.2-4.3-0.3-6.7-0.5c-0.6-1.7-1.1-3.3-1.9-5.5c14.7,0.4,28.9,0.7,43.6,1.1c0.4,0.9,1,2,1.7,3.6
		C509,208.6,497.5,217.2,485.4,226.3z M488.9,201.2c1.5,4.4,2.7,8.2,4.2,12.7c6.1-4.3,11.7-8.2,17.2-12.1
		c-6.6-0.8-12.7-0.8-18.9-0.8C490.8,200.9,490.2,201,488.9,201.2z"/>
	<path fill="#FCBD1B" d="M470.8,136c3.2,5.4,6.1,10.2,9.1,15.2c-1.6,1-2.8,1.7-4.2,2.5c-3.1-5-6-9.8-9.2-15.1
		c-3.7,2.2-7.3,4.3-11.3,6.7c3,5,6,9.9,9.1,15.1c-1.2,0.9-2.4,1.7-4,2.9c-4.1-6.7-8.1-13.1-12.3-20c11.8-7.2,23.5-14.3,35.5-21.6
		c4,6.6,7.9,12.9,11.9,19.5c-1.2,1-2.3,1.9-3.8,3.1c-3.2-5.1-6.3-10-9.6-15.3C478.4,131.5,474.8,133.6,470.8,136z"/>
	<path fill="#FCBD1B" d="M453.9,473.5c1.3,1.2,2.3,2.2,3.5,3.3c-3.8,4.5-7.4,8.8-11.2,13.5c3.3,2.8,6.5,5.5,10,8.5
		c4-4.7,7.7-9.1,11.6-13.5c1.2,1.1,2.3,2.2,3.5,3.3c-4.9,5.8-9.6,11.5-14.8,17.7c-10.6-8.9-21-17.7-31.8-26.8c5-6,9.9-11.8,15-17.8
		c1.4,1.1,2.5,2,3.8,3.1c-3.9,4.6-7.6,9.1-11.4,13.7c3.3,2.8,6.5,5.5,10.1,8.5C445.9,482.6,449.7,478.3,453.9,473.5z"/>
	<path fill="#FCBD1B" d="M67.3,492.3c10.5-9.1,20.8-18,31.4-27.2c5.1,5.8,10,11.5,15.4,17.7c-1.2,0.9-2.3,1.7-3.9,2.9
		c-3.7-4.1-7.6-8.4-11.8-13.1c-3.3,2.9-6.5,5.6-10,8.6c3.9,4.6,7.6,8.8,11.4,13.3c-1,1-1.9,2.1-3.3,3.5c-4.1-4.5-8-8.9-12.1-13.4
		c-3.3,2.9-6.4,5.7-9.7,8.6c3.8,4.5,7.5,8.7,11.4,13.3c-1.1,1.2-2.2,2.3-3.4,3.6C77.6,504.1,72.7,498.5,67.3,492.3z"/>
	<path fill="#FCBD1B" d="M315.6,327.4c-1.4-3.4-3.3-7.8-5.3-12.4c12.2,7.6,15.2,11.2,12.1,23.3c-0.7,2.9-1.9,5.7-3.1,8.4
		c-2.1,4.8-4.4,9.6-6.8,14.8c-2.2,0-5,0-7.8,0c-2.1-4.3-2-4.9,1-8c0.8-0.9,1.5-2.1,1.9-3.3C310.2,343.1,312.6,335.9,315.6,327.4z"/>
	<path fill="#FCBD1B" d="M345.2,579c-1.1,0.5-2,0.9-3.6,1.5c-8.8-11.6-17.6-23.1-26.8-35.1c2.1-0.6,3.8-1.2,5.6-1.7
		c6.6,8.9,12.9,17.5,19.3,26.1c0.3-0.1,0.5-0.2,0.8-0.3c0-10.7,0-21.5,0-32.5c2-0.6,3.6-1.1,5.9-1.8C346,550,345.6,564.2,345.2,579z
		"/>
	<path fill="#FCBD1B" d="M307.1,46.1c-1.4-0.4-2.5-0.7-3.9-1.1c-2.1-14.2-4.1-28.4-6.3-43.2c2.4,0.5,3.9,0.8,5.7,1.1
		c1.4,10.8,2.8,21.4,4.2,32c0.3,0.1,0.6,0.1,0.9,0.2c5.2-9.3,10.4-18.5,15.9-28.2c1.7,0.3,3.4,0.6,5.7,1
		C321.7,20.9,314.4,33.4,307.1,46.1z"/>
	<path fill="#FCBD1B" d="M43.7,244c0.9,3-0.4,4.4-2.7,4.8c-13.1,2.1-26.2,4.2-39.3,6.2c-0.4,0.1-0.9-0.2-1.8-0.4
		c0.5-1.8,0.9-3.4,1.4-5.1c11-1.6,21.6-3.1,33.4-4.8c-10.3-5.6-19.8-10.8-29.7-16.1c0.1-1.5,0.3-3.3,0.5-5.9
		C18.7,230,31.2,236.9,43.7,244z"/>
	<path fill="#FCBD1B" d="M90.6,454c1,1.6,1.8,2.8,3.1,4.8c-14.4,3.5-28.4,6.9-42.6,10.4c-0.8-1.2-1.4-2.2-2.2-3.5
		c8.9-11.5,17.8-22.8,26.9-34.5c1.2,1.7,2.1,3.1,3.2,4.7c-6.9,8.6-13.7,17.1-21.3,26.5C69.2,459.5,79.7,456.8,90.6,454z"/>
	<path fill="#FCBD1B" d="M242.5,101.3c0,3.6,0,6.4,0,9.2c10-3.6,15.8-2,18.2,5c2.2,6.4-1.2,13.5-7.6,15.7
		c-6.8,2.4-12.1-0.3-14.8-7.8c1.3-0.1,2.6-0.2,3.9-0.3c1.7,2.8,3.7,4.9,7.2,4.7c3.5-0.3,6.2-2.4,6.9-5.5c0.9-4-0.3-7.4-3.3-9.2
		c-3.1-1.9-5.8-1.6-8.9,1.5c-1.7,1.6-3.2,2.2-5.6,1.3c0-6,0-12.1,0-18.5c6.6,0,13.2,0,20.2,0c0.1,1,0.3,2.2,0.5,3.9
		C253.6,101.3,248.3,101.3,242.5,101.3z"/>
	<path fill="#FCBD1B" d="M501.5,164.8c-1.5-3.4-2.8-6.4-4.2-9.6c1.6-0.8,2.9-1.5,4.4-2.2c3.6,8.2,7.2,16.1,10.9,24.4
		c-1.5,0.8-2.7,1.4-4.3,2.2c-1.6-3.4-3.1-6.5-4.6-9.7c-11.1,4.9-22.1,9.8-33.3,14.8c-0.8-1.8-1.5-3.3-2.3-4.9
		C479.6,174.8,490.5,169.8,501.5,164.8z"/>
	<path fill="#FCBD1B" d="M212.1,547.8c-3.5,11.7-6.8,23-10.3,34.7c-1.9-0.6-3.5-1-5.2-1.6c3.4-11.7,6.7-23,10.1-34.8
		c-3.5-1.2-6.6-2.2-10.1-3.4c0.5-1.5,1-2.9,1.5-4.5c8.6,2.5,16.8,4.9,25.4,7.4c-0.3,1.5-0.5,2.9-0.8,4.7
		C219,549.5,215.7,548.7,212.1,547.8z"/>
	<path fill="#FCBD1B" d="M465.6,105.9c-9.3,7.4-18.6,14.8-28.7,22.8c-1-1.3-2-2.6-3.3-4.2c9.7-7.8,19-15.3,28.5-22.9
		c-2.2-2.8-4.2-5.4-6.5-8.3c1.1-1,2.2-1.9,3.6-3.2c5.7,7.1,11.2,13.8,16.9,20.9c-1.2,1-2.3,1.9-3.8,3.2
		C470.2,111.5,468,108.8,465.6,105.9z"/>
	<path fill="#FCBD1B" d="M309.7,131.8c-1.8,0-3.2,0-5.1,0c2.4-3.9,4.6-7.5,7.1-11.5c-6.3-0.1-10.7-2.3-12.7-8.1
		c-1.7-4.7-0.2-9.8,3.7-13c4-3.2,10-3.4,14.3-0.5c4,2.8,6,8,4.5,12.6c-0.7,2.2-1.8,4.2-3,6.2C315.7,122.3,312.7,126.9,309.7,131.8z
		 M317.3,108.6c0-4.4-3.1-7.6-7.3-7.7c-4.5-0.1-7.9,3.3-7.8,7.8c0.1,4.2,3.3,7.3,7.7,7.4C314.2,116.1,317.3,112.9,317.3,108.6z"/>
	<path fill="#FCBD1B" d="M218.2,107.1c-2.7-0.2-4.6-0.3-6.9-0.4c-0.1-1-0.2-1.9-0.4-3c1.8-0.5,3.7-0.7,5.1-1.7
		c1.3-1,1.9-2.8,3.1-4.6c0.6,0,1.7,0,3.1,0c0,11.5,0,22.9,0,34.4c-1.3,0.1-2.5,0.2-4.1,0.2C218.2,123.7,218.2,115.7,218.2,107.1z"/>
	<path fill="#FCBD1B" d="M195.7,115.2c-0.1,2.9-3.1,5.8-5.9,5.6c-2.9-0.2-5.7-3.2-5.5-6.1c0.2-2.6,3.1-5.4,5.7-5.4
		C192.8,109.3,195.7,112.3,195.7,115.2z"/>
	<path fill="#FCBD1B" d="M513.2,291.6c2.9,0,6,2.9,5.9,5.7c-0.1,2.7-2.8,5.5-5.5,5.6c-2.9,0.2-5.9-2.5-6.1-5.5
		C507.3,294.7,510.3,291.6,513.2,291.6z"/>
	<path fill="#FCBD1B" d="M28.2,297.3c0,2.9-2.5,5.5-5.2,5.6c-3,0.1-5.7-2.5-5.8-5.6c-0.1-3.1,2.5-5.9,5.5-5.9
		C25.8,291.4,28.2,294,28.2,297.3z"/>
	<path fill="#FCBD1B" d="M342.9,109.9c3.4,0,5.6,2.2,5.4,5.6c-0.1,3-2.4,5.3-5.3,5.5c-3,0.1-5.8-2.5-5.8-5.6
		C337.2,112.2,339.6,109.9,342.9,109.9z"/>
	<path fill="#FCBD1B" d="M276.1,299.8c-0.9,0.8-1.8,1.5-2.7,2.3c-1.4-1-2.9-2-4.6-3.1c-1.8,2.5-3.5,4.9-5.5,7.6
		c-0.5-0.8-0.8-1.3-1.1-1.9c0.4-1,0.8-1.9,1.2-2.9c1.7-2.3,3.4-4.7,5.7-7.9c1.5,1.9,2.8,3.7,4.4,5.3
		C274.1,299.8,275.2,299.7,276.1,299.8z"/>
	<path fill="#FCBD1B" d="M263.5,301.9c-0.4,1-0.8,1.9-1.2,2.9c-1.2-1.3-1.3-4.7-4.4-2.5c-0.5,0-0.9-0.1-1.4-0.1
		c1.1-3.4,2.2-6.7,3.3-10.1c0.4,0,0.9,0,1.3-0.1C259,296,261.4,298.9,263.5,301.9z"/>
	<path fill="#FCBD1B" d="M298.8,308.6c0.6-0.9,1.2-1.8,2-2.9c1.5,1,3,2.1,5,3.5c-0.9,0.4-1.3,0.6-1.8,0.8l0.1,0
		c-0.4-0.3-0.7-0.6-1.1-0.9l-0.2,0c-0.8,0.3-1.7,0.6-2.5,0.8c-0.3-0.3-0.7-0.6-1-0.8C299.1,308.9,298.9,308.8,298.8,308.6z"/>
	<path fill="#FCBD1B" d="M259.2,310.1c-0.7-0.6-1.8-1.2-2-1.9c-0.3-1.4,0-2.8,0.1-4.3C258.2,305.9,256.3,308.7,259.2,310.1z"/>
	<path fill="#FCBD1B" d="M276.1,304.9c0.3,0.1,0.7,0.1,1,0.1c0.1,0.4,0.1,0.8,0.2,1.2c-0.2,0.1-0.3,0.1-0.5,0.2
		C276.6,305.9,276.4,305.4,276.1,304.9z"/>
	<path fill="#FCBD1B" d="M299.7,304.9c-0.4,0-0.7-0.1-1.1-0.1c0-0.1,0-0.2,0-0.3c0.4,0,0.7,0.1,1.1,0.1
		C299.7,304.7,299.7,304.8,299.7,304.9z"/>
	<path fill="#FCBD1B" d="M304,310L304,310c-0.2,0.1-0.2,0.2-0.3,0.3C303.8,310.2,303.9,310.1,304,310z"/>
	<polygon fill="#FCBD1B" points="274.2,303.3 274.2,303.2 274,303.3 	"/>
	<polygon fill="#FCBD1B" points="275.1,304.2 275.1,304.1 275,304.2 	"/>
	<path fill="#FCBD1B" d="M299.2,309.1c0.3,0.3,0.7,0.6,1,0.8c-0.3,0.1-0.6,0.2-1,0.3C299.2,309.8,299.2,309.5,299.2,309.1z"/>
	<polygon fill="#FCBD1B" points="302.7,309.1 302.9,309.1 302.8,309.3 	"/>
	<path fill="#FCBD1B" d="M229,262.9c-0.8,0.1-1.7,0.2-2.5,0.3c-0.8-0.4-1.6-0.7-2.3-1.1c1-0.4,2-0.7,3-1.1
		C228.6,260.9,229.7,260.9,229,262.9z"/>
</g>
</svg>
