<?xml version="1.0" encoding="utf-8"?>
<!-- Generator: Adobe Illustrator 23.1.0, SVG Export Plug-In . SVG Version: 6.00 Build 0)  -->
<svg version="1.1" id="Layer_1" xmlns="http://www.w3.org/2000/svg" xmlns:xlink="http://www.w3.org/1999/xlink" x="0px" y="0px"
	 viewBox="0 0 385 135.4" style="enable-background:new 0 0 385 135.4;" xml:space="preserve">
<style type="text/css">
	.st0{fill:#FCC947;}
	.st1{fill:#14192E;}
</style>
<title>Asset 50</title>
<path class="st0" d="M192.2,85.8c26.6-1,53.1,4.3,77.3,15.5L302.6,39C224.3,1.1,131.6,8.3,60,57.8l41,58.3
	C127.8,97.4,159.5,86.9,192.2,85.8z"/>
<path class="st1" d="M123,58l-1.7-1.6c-2,0.7-4.1,1.4-6.1,2.1l-0.2,2.3c-1.8,0.7-3.6,1.4-5.5,2.1c0.9-6.3,2-12.6,3.4-18.9
	c0.3-0.1,0.7-0.2,1-0.3c5.1,4,10,8.2,14.6,12.5C126.6,56.8,124.8,57.4,123,58z M115.4,55c1.1-0.4,2.3-0.8,3.4-1.2
	c-1-1-1.9-1.8-2.9-2.7C115.8,52.4,115.6,53.7,115.4,55z"/>
<path class="st1" d="M134.7,54.6c-3.3,0.9-4.9,0.1-5.8-2.9l-1.1-3.5c-0.8,0.2-1.6,0.5-2.4,0.7v-3.1c0.5-0.1,1-0.3,1.5-0.5l-0.7-2.3
	c1.5-0.7,2.9-1.4,4.4-2.1l0.9,3.1c0.9-0.3,1.9-0.5,2.8-0.7l0.8,2.8c-0.9,0.2-1.8,0.5-2.8,0.7l1,3.6c0.3,1,0.6,1.3,1.5,1
	c0.7-0.2,1.3-0.4,1.9-0.7v3.1C136,54.2,135.4,54.4,134.7,54.6z"/>
<path class="st1" d="M142.3,44.1c-0.6,0.1-1,0.4-0.9,0.7c0.3,1.1,6.4-0.6,7.1,2.9c0.5,2.3-1.5,4-4.4,4.7c-2,0.4-4.1,0.3-6.1-0.2
	l1.3-2.9c1.3,0.5,2.7,0.6,4,0.3c0.6-0.1,1-0.5,0.9-0.8c-0.3-1.3-6.2,0.7-7.1-2.8c-0.5-2,1-3.7,4.3-4.4c1.7-0.4,3.4-0.4,5.1-0.2
	l-0.1,2.7C145,43.8,143.6,43.8,142.3,44.1z"/>
<path class="st1" d="M163.3,42.8c0.6,3.1-1.4,6-4.5,6.6c-0.2,0-0.3,0.1-0.5,0.1c-0.9,0.1-1.8,0.1-2.7,0l0.6,3.4
	c-1.4,0.5-2.8,1.1-4.2,1.6c0,0-0.8-3.9-2.9-14.7c1.5-0.3,3.1-0.6,4.6-0.8l0.3,1.9c0.4-1.5,1.6-2.6,3.2-2.7c2.7-0.6,5.3,1.1,5.9,3.8
	C163.3,42.3,163.3,42.6,163.3,42.8z M156.4,41.6c-1.3,0.2-1.9,1.5-1.5,4l0.2,1.1c0.5,0.1,1.1,0.1,1.6,0c1.6-0.3,2.1-1.6,1.9-3.1
	C158.5,42.4,157.8,41.4,156.4,41.6z"/>
<path class="st1" d="M171.5,36.5c2.3-0.3,4.7,0.2,6.7,1.4l0.7,9c-1.5,0.1-3,0.2-4.5,0.4l-0.2-1.9c-0.4,1.4-1.7,2.4-3.2,2.5
	c-3,0.3-5.3-1.4-5.7-4.7C164.9,39.9,167,37,171.5,36.5z M172.1,44.7c1.3-0.1,2-1.3,1.7-3.9l-0.1-1.1c-0.5-0.2-1.1-0.2-1.7-0.2
	c-1.6,0.2-2.2,1.5-2.1,3C170.1,43.7,170.7,44.8,172.1,44.7L172.1,44.7z"/>
<path class="st1" d="M189.8,39c-2.4-0.1-3.8,1.2-3.7,4.3l0.1,3.3c-1.5,0.1-3,0.1-4.5,0.2L181,36c1.6-0.1,3.1-0.2,4.7-0.2l0.1,1.9
	c0.4-1,1.2-1.7,2.2-2c0.7-0.2,1.4-0.3,2.2-0.3C190.2,35.4,189.8,39,189.8,39z"/>
<path class="st1" d="M196.6,41.7c0,1.1,0.5,1.8,1.6,1.8c1.6,0,1.9-1.9,1.9-3.1v-4.8c1.6,0,3.2,0.1,4.7,0.1l-0.3,10.8
	c-1.5-0.1-3-0.1-4.5-0.1v-1.9c-0.8,1.3-2.2,2.1-3.8,2c-3.2,0-4.3-1.8-4.3-5.1l-0.1-6c1.6-0.1,3.2,0,4.8,0L196.6,41.7z"/>
<path class="st1" d="M222.1,41.8c0.1-1.1,0.1-1.8-1.1-2s-1.4,0.9-1.6,2.9l-0.5,4.8c-1.5-0.2-3-0.3-4.6-0.4l0.4-6
	c0.1-1.1,0-1.8-1.2-1.9c-1.2-0.1-1.3,0.9-1.5,3l-0.3,4.8c-1.5-0.1-3-0.2-4.5-0.3l0.5-10.8c1.6,0.1,3.2,0.2,4.7,0.3l-0.1,1.9
	c0.2-0.7,0.7-1.2,1.3-1.5c0.7-0.3,1.4-0.4,2.1-0.3c1.9,0.2,3.1,0.9,3.5,2.5c0.8-1.3,2.3-2,3.9-1.8c2.8,0.3,3.9,1.8,3.5,5.1l-0.8,6.4
	c-1.5-0.2-3-0.4-4.6-0.6L222.1,41.8z"/>
<path class="st1" d="M236.8,38.9c2.3,0.4,4.5,1.5,6.1,3.2l-1.7,8.9c-1.5-0.3-3-0.6-4.5-0.8l0.3-1.9c-0.8,1.3-2.3,1.9-3.8,1.5
	c-3-0.5-4.7-2.8-4.3-6.1C229.3,40.4,232.3,38.2,236.8,38.9z M235.2,46.9c1.3,0.2,2.3-0.7,2.7-3.3l0.1-1.1c-0.5-0.3-1-0.5-1.6-0.6
	c-1.7-0.3-2.6,0.9-2.8,2.4C233.5,45.5,233.9,46.7,235.2,46.9z"/>
<path class="st1" d="M251,44.7c-0.6-0.1-1,0-1.1,0.3c-0.3,1.1,6.1,2.2,5.2,5.8c-0.6,2.3-3.1,2.9-6.1,2.2c-2-0.6-3.9-1.6-5.5-2.9
	c0.8-0.7,1.7-1.3,2.5-2c1,1,2.2,1.7,3.5,2c0.6,0.1,1.1,0,1.2-0.4c0.3-1.3-5.9-2.1-5.2-5.7c0.4-2,2.5-2.9,5.9-2.1
	c1.7,0.4,3.3,1.1,4.7,2.1l-1.3,2.4C253.6,45.7,252.3,45.1,251,44.7z"/>
<path class="st1" d="M111.4,74.8c2-0.9,4.2-1,6.3-0.3l3.3,8.4c-1.3,0.5-2.5,1-3.8,1.5l-0.8-1.8c0.1,1.4-0.8,2.7-2.1,3.2
	c-2.5,1.1-5-0.1-6.4-3S107.6,76.4,111.4,74.8z M114.3,82.4c1.1-0.4,1.3-1.8,0.4-4.1l-0.4-1.1c-0.5,0-1,0.1-1.5,0.3
	c-1.4,0.6-1.5,2.1-0.9,3.4C112.3,82.1,113.2,82.9,114.3,82.4L114.3,82.4z"/>
<path class="st1" d="M128.2,73.9c-0.4-1-1-1.6-2-1.2c-1.4,0.5-0.9,2.4-0.6,3.5l1.6,4.6c-1.3,0.4-2.6,0.9-3.8,1.4L119.6,72
	c1.3-0.5,2.7-1,4-1.4l0.6,1.8c0.2-1.5,1.3-2.7,2.7-3.1c2.4-0.8,4.2,0,5.2,3.2l1.9,6.2c-1.3,0.4-2.6,0.8-4,1.2L128.2,73.9z"/>
<path class="st1" d="M141.3,76.5c-3,0.8-4.5,0-5.3-3.1l-1-3.5c-0.7,0.2-1.4,0.4-2.1,0.6c0-1-0.1-2-0.1-3c0.5-0.1,0.9-0.3,1.4-0.4
	l-0.7-2.3c1.3-0.7,2.6-1.3,3.9-2l0.8,3.1c0.9-0.2,1.7-0.4,2.5-0.7l0.7,2.8l-2.4,0.8l1,3.6c0.3,1,0.6,1.3,1.4,1.1
	c0.6-0.2,1.2-0.4,1.7-0.6V76C142.5,76.1,141.9,76.3,141.3,76.5z"/>
<path class="st1" d="M144.7,62.4c-1.3,0.3-2.5-0.1-2.8-1.1c-0.3-1.1,0.6-1.9,1.9-2.2c1.3-0.3,2.5,0.1,2.8,1.1
	C146.9,61.2,146,62.1,144.7,62.4z M143,64.7c1.4-0.3,2.8-0.7,4.2-1l2.4,10.6c-1.3,0.3-2.7,0.6-4,0.9L143,64.7z"/>
<path class="st1" d="M157.8,72.9c-2,0.4-4.1,0.1-5.9-0.9c-0.9-4.4-1.9-8.8-2.8-13.3c1.3-0.6,2.7-1.2,4.1-1.8l1.4,7.2
	c0.2-1.5,1.4-2.6,2.9-2.7c2.6-0.5,5,1.6,5.5,4.8C163.5,69.4,161.7,72.2,157.8,72.9z M156.6,64.7c-1.2,0.2-1.7,1.6-1.3,3.7l0.3,1.5
	c0.5,0.1,1.1,0.1,1.6,0c1.3-0.2,1.8-1.6,1.5-3C158.5,65.5,157.8,64.5,156.6,64.7z"/>
<path class="st1" d="M166.3,58.5c-1.3,0.2-2.5-0.3-2.6-1.4c-0.2-1.1,0.8-1.9,2.2-2.1c1.3-0.2,2.5,0.3,2.6,1.4
	C168.6,57.5,167.7,58.3,166.3,58.5z M164.5,60.6c1.4-0.2,2.8-0.4,4.3-0.6c0.5,3.6,0.9,7.2,1.4,10.8c-1.3,0.2-2.7,0.3-4.1,0.5
	C165.5,67.7,165,64.2,164.5,60.6L164.5,60.6z"/>
<path class="st1" d="M178.4,70.1c-3.4,0.3-6.3-1.4-6.7-5c-0.4-3.5,2.2-5.9,5.8-6.2s6.6,1.6,6.7,5.2
	C184.3,67.7,181.8,69.8,178.4,70.1z M177.7,61.9c-1.1,0.1-2,1.1-1.9,2.8c0.1,1.6,1.2,2.5,2.3,2.4c1.1-0.1,2-1.1,1.9-2.7
	C179.9,62.8,178.9,61.8,177.7,61.9L177.7,61.9z"/>
<path class="st1" d="M191.4,69.4c-3.1,0.1-4.3-1.1-4.5-4.2l-0.1-3.7c-0.7,0-1.5,0.1-2.2,0.1l0.7-3c0.5,0,1,0,1.4-0.1l-0.1-2.4
	c1.4-0.3,2.9-0.7,4.3-1l0.1,3.2h2.6v2.9c-0.9,0-1.7,0.1-2.6,0.1l0.1,3.7c0,1.1,0.3,1.4,1,1.4c0.6,0,1.2-0.1,1.8-0.2l-0.7,3
	C192.7,69.4,192,69.4,191.4,69.4z"/>
<path class="st1" d="M198,56.6c-1.3,0-2.4-0.7-2.4-1.8s1.1-1.7,2.4-1.7c1.4,0,2.4,0.7,2.4,1.8S199.4,56.6,198,56.6z M195.9,58.4
	c1.4,0,2.9,0,4.3,0.1c-0.1,3.6-0.1,7.2-0.2,10.8c-1.4,0-2.7,0-4.1,0V58.4z"/>
<path class="st1" d="M202.7,69.4c0.2-5.1,0.3-10.3,0.5-15.5c1.5-0.2,3-0.4,4.4-0.6c-0.3,5.4-0.5,10.8-0.8,16.3
	C205.4,69.5,204,69.5,202.7,69.4z M210.2,58.9c1.6,0.1,3.3,0.2,4.9,0.4c-1.2,1.4-2.3,2.9-3.4,4.4c1.2,2.2,2.3,4.4,3.5,6.6
	c-1.6-0.2-3.2-0.3-4.8-0.4c-1-2.2-2-4.3-3.1-6.5C208.3,61.9,209.2,60.4,210.2,58.9z"/>
<path class="st1" d="M222.7,59.9c2.2,0.2,4.2,1.2,5.6,2.8l-1.3,9c-1.3-0.2-2.7-0.4-4-0.6l0.3-1.9c-0.6,1.3-2,2-3.4,1.7
	c-2.7-0.3-4.3-2.5-4-5.8C216.1,61.8,218.6,59.4,222.7,59.9z M221.4,67.9c1.2,0.1,2-0.9,2.4-3.4l0.2-1.1c-0.4-0.3-0.9-0.4-1.4-0.5
	c-1.5-0.2-2.3,1-2.5,2.5C219.9,66.7,220.2,67.8,221.4,67.9L221.4,67.9z"/>
<path class="st1" d="M243.6,68.6c0.2-1.1,0.3-1.8-0.8-2c-1-0.2-1.4,0.7-1.8,2.8l-1,4.7c-1.4-0.3-2.7-0.6-4.1-0.9l1.2-6
	c0.2-1.1,0.2-1.8-0.8-2c-1-0.2-1.3,0.8-1.7,2.8l-0.8,4.7c-1.3-0.3-2.7-0.5-4-0.7l1.7-10.8c1.4,0.2,2.8,0.5,4.3,0.8l-0.3,1.9
	c0.3-0.6,0.8-1.1,1.4-1.4c0.6-0.2,1.3-0.2,2-0.1c1.8,0.3,2.7,1.2,2.9,2.8c0.8-1.2,2.3-1.8,3.8-1.4c2.5,0.6,3.4,2.1,2.6,5.3
	c-0.5,2.1-1,4.2-1.6,6.3c-1.4-0.3-2.7-0.7-4-1L243.6,68.6z"/>
<path class="st1" d="M255.5,69.5c-0.5-0.2-1-0.1-1,0.2c-0.3,1.1,5.4,2.4,4.4,5.9c-0.7,2.2-3.1,2.8-5.8,2.1c-1.9-0.6-3.5-1.6-4.9-3
	c0.8-0.6,1.6-1.3,2.4-1.9c0.8,1,1.9,1.7,3.1,2.1c0.6,0.2,1,0,1.1-0.3c0.4-1.2-5.3-2.3-4.4-5.8c0.5-2,2.5-2.8,5.5-1.9
	c1.5,0.4,2.9,1.2,4.2,2.2l-1.4,2.4C257.8,70.5,256.7,69.9,255.5,69.5z"/>
<polygon class="st0" points="258.5,120.4 310.9,22 325,95.3 "/>
</svg>
