<svg xmlns="http://www.w3.org/2000/svg" width="107.76" height="263.51" viewBox="0 0 107.76 263.51"><title>Asset 50</title><path d="M70.83,132.35A169.76,169.76,0,0,1,89,55.6L27.89,20.39A241.64,241.64,0,0,0,38.22,263.51L97.9,224.59A169.79,169.79,0,0,1,70.83,132.35Z" fill="#fcc947"/><path d="M40.61,200.57l-1.69,1.69q.91,3.09,1.91,6.16l2.31.32q.93,2.77,1.92,5.54-9.35-1.69-18.72-4.07c-.1-.33-.2-.66-.31-1q6.31-7.41,13-14.19C39.56,196.88,40.08,198.73,40.61,200.57ZM37.39,208c-.37-1.16-.73-2.31-1.08-3.47-1,.92-1.89,1.84-2.83,2.78C34.78,207.59,36.09,207.82,37.39,208Z" fill="#14192e"/><path d="M37.66,188.78c.78,3.32-.07,4.92-3.11,5.73l-3.55.94c.2.8.41,1.59.62,2.39l-3.05-.08c-.13-.52-.27-1-.4-1.56l-2.33.62q-1-2.22-1.95-4.47l3.14-.77c-.22-.94-.43-1.88-.64-2.83l2.85-.66c.21.93.42,1.86.64,2.79L33.5,190c1-.25,1.3-.59,1.1-1.46a15.13,15.13,0,0,0-.6-1.95l3.06.15A16.31,16.31,0,0,1,37.66,188.78Z" fill="#14192e"/><path d="M27.36,180.79c.12.6.39,1,.7.88,1.12-.22-.41-6.37,3.16-7,2.33-.4,3.93,1.59,4.5,4.6a13.82,13.82,0,0,1-.44,6.13L32.43,184a7.58,7.58,0,0,0,.45-4c-.12-.65-.45-1-.8-.91-1.27.25.44,6.2-3.07,7-2,.46-3.64-1.11-4.29-4.48a14.46,14.46,0,0,1,0-5.08l2.74.19A13.82,13.82,0,0,0,27.36,180.79Z" fill="#14192e"/><path d="M26.88,159.75a5.64,5.64,0,0,1,6.5,5.16,10.11,10.11,0,0,1-.05,2.65l3.44-.49c.48,1.43,1,2.85,1.49,4.26,0,0-3.94.63-14.75,2.43-.24-1.55-.47-3.09-.68-4.64l1.9-.28a3.53,3.53,0,0,1-2.57-3.27A4.94,4.94,0,0,1,26.88,159.75Zm-1.44,6.83c.17,1.3,1.41,1.95,3.92,1.59l1.13-.17a4,4,0,0,0,.1-1.64c-.21-1.59-1.55-2.17-3.07-2C26.29,164.54,25.27,165.22,25.44,166.58Z" fill="#14192e"/><path d="M20.87,151.35a10.58,10.58,0,0,1,1.66-6.63l9.06-.4c.05,1.5.12,3,.2,4.48l-1.94.12a3.44,3.44,0,0,1,2.36,3.3c.21,3-1.62,5.21-4.9,5.55S21.16,155.89,20.87,151.35Zm8.13-.29c-.09-1.27-1.26-2-3.8-1.85l-1.14.07a4.39,4.39,0,0,0-.21,1.67c.1,1.64,1.43,2.3,2.95,2.18C28,153,29.08,152.4,29,151.06Z" fill="#14192e"/><path d="M24,133.12c-.16,2.38,1.09,3.85,4.15,3.81l3.26,0c0,1.49,0,3,.06,4.48l-10.84.34c0-1.56-.06-3.13-.07-4.69l1.89,0a3.33,3.33,0,0,1-1.89-2.26,5.73,5.73,0,0,1-.18-2.16S24,133.18,24,133.12Z" fill="#14192e"/><path d="M26.89,126.44c1.12,0,1.81-.39,1.86-1.52.08-1.64-1.85-1.92-3-2L21,122.73c.09-1.58.19-3.15.31-4.73l10.82.72c-.11,1.51-.21,3-.29,4.52l-1.89-.09A4.14,4.14,0,0,1,31.82,127c-.12,3.24-1.93,4.19-5.2,4.15l-6-.07c0-1.6.08-3.19.15-4.79Z" fill="#14192e"/><path d="M27.93,100.91c-1.11-.15-1.79-.13-2,1s.82,1.4,2.88,1.67l4.77.62c-.21,1.52-.4,3-.58,4.56L27,108.12c-1.1-.12-1.79-.07-1.92,1.09s.87,1.38,2.93,1.58l4.79.48c-.16,1.5-.31,3-.44,4.5l-10.81-.85c.13-1.57.29-3.15.45-4.72l1.88.18A2.63,2.63,0,0,1,22.38,109a4,4,0,0,1-.25-2.12c.24-1.94,1-3.07,2.63-3.42a3.86,3.86,0,0,1-1.63-3.94c.43-2.77,1.94-3.86,5.18-3.33l6.39,1c-.26,1.52-.5,3-.72,4.55Z" fill="#14192e"/><path d="M25.55,86.12a10.79,10.79,0,0,1,3.39-6l8.83,2c-.35,1.47-.68,2.94-1,4.42l-1.9-.4A3.5,3.5,0,0,1,36.25,90c-.6,3-3,4.64-6.21,4.09S24.61,90.63,25.55,86.12ZM33.46,88c.26-1.27-.67-2.3-3.16-2.82L29.19,85a4,4,0,0,0-.66,1.56c-.34,1.64.76,2.63,2.26,2.91C32,89.67,33.18,89.34,33.46,88Z" fill="#14192e"/><path d="M31.76,72.19c-.16.6-.06,1,.24,1.12,1.1.29,2.46-6,5.94-5,2.26.67,2.82,3.21,2,6.2a14.17,14.17,0,0,1-3.12,5.41c-.64-.85-1.28-1.72-1.91-2.58a8,8,0,0,0,2.17-3.43c.17-.64,0-1.09-.32-1.19-1.25-.33-2.35,5.86-5.85,5-2-.48-2.78-2.62-1.86-6a14.64,14.64,0,0,1,2.24-4.65l2.37,1.38A14.41,14.41,0,0,0,31.76,72.19Z" fill="#14192e"/><path d="M57,212.7a9.06,9.06,0,0,1-.13-6.27l8.57-3c.44,1.28.89,2.56,1.35,3.83L65,208a3.21,3.21,0,0,1,3.11,2.19c1,2.54-.23,5-3.27,6.27S58.49,216.59,57,212.7Zm7.7-2.61c-.41-1.09-1.73-1.38-4.11-.51l-1.07.39a3.58,3.58,0,0,0,.23,1.52c.52,1.4,2,1.59,3.38,1C64.33,212.08,65.17,211.23,64.74,210.09Z" fill="#14192e"/><path d="M56.67,195.87c-1.06.32-1.6.9-1.3,1.91.44,1.46,2.35,1,3.43.71l4.61-1.42c.39,1.3.8,2.59,1.23,3.88l-10.3,3.41c-.45-1.36-.88-2.72-1.3-4.09l1.81-.56a3.81,3.81,0,0,1-3-2.77c-.7-2.43.17-4.21,3.34-5.06l6.25-1.69c.36,1.32.73,2.65,1.11,4Z" fill="#14192e"/><path d="M59.74,182.88c.7,3-.2,4.46-3.24,5.24l-3.56.91c.18.72.37,1.44.56,2.16q-1.52,0-3,0c-.12-.47-.25-.94-.36-1.41l-2.34.6c-.62-1.34-1.23-2.68-1.83-4l3.15-.74c-.19-.86-.39-1.71-.57-2.57l2.85-.63.57,2.53,3.63-.85c1-.25,1.31-.56,1.13-1.35a11.63,11.63,0,0,0-.55-1.75l3.05.1A13.34,13.34,0,0,1,59.74,182.88Z" fill="#14192e"/><path d="M45.81,179.05c.26,1.29-.15,2.48-1.24,2.71s-1.92-.7-2.18-2,.15-2.51,1.24-2.71S45.55,177.72,45.81,179.05ZM48,180.76c-.29-1.4-.57-2.81-.84-4.22l10.66-2c.25,1.34.52,2.68.8,4Z" fill="#14192e"/><path d="M56.7,166.26a9.05,9.05,0,0,1-1.08,5.9q-6.67,1.17-13.36,2.37c-.55-1.37-1.09-2.74-1.62-4.13l7.24-1.14a3.19,3.19,0,0,1-2.56-3c-.37-2.66,1.74-4.95,5-5.33S56.14,162.42,56.7,166.26Zm-8.19.94c.18,1.2,1.57,1.71,3.61,1.39l1.46-.23a3.29,3.29,0,0,0,.08-1.57c-.19-1.32-1.51-1.82-2.93-1.63S48.34,166,48.51,167.2Z" fill="#14192e"/><path d="M42.62,157.27c.13,1.31-.4,2.45-1.51,2.58s-1.84-.89-2-2.23.4-2.48,1.51-2.58S42.49,155.92,42.62,157.27Zm2,1.93c-.15-1.43-.29-2.86-.41-4.28,3.6-.33,7.21-.65,10.81-1,.12,1.35.25,2.71.39,4.07C51.85,158.41,48.26,158.8,44.66,159.2Z" fill="#14192e"/><path d="M54.66,145.6c.16,3.38-1.64,6.26-5.2,6.55s-5.83-2.41-6-6,1.85-6.49,5.45-6.55S54.51,142.22,54.66,145.6Zm-8.19.43c.05,1.15,1.06,2.06,2.71,2s2.54-1.09,2.48-2.22-1-2-2.64-2S46.41,144.84,46.47,146Z" fill="#14192e"/><path d="M54.44,132.61c0,3.08-1.26,4.28-4.4,4.31l-3.67,0c0,.74,0,1.49,0,2.23l-2.94-.76c0-.48,0-1,0-1.45L41,137c-.28-1.45-.55-2.9-.8-4.36l3.23,0,.06-2.63,2.92.07c0,.87,0,1.73,0,2.6l3.73,0c1.06,0,1.4-.22,1.42-1a11.38,11.38,0,0,0-.12-1.84l2.94.83A12.73,12.73,0,0,1,54.44,132.61Z" fill="#14192e"/><path d="M41.85,125.53c-.07,1.32-.75,2.38-1.86,2.34s-1.7-1.14-1.64-2.49.75-2.4,1.86-2.34S41.91,124.18,41.85,125.53Zm1.74,2.21c.06-1.44.13-2.88.21-4.31,3.61.19,7.22.38,10.83.59-.08,1.36-.14,2.73-.19,4.09Z" fill="#14192e"/><path d="M54.8,121.3q-7.71-.52-15.45-1c-.16-1.48-.31-3-.45-4.44q8.12.69,16.23,1.4C55,118.59,54.9,120,54.8,121.3Zm-10.23-7.89q.26-2.46.57-4.92c1.4,1.2,2.82,2.38,4.24,3.55,2.22-1.12,4.45-2.19,6.68-3.23-.21,1.59-.4,3.19-.57,4.78q-3.3,1.38-6.58,2.88Q46.74,115,44.57,113.41Z" fill="#14192e"/><path d="M46,101a9,9,0,0,1,3-5.53l8.91,1.65q-.37,2-.72,4l-1.91-.32a3.21,3.21,0,0,1,1.62,3.45c-.41,2.69-2.67,4.25-5.94,3.84S45.37,105.11,46,101Zm8,1.54c.18-1.16-.82-2.07-3.32-2.48l-1.13-.19a3.48,3.48,0,0,0-.55,1.43c-.24,1.49.92,2.36,2.43,2.58C52.68,104.06,53.83,103.73,54,102.53Z" fill="#14192e"/><path d="M55.46,80.42c-1.08-.28-1.76-.34-2,.69s.69,1.38,2.7,1.89l4.67,1.18c-.35,1.35-.68,2.7-1,4.06l-5.95-1.38c-1.09-.25-1.77-.29-2,.75s.73,1.36,2.76,1.8l4.7,1c-.3,1.34-.58,2.68-.85,4L47.8,92.36q.44-2.11.9-4.23l1.85.4a2.7,2.7,0,0,1-1.32-1.45,3.42,3.42,0,0,1,0-2c.41-1.74,1.31-2.66,2.92-2.78a3.53,3.53,0,0,1-1.26-3.8c.68-2.48,2.26-3.28,5.42-2.37q3.12.87,6.23,1.77c-.39,1.34-.76,2.69-1.12,4Z" fill="#14192e"/><path d="M56.7,68.55c-.18.54-.09,1,.21,1,1.09.34,2.55-5.34,6-4.15,2.22.78,2.72,3.15,1.85,5.83A11.82,11.82,0,0,1,61.55,76c-.62-.82-1.24-1.65-1.85-2.49a6.75,6.75,0,0,0,2.22-3c.18-.58,0-1-.3-1.11-1.22-.4-2.44,5.19-5.9,4.18C53.71,73,53,71,54,68a12.46,12.46,0,0,1,2.3-4.11l2.33,1.45A11.71,11.71,0,0,0,56.7,68.55Z" fill="#14192e"/><polygon points="107.76 67.34 11.16 11.53 84.9 0 107.76 67.34" fill="#fcc947"/></svg>