<svg xmlns="http://www.w3.org/2000/svg" width="546" height="709.3" viewBox="0 0 546 709.3"><title>Asset 55</title><path d="M271.68,203.75c-133.33,0-241.41,108.09-241.41,241.42S138.35,686.59,271.68,686.59,513.1,578.5,513.1,445.17,405,203.75,271.68,203.75Zm-.18,460C151,663.71,53.31,566,53.31,445.52S151,227.33,271.5,227.33,489.69,325,489.69,445.52,392,663.71,271.5,663.71Z" fill="#8cc5ff"/><path d="M346,623.39l21.82,68a242.39,242.39,0,0,0,52-22.68l-35.26-62A171.85,171.85,0,0,1,346,623.39Z" fill="#007dff"/><path d="M364.7,649.65c-.82.36-1.16.89-.93,1.42.83,1.87,6-1.28,7.84,2.94,1.06,2.45-.18,4.76-3.24,6.09a8.84,8.84,0,0,1-5.41.42c.15-1.06.3-2.12.46-3.17a5.87,5.87,0,0,0,3.71-.08c.81-.36,1.16-1,.87-1.66-.84-1.9-6.06,1.13-7.9-3-.94-2.12.19-4.31,2.89-5.48a8.86,8.86,0,0,1,4.28-.75l1,2.88A7.76,7.76,0,0,0,364.7,649.65Z" fill="#fff"/><path d="M378.61,655.63c-2.37,1-3.7.42-4.76-2-.41-1-.83-1.92-1.25-2.88l-1.65.71c-.14-.85-.27-1.7-.41-2.54l1.06-.46c-.27-.63-.54-1.26-.82-1.89l2.88-2c.36.84.73,1.69,1.1,2.53l1.93-.81,1,2.29-1.93.82L377,652.3c.36.83.66,1,1.27.76a10,10,0,0,0,1.34-.71l.42,2.56A11.63,11.63,0,0,1,378.61,655.63Z" fill="#fff"/><path d="M385.94,652.57c-2.62,1.1-5.4.4-6.6-2.41s.21-5.3,2.86-6.4,5.43-.36,6.62,2.48S388.56,651.48,385.94,652.57Zm-2.76-6.44c-.86.36-1.26,1.41-.7,2.72s1.58,1.73,2.44,1.37,1.28-1.37.73-2.67S384.07,645.76,383.18,646.13Z" fill="#fff"/><path d="M399.53,641.58c1,2.51.46,5.22-2.18,6.29a6.6,6.6,0,0,1-2,.44l1.13,2.73-2.87,2s-1.29-3.15-4.93-11.77l3.15-1.29c.21.51.42,1,.64,1.51a2.63,2.63,0,0,1,1.72-2.66C396.35,637.94,398.46,639,399.53,641.58Zm-5.24.08c-.89.36-1.07,1.49-.24,3.49l.38.9a2.73,2.73,0,0,0,1.21-.21c1.12-.45,1.22-1.66.72-2.87C396,642,395.22,641.28,394.29,641.66Z" fill="#fff"/><path d="M249.8,636.23A170.13,170.13,0,0,1,191.2,617l-36.48,61.61a240.78,240.78,0,0,0,85.37,28.57,246.35,246.35,0,0,0,26.09,2.14l5.33-71.48A172.08,172.08,0,0,1,249.8,636.23Z" fill="#134dcf"/><path d="M193.81,674.52c-8.09-1.8-13.44-8.25-11.49-17s9.62-12.4,17.81-10.57,13.52,8.38,11.44,17.15S201.9,676.33,193.81,674.52Zm4.94-21.66c-3.62-.81-7.29,1.44-8.4,6.36s1.22,8.5,4.82,9.3,7.21-1.3,8.37-6.3S202.42,653.68,198.75,652.86Z" fill="#fff"/><path d="M226.21,673.58c-.49-1.77-1.12-3.2-3.08-3.67q-1.26,5.24-2.5,10.46l-7.84-1.84q3.15-13.46,6.39-26.92c2.33.55,4.67,1.09,7,1.65,7.7,1.82,11.54,5.28,10.18,10.78a6,6,0,0,1-5.78,4.85c4,2.12,1.49,8.11,7.71,9.63l-2.85,5.64C227.33,682.19,227.15,677.16,226.21,673.58Zm-.49-14.42c-.43,1.79-.87,3.58-1.3,5.37,2.24.53,3.9-.22,4.32-1.95C229.11,661.06,227.83,659.65,225.72,659.16Z" fill="#fff"/><path d="M245.73,658q3.95,1,7.88,1.95-3.42,13.41-6.77,26.82l-7.79-1.93Q242.35,671.39,245.73,658Z" fill="#fff"/><polygon points="406.56 565.13 468.37 646.95 401.41 636.06 406.56 565.13" fill="#15ffc7"/><path d="M70.83,438.28A169.83,169.83,0,0,1,89,361.53l-61.15-35.2A241.64,241.64,0,0,0,38.22,569.45L97.9,530.53A169.8,169.8,0,0,1,70.83,438.28Z" fill="#fcc947"/><path d="M40.61,506.51l-1.69,1.69q.91,3.09,1.91,6.15l2.31.32q.93,2.79,1.92,5.55-9.35-1.69-18.72-4.07c-.1-.33-.2-.67-.31-1q6.31-7.41,13-14.19C39.56,502.82,40.08,504.67,40.61,506.51ZM37.39,514c-.37-1.15-.73-2.3-1.08-3.46-1,.92-1.89,1.84-2.83,2.78C34.78,513.53,36.09,513.75,37.39,514Z" fill="#14192e"/><path d="M37.66,494.72c.78,3.32-.07,4.92-3.11,5.73l-3.55.94c.2.8.41,1.59.62,2.39l-3.05-.09c-.13-.51-.27-1-.4-1.55l-2.33.62q-1-2.22-1.95-4.47l3.14-.77c-.22-.94-.43-1.89-.64-2.83l2.85-.66c.2.93.42,1.86.64,2.79l3.62-.88c1-.25,1.3-.59,1.1-1.46a15.13,15.13,0,0,0-.6-2l3.06.15A16.31,16.31,0,0,1,37.66,494.72Z" fill="#14192e"/><path d="M27.36,486.73c.12.6.39.94.7.88,1.12-.23-.41-6.37,3.16-7,2.33-.4,3.93,1.59,4.5,4.59a13.85,13.85,0,0,1-.44,6.14l-2.85-1.45a7.58,7.58,0,0,0,.45-4c-.12-.65-.45-1-.8-.91-1.27.25.44,6.19-3.07,7-2,.46-3.64-1.11-4.29-4.49a14.4,14.4,0,0,1,0-5.07l2.74.19A13.82,13.82,0,0,0,27.36,486.73Z" fill="#14192e"/><path d="M26.88,465.69a5.63,5.63,0,0,1,6.5,5.16,10.11,10.11,0,0,1-.05,2.65l3.44-.49c.48,1.42,1,2.84,1.49,4.26,0,0-3.94.63-14.75,2.43-.24-1.55-.47-3.09-.68-4.64l1.9-.28a3.53,3.53,0,0,1-2.57-3.27A4.94,4.94,0,0,1,26.88,465.69Zm-1.44,6.83c.17,1.3,1.41,2,3.92,1.59l1.13-.17a4.05,4.05,0,0,0,.1-1.64c-.21-1.59-1.55-2.17-3.07-2C26.29,470.48,25.27,471.16,25.44,472.52Z" fill="#14192e"/><path d="M20.87,457.28a10.56,10.56,0,0,1,1.66-6.62l9.06-.4c.05,1.49.12,3,.2,4.48l-1.94.12a3.44,3.44,0,0,1,2.36,3.3c.21,3-1.62,5.21-4.9,5.54S21.16,461.83,20.87,457.28ZM29,457c-.09-1.27-1.27-2-3.8-1.85l-1.14.07a4.39,4.39,0,0,0-.21,1.67c.1,1.64,1.43,2.3,2.95,2.17C28,459,29.08,458.34,29,457Z" fill="#14192e"/><path d="M24,439.06c-.16,2.38,1.1,3.85,4.15,3.81l3.26,0c0,1.49,0,3,.06,4.48l-10.84.34c0-1.57-.06-3.13-.07-4.69l1.89,0a3.33,3.33,0,0,1-1.89-2.26,5.76,5.76,0,0,1-.18-2.16S24,439.12,24,439.06Z" fill="#14192e"/><path d="M26.89,432.38c1.12,0,1.81-.39,1.86-1.52.08-1.64-1.85-1.92-3-2L21,428.67c.09-1.58.19-3.15.31-4.73l10.82.72c-.11,1.51-.21,3-.29,4.52l-1.89-.1a4.17,4.17,0,0,1,1.92,3.82c-.12,3.24-1.93,4.19-5.2,4.15l-6-.07c0-1.6.08-3.2.15-4.79Z" fill="#14192e"/><path d="M27.93,406.85c-1.11-.16-1.79-.13-2,1s.82,1.4,2.88,1.67l4.77.62c-.21,1.52-.4,3-.58,4.56L27,414.06c-1.1-.12-1.79-.07-1.92,1.09s.87,1.37,2.93,1.58l4.79.47c-.16,1.51-.31,3-.44,4.51l-10.81-.85c.13-1.58.29-3.15.45-4.72l1.88.18a2.63,2.63,0,0,1-1.46-1.39,4,4,0,0,1-.25-2.11c.24-1.94,1-3.07,2.63-3.43a3.83,3.83,0,0,1-1.63-3.93c.43-2.77,1.94-3.86,5.18-3.34l6.39,1c-.26,1.52-.5,3-.72,4.55Z" fill="#14192e"/><path d="M25.55,392.06a10.79,10.79,0,0,1,3.39-6l8.83,2c-.35,1.48-.68,2.95-1,4.43l-1.9-.4a3.48,3.48,0,0,1,1.39,3.85c-.6,3-3,4.64-6.21,4.1S24.61,396.57,25.55,392.06ZM33.46,394c.26-1.27-.67-2.3-3.16-2.82l-1.11-.23a4.19,4.19,0,0,0-.66,1.56c-.34,1.64.76,2.63,2.26,2.91C32,395.61,33.18,395.28,33.46,394Z" fill="#14192e"/><path d="M31.76,378.13c-.16.6-.06,1,.24,1.12,1.1.28,2.46-6,5.94-5,2.26.67,2.82,3.2,2,6.2a14.24,14.24,0,0,1-3.12,5.41l-1.91-2.58a8,8,0,0,0,2.17-3.43c.17-.65,0-1.09-.32-1.19-1.25-.33-2.35,5.86-5.85,5-2-.48-2.78-2.62-1.86-6A14.58,14.58,0,0,1,31.28,373l2.37,1.39A14.1,14.1,0,0,0,31.76,378.13Z" fill="#14192e"/><path d="M57,518.64a9.1,9.1,0,0,1-.12-6.27l8.57-2.95c.44,1.28.89,2.55,1.35,3.83l-1.82.66a3.21,3.21,0,0,1,3.11,2.19c1,2.54-.23,5-3.27,6.27S58.49,522.53,57,518.64ZM64.74,516c-.41-1.09-1.73-1.38-4.11-.51l-1.07.39a3.52,3.52,0,0,0,.23,1.51c.52,1.41,2,1.6,3.38,1.05C64.33,518,65.17,517.17,64.74,516Z" fill="#14192e"/><path d="M56.67,501.81c-1.06.31-1.6.9-1.3,1.91.44,1.46,2.35,1,3.43.7L63.41,503c.39,1.29.8,2.59,1.23,3.88l-10.3,3.41c-.45-1.36-.88-2.72-1.3-4.09l1.81-.56a3.81,3.81,0,0,1-3-2.77c-.7-2.43.17-4.21,3.34-5.06l6.25-1.7c.36,1.33.73,2.66,1.11,4Z" fill="#14192e"/><path d="M59.74,488.82c.7,3-.2,4.46-3.24,5.24l-3.56.91c.18.72.37,1.44.56,2.16l-3,0q-.19-.71-.36-1.41l-2.34.6c-.62-1.34-1.23-2.69-1.83-4l3.15-.74c-.19-.86-.39-1.71-.57-2.57l2.85-.63.57,2.52,3.63-.85c1-.24,1.31-.55,1.13-1.34a11.63,11.63,0,0,0-.55-1.75l3,.09A12.07,12.07,0,0,1,59.74,488.82Z" fill="#14192e"/><path d="M45.81,485c.26,1.3-.15,2.48-1.24,2.72s-1.92-.7-2.18-2,.15-2.51,1.24-2.72S45.55,483.66,45.81,485ZM48,486.7c-.29-1.4-.57-2.81-.84-4.22l10.66-2c.25,1.34.52,2.68.8,4Z" fill="#14192e"/><path d="M56.7,472.2a9.05,9.05,0,0,1-1.08,5.9q-6.67,1.17-13.36,2.37c-.55-1.37-1.09-2.74-1.62-4.13l7.24-1.15a3.16,3.16,0,0,1-2.56-3c-.37-2.67,1.74-4.95,5-5.33S56.14,468.36,56.7,472.2Zm-8.19.94c.18,1.2,1.57,1.71,3.61,1.39l1.46-.23a3.29,3.29,0,0,0,.08-1.57c-.19-1.33-1.51-1.82-2.93-1.63S48.34,471.94,48.51,473.14Z" fill="#14192e"/><path d="M42.62,463.21c.13,1.31-.4,2.45-1.51,2.57s-1.84-.88-2-2.22.4-2.48,1.51-2.58S42.49,461.86,42.62,463.21Zm2,1.92c-.15-1.42-.29-2.85-.41-4.28l10.81-1c.12,1.36.25,2.72.39,4.07Z" fill="#14192e"/><path d="M54.66,451.54c.16,3.38-1.64,6.26-5.2,6.55s-5.83-2.41-6-6,1.85-6.5,5.45-6.55S54.51,448.16,54.66,451.54Zm-8.19.42c.05,1.16,1.06,2.07,2.71,2s2.54-1.09,2.48-2.22-1-2-2.64-2S46.41,450.78,46.47,452Z" fill="#14192e"/><path d="M54.44,438.55c0,3.08-1.26,4.28-4.4,4.31l-3.67,0c0,.74,0,1.49,0,2.23l-2.94-.76c0-.48,0-1,0-1.45l-2.41,0c-.28-1.45-.55-2.9-.8-4.36l3.23,0,.06-2.63,2.92.07c0,.86,0,1.73,0,2.59l3.73.05c1.06,0,1.4-.22,1.41-1a10.59,10.59,0,0,0-.11-1.84l2.94.82A13,13,0,0,1,54.44,438.55Z" fill="#14192e"/><path d="M41.85,431.47c-.07,1.32-.75,2.38-1.86,2.34s-1.7-1.14-1.64-2.49.75-2.41,1.86-2.34S41.91,430.11,41.85,431.47Zm1.74,2.2c.06-1.43.13-2.87.21-4.31l10.83.6c-.08,1.36-.14,2.73-.19,4.09Z" fill="#14192e"/><path d="M54.8,427.24c-5.14-.35-10.3-.7-15.45-1q-.24-2.22-.45-4.44,8.12.69,16.23,1.4C55,424.53,54.9,425.88,54.8,427.24Zm-10.23-7.89q.26-2.46.57-4.92c1.4,1.2,2.82,2.38,4.24,3.54,2.22-1.11,4.45-2.19,6.68-3.22-.21,1.59-.4,3.19-.57,4.78q-3.3,1.38-6.58,2.88Q46.74,420.9,44.57,419.35Z" fill="#14192e"/><path d="M46,406.93a9,9,0,0,1,3-5.53l8.91,1.65q-.37,2-.72,4l-1.91-.32a3.21,3.21,0,0,1,1.62,3.44c-.41,2.69-2.67,4.26-5.94,3.85S45.37,411.05,46,406.93Zm8,1.53c.18-1.15-.82-2.06-3.32-2.47l-1.13-.19a3.48,3.48,0,0,0-.55,1.43c-.24,1.49.92,2.36,2.43,2.58C52.68,410,53.83,409.67,54,408.46Z" fill="#14192e"/><path d="M55.46,386.36c-1.08-.28-1.76-.34-2,.69s.69,1.38,2.7,1.89l4.67,1.17c-.35,1.36-.68,2.71-1,4.07l-5.95-1.38c-1.09-.25-1.77-.29-2,.75s.73,1.36,2.76,1.8l4.7,1c-.3,1.34-.58,2.68-.86,4L47.8,398.3c.29-1.41.59-2.83.9-4.24l1.85.41A2.7,2.7,0,0,1,49.23,393a3.42,3.42,0,0,1,0-2c.41-1.74,1.31-2.66,2.92-2.78a3.53,3.53,0,0,1-1.26-3.8c.68-2.48,2.26-3.28,5.42-2.38l6.23,1.78c-.39,1.34-.76,2.69-1.12,4Z" fill="#14192e"/><path d="M56.7,374.49c-.17.54-.09.95.21,1,1.09.35,2.55-5.33,6-4.14,2.22.78,2.72,3.15,1.85,5.83a11.82,11.82,0,0,1-3.19,4.71c-.62-.82-1.24-1.66-1.85-2.5a6.7,6.7,0,0,0,2.22-3c.18-.57,0-1-.3-1.1-1.22-.4-2.44,5.19-5.9,4.18-2-.59-2.69-2.6-1.71-5.63a12.37,12.37,0,0,1,2.3-4.11l2.33,1.45A11.71,11.71,0,0,0,56.7,374.49Z" fill="#14192e"/><polygon points="107.76 373.28 11.16 317.46 84.9 305.94 107.76 373.28" fill="#fcc947"/><path d="M479.74,445.35A174.82,174.82,0,0,1,415.6,580.84l40.15,52.73a241.41,241.41,0,0,0,6.7-370.87l-42.09,51.22A174.73,174.73,0,0,1,479.74,445.35Z" fill="#15ffc7"/><path d="M494.89,424.7c-2-9.43,1-16.79,9.54-20,8.25-3.1,16.2,1.94,18.73,13.57.88,4.08.68,9.16-.39,11.87l-6.52.26a16.61,16.61,0,0,0,1-9.83c-1.15-5.57-5.39-8.34-10-7a8.35,8.35,0,0,0-6.1,10.24,13.23,13.23,0,0,0,.93,2.85c3-.57,6.07-1.15,9.11-1.74q.85,4.62,1.39,9.29-6.27.8-12.56,1.54A29.68,29.68,0,0,1,494.89,424.7Z" fill="#14192e"/><path d="M497.92,450.09c0-2.8-.12-5.6-.32-8.38q14.13-1,28.24-2.31a156.67,156.67,0,0,1,.07,22l-6.17-.33c.26-3.76.37-7.52.35-11.28l-4,.08q0,3.81-.15,7.62l-6.26-.22q.16-3.66.14-7.3Q503.86,450.05,497.92,450.09Z" fill="#14192e"/><path d="M503.58,472.54l-7.31-1.15c.45-2.79.81-5.6,1.08-8.4q14.1,1.32,28.24,2.39c-.29,3.09-.67,6.19-1.15,9.27-1.92,11.92-7.91,16.44-13.79,14.81C504.42,487.77,502.27,482.05,503.58,472.54ZM518.09,475l0-.22-8.46-1.26v.1l0,.1c-.52,3.18.5,5.88,3.23,6.42C515.38,480.65,517.54,478.4,518.09,475Z" fill="#14192e"/><rect x="289.6" y="168.44" width="92.15" height="42.65" rx="6.97" transform="translate(603.87 -87.29) rotate(104.59)" fill="#54a8ff"/><rect x="331.04" y="160.93" width="147.74" height="45.69" rx="9.14" transform="translate(59.34 -96.06) rotate(14.59)" fill="#54a8ff"/><polygon points="460.01 235.1 478.89 162.9 502.61 207.67 460.01 235.1" fill="#54a8ff"/><path d="M349.89,172.2c-.29,1.2-.59,2.4-.88,3.6l-4-1,3.39-13.76L352,162c4.67,1.13,6.39,3.75,5.64,6.74S354.27,173.12,349.89,172.2Zm1.89-7.12-.09,0c-.35,1.39-.69,2.77-1,4.15h.09a2.17,2.17,0,1,0,1-4.15Z"/><path d="M365.24,173c-1.72-.54-3.08.25-3.74,2.87-.23.93-.46,1.86-.7,2.79l-3.39-.83q1.15-4.65,2.32-9.29l3.4.83c-.13.54-.27,1.08-.4,1.62a2.76,2.76,0,0,1,2.06-1.21,3.88,3.88,0,0,1,1.61.21S365.2,173,365.24,173Z"/><path d="M369.45,181c-2.85-.72-4.72-3-3.95-6.07s3.52-4.24,6.38-3.53,4.69,3,3.9,6.12S372.3,181.68,369.45,181Zm1.75-7c-.94-.24-1.93.39-2.28,1.81s.22,2.41,1.15,2.64,1.92-.35,2.28-1.76S372.16,174.18,371.2,173.94Z"/><path d="M388.37,180c.25-.95.31-1.55-.54-1.76s-1.16.62-1.61,2.39l-1.06,4.12-3.45-.88c.45-1.74.89-3.48,1.34-5.22.24-1,.3-1.55-.54-1.76s-1.16.62-1.62,2.39l-1.05,4.12-3.4-.86q1.17-4.63,2.36-9.27l3.42.86-.42,1.61a2.49,2.49,0,0,1,1.25-1.15,2.74,2.74,0,0,1,1.6,0,2.54,2.54,0,0,1,2.2,2.54,2.92,2.92,0,0,1,3.13-1.18c2,.51,2.65,1.85,1.92,4.66q-.7,2.78-1.43,5.53l-3.44-.88C387.48,183.51,387.92,181.77,388.37,180Z"/><path d="M397.28,188c-2.84-.74-4.68-3.05-3.89-6.1s3.54-4.21,6.39-3.48,4.66,3.07,3.85,6.14S400.13,188.76,397.28,188Zm1.81-7c-.94-.24-1.93.38-2.3,1.79s.21,2.41,1.14,2.65,1.91-.33,2.28-1.74S400.05,181.26,399.09,181Z"/><path d="M408.14,190.82c-2.57-.67-3.29-2-2.59-4.66.28-1,.55-2.1.83-3.14l-1.8-.47,1.3-2.33,1.15.3c.18-.69.37-1.37.55-2.05l3.61.18c-.25.92-.49,1.84-.73,2.76l2.09.55c-.23.83-.45,1.66-.67,2.5l-2.08-.55-.84,3.18c-.24.91-.12,1.25.55,1.42a9,9,0,0,0,1.54.26c-.43.79-.86,1.57-1.28,2.36A10.37,10.37,0,0,1,408.14,190.82Z"/><path d="M416.07,192.93c-2.84-.75-4.66-3.07-3.86-6.12s3.56-4.19,6.4-3.44,4.64,3.09,3.82,6.16S418.9,193.68,416.07,192.93Zm1.84-7c-.93-.24-1.93.37-2.3,1.78s.19,2.41,1.12,2.66,1.91-.32,2.28-1.73S418.86,186.17,417.91,185.92Z"/><path d="M430.89,189.94c-1.7-.57-3.07.2-3.77,2.8l-.75,2.78-3.36-.89c.83-3.09,1.65-6.17,2.48-9.25l3.37.9c-.15.53-.29,1.07-.44,1.61a2.82,2.82,0,0,1,2.08-1.17,3.89,3.89,0,0,1,1.6.24S430.85,189.91,430.89,189.94Z"/><path d="M433.36,187.48l3.41.92c-.84,3.08-1.67,6.16-2.51,9.24l-3.4-.91Q432.11,192.09,433.36,187.48Zm2.11-1.11c-1.05-.28-1.74-1.06-1.48-2s1.24-1.26,2.29-1,1.74,1,1.48,2S436.53,186.66,435.47,186.37Z"/><path d="M440.92,195.11c-.25.95-.08,1.61.76,1.84,1.21.33,1.8-1.28,2.06-2.25.38-1.37.75-2.74,1.13-4.1l3.38.92-2.54,9.23-3.37-.92.44-1.61a3.22,3.22,0,0,1-3.27,1c-2.42-.66-2.74-2.4-2-5.18q.69-2.53,1.39-5.09l3.42.93Q441.64,192.52,440.92,195.11Z"/><path d="M453.59,195.33c-.44-.12-.78,0-.85.24-.27,1,4.41,1.91,3.56,5-.55,2-2.52,2.61-4.81,2a9.08,9.08,0,0,1-4-2.62l2.08-1.7a5.17,5.17,0,0,0,2.51,1.81c.49.13.83,0,.92-.32.3-1.08-4.37-1.89-3.52-5,.49-1.79,2.13-2.45,4.58-1.78a9.78,9.78,0,0,1,3.36,1.74l-1.11,2.13A9.53,9.53,0,0,0,453.59,195.33Z"/><path d="M354.72,201.23s3.1-6.1,9-4.56-9.51-5.62-9.51-5.62Z" fill="#54a8ff"/><path d="M168.68,26.5A255.44,255.44,0,0,0,35.94,82,76.12,76.12,0,0,0,72.58,142.5,185.06,185.06,0,0,1,186,95a76.77,76.77,0,0,0,2.08-17.74A75.84,75.84,0,0,0,168.68,26.5Z" fill="#8cc5ff"/><circle cx="112.33" cy="77.68" r="76.16" fill="none" stroke="#fff" stroke-miterlimit="10" stroke-width="3.05"/><line x1="72.58" y1="142.5" x2="174.02" y2="242.18" fill="none" stroke="#fff" stroke-linecap="round" stroke-linejoin="round" stroke-width="3.05"/><line x1="195.34" y1="233.04" x2="186.79" y2="95.04" fill="none" stroke="#fff" stroke-linecap="round" stroke-linejoin="round" stroke-width="3.05"/><path d="M62.41,100l-2-.81q-2.09,1.58-4.12,3.18c.2.62.39,1.24.59,1.86q-1.85,1.47-3.66,3L49.3,92l.65-.51q8.36,2.63,16.26,5.79C64.93,98.18,63.66,99.11,62.41,100Zm-7.07-.35c.76-.6,1.53-1.2,2.31-1.79l-3.27-1.36Z"/><path d="M73.6,92.19q-1.81,1.2-3.6,2.43-3.54-4.22-7.28-8.31c-1,.7-2,1.41-3,2.12l-1.49-2.74q4.32-3.12,8.83-6.07c.7.78,1.39,1.57,2.08,2.35-.92.6-1.83,1.2-2.73,1.81Q70.11,87.94,73.6,92.19Z"/><path d="M74.49,83.22c-2.84-3.38-2-7.32,2.55-10a11,11,0,0,1,5.17-1.59L84,74.39a7.84,7.84,0,0,0-4.54,1,3.34,3.34,0,0,0-1,5.37,4.67,4.67,0,0,0,6.21,1.09A5.83,5.83,0,0,0,87.1,79c1,.4,2,.81,3,1.23a8.29,8.29,0,0,1-3.91,4.41C81.8,87.14,77.34,86.62,74.49,83.22Z"/><path d="M89.77,74.35c-2.68-3.55-1.52-7.43,3.26-9.83a11.52,11.52,0,0,1,5.39-1.27L100,66.09a8.33,8.33,0,0,0-4.71.78C93,68,92.48,70.18,93.94,72.18a4.87,4.87,0,0,0,6.28,1.46A5.93,5.93,0,0,0,103,70.9q1.48.69,2.94,1.41a8.38,8.38,0,0,1-4.29,4.16C97,78.7,92.46,77.91,89.77,74.35Z"/><path d="M118.13,69.19c-5.1,2-9.56,1-12.14-2.78s-1.06-7.52,4.1-9.67a13.71,13.71,0,0,1,5.85-1l1.47,2.94a10.16,10.16,0,0,0-5.13.57c-2.56,1.05-3.33,3.2-2,5.26a5.15,5.15,0,0,0,6.39,1.88,6.6,6.6,0,0,0,1.4-.76c-.83-1.34-1.66-2.68-2.51-4,1.49-.59,3-1.17,4.49-1.74,1.14,1.85,2.25,3.69,3.34,5.55A13.76,13.76,0,0,1,118.13,69.19Z"/><path d="M135.78,62.72q-2.26.72-4.5,1.47-2.73-4.94-5.68-9.83c-1.26.44-2.5.88-3.75,1.34-.28-1-.58-2-.87-3q5.42-2,11-3.75c.54.93,1.08,1.86,1.61,2.79-1.13.35-2.25.71-3.37,1.08Q133.1,57.74,135.78,62.72Z"/><path d="M150.6,58.51c-1.56.4-3.12.81-4.67,1.23q-2.53-5.09-5.3-10.12c-1.31.37-2.6.75-3.89,1.13-.24-1-.49-2-.74-3.06q5.63-1.69,11.4-3.16l1.51,2.87-3.5.9Q148.11,53.39,150.6,58.51Z"/><path d="M154.31,50.22c-2-4.1.12-7.6,5.79-8.77a13.6,13.6,0,0,1,6.06.07c.36,1.06.72,2.11,1.07,3.16a9.92,9.92,0,0,0-5.23-.4c-2.74.56-3.82,2.53-2.72,4.83a5.67,5.67,0,0,0,6.41,3,6.31,6.31,0,0,0,3.56-2l2.84,2.1a9,9,0,0,1-5.58,3C161.05,56.2,156.35,54.33,154.31,50.22Z"/><path d="M72.33,118.65q-1.59,1.2-3.15,2.43-3.36-4.17-6.93-8.24c-.87.7-1.75,1.4-2.61,2.12-.48-.91-1-1.82-1.46-2.73q3.78-3.11,7.74-6.07c.66.77,1.32,1.55,2,2.33-.8.6-1.6,1.2-2.39,1.81Q69,114.43,72.33,118.65Z"/><path d="M83.54,110.69c-.59-.33-1.18-.66-1.78-1q-2.07,1.38-4.08,2.8c.14.63.29,1.26.43,1.9-1.22.86-2.43,1.74-3.62,2.62l-2.73-15.51.65-.45q7.68,3.34,14.89,7.18C86,109.06,84.78,109.87,83.54,110.69Zm-6.61-1,2.29-1.57c-1-.56-2-1.11-3-1.65Z"/><path d="M95,103.78c-4.24,2.46-8.22,1.84-10.85-1.75s-1.67-7.4,2.65-10a10.82,10.82,0,0,1,5-1.52c.53.93,1,1.87,1.56,2.8a7.94,7.94,0,0,0-4.43,1,3.5,3.5,0,0,0-1.22,5.39,4.21,4.21,0,0,0,5.76,1.34,6.1,6.1,0,0,0,1.14-.87q-1.26-1.91-2.56-3.79c1.24-.72,2.5-1.42,3.77-2.12q1.74,2.61,3.41,5.23A12.18,12.18,0,0,1,95,103.78Z"/><path d="M109.92,95.88c-4.53,2.19-8.57,1.32-11-2.43s-1.22-7.49,3.39-9.78a11.42,11.42,0,0,1,5.25-1.2c.48,1,1,1.93,1.42,2.9a8.36,8.36,0,0,0-4.61.72c-2.29,1.13-2.91,3.28-1.62,5.31a4.39,4.39,0,0,0,5.83,1.69,5.91,5.91,0,0,0,1.23-.79q-1.17-2-2.38-3.94c1.33-.64,2.66-1.26,4-1.88,1.08,1.81,2.13,3.62,3.17,5.44A12.64,12.64,0,0,1,109.92,95.88Z"/><path d="M114.61,85.81c-2.23-3.78-.79-7.53,4-9.48a10.59,10.59,0,0,1,5.23-.77c.43,1,.86,2,1.28,3a7.55,7.55,0,0,0-4.55.34A3.38,3.38,0,0,0,118.75,84a4.52,4.52,0,0,0,5.83,2,5.8,5.8,0,0,0,2.84-2.48l2.66,1.67A8.2,8.2,0,0,1,125.63,89C121.06,90.82,116.84,89.61,114.61,85.81Z"/><path d="M143.36,82.67l-1.69-1.41q-2.61.81-5.17,1.67c0,.65,0,1.3,0,1.95q-2.34.8-4.64,1.62.57-7.84,1.13-15.71l.81-.27q7.42,5.19,14.29,10.76Q145.7,82,143.36,82.67ZM136.42,80l2.89-.94-2.8-2.35Z"/><path d="M160.52,78.11l-1.65-1.52q-2.72.64-5.4,1.33c-.05.64-.1,1.29-.14,1.94q-2.45.63-4.86,1.31,1-7.8,2.09-15.61l.85-.22q7.32,5.67,14,11.71C163.8,77.39,162.15,77.74,160.52,78.11Zm-7-3.09c1-.26,2-.51,3-.75-.9-.85-1.82-1.7-2.74-2.54C153.75,72.83,153.65,73.92,153.56,75Z"/><path d="M175.34,75.38c-5.46.9-9.65-1-11.39-5.3s.54-7.58,6.09-8.58a13.71,13.71,0,0,1,6,.24c.29,1.06.56,2.12.83,3.18a10.39,10.39,0,0,0-5.17-.53c-2.76.48-4,2.41-3.06,4.72a5.22,5.22,0,0,0,5.91,3.2,7.33,7.33,0,0,0,1.54-.44q-.8-2.24-1.63-4.46c1.59-.27,3.19-.51,4.8-.75.73,2,1.44,4.09,2.13,6.14A13.86,13.86,0,0,1,175.34,75.38Z"/></svg>