<svg xmlns="http://www.w3.org/2000/svg" width="144.59" height="384.25" viewBox="0 0 144.59 384.25"><title>Asset 53</title><polygon points="5.15 302.43 66.96 384.25 0 373.36 5.15 302.43" fill="#15ffc7"/><path d="M78.34,182.65A174.79,174.79,0,0,1,14.19,318.13l40.15,52.74a241,241,0,0,0,90.25-188.22A240.87,240.87,0,0,0,61.05,0L19,51.22A174.71,174.71,0,0,1,78.34,182.65Z" fill="#15ffc7"/><path d="M93.48,162c-2-9.43,1-16.78,9.55-20,8.24-3.11,16.19,1.94,18.72,13.57.89,4.07.69,9.16-.39,11.86l-6.52.27a16.49,16.49,0,0,0,1-9.84c-1.15-5.56-5.39-8.33-10-7a8.38,8.38,0,0,0-6.11,10.25,13.71,13.71,0,0,0,.93,2.84q4.56-.85,9.11-1.74.85,4.62,1.39,9.3-6.27.8-12.56,1.54A29.88,29.88,0,0,1,93.48,162Z" fill="#14192e"/><path d="M96.51,187.39q0-4.2-.32-8.39,14.13-1,28.24-2.3a156.53,156.53,0,0,1,.07,22l-6.16-.32c.25-3.76.37-7.53.34-11.29l-4,.08c0,2.54,0,5.08-.15,7.63l-6.26-.22q.16-3.66.15-7.3Q102.45,187.34,96.51,187.39Z" fill="#14192e"/><path d="M102.18,209.84l-7.32-1.15q.67-4.2,1.08-8.4,14.1,1.31,28.24,2.38-.44,4.65-1.14,9.28c-1.93,11.92-7.92,16.44-13.79,14.81C103,225.07,100.86,219.35,102.18,209.84Zm14.51,2.46,0-.22q-4.23-.62-8.45-1.26l0,.11,0,.1c-.52,3.18.5,5.88,3.24,6.42C114,218,116.13,215.7,116.69,212.3Z" fill="#14192e"/></svg>