<svg xmlns="http://www.w3.org/2000/svg" width="546" height="707.78" viewBox="0 0 546 707.78">
    <title>Asset 48</title>
    <path id="plasmid-main" d="M271.68,202.23c-133.33,0-241.41,108.09-241.41,241.42S138.35,685.07,271.68,685.07,513.1,577,513.1,443.65,405,202.23,271.68,202.23Zm-.18,460C151,662.19,53.31,564.5,53.31,444S151,225.81,271.5,225.81,489.69,323.49,489.69,444,392,662.19,271.5,662.19Z" fill="#8cc5ff" />
    <path d="M346,621.86l21.82,68a243.39,243.39,0,0,0,52-22.68l-35.26-62A171.39,171.39,0,0,1,346,621.86Z" fill="none" />
    <path d="M249.8,634.71a170.13,170.13,0,0,1-58.6-19.25l-36.48,61.61a240.77,240.77,0,0,0,85.37,28.56,243.77,243.77,0,0,0,26.09,2.15l5.33-71.48A174,174,0,0,1,249.8,634.71Z" fill="none" />
    <path d="M70.83,436.76A169.76,169.76,0,0,1,89,360l-61.15-35.2A241.62,241.62,0,0,0,38.22,567.92L97.9,529A169.74,169.74,0,0,1,70.83,436.76Z" fill="none" />
    <polygon points="107.76 371.76 11.16 315.94 84.9 304.42 107.76 371.76" fill="none" />
    <polygon points="406.56 563.61 468.37 645.43 401.41 634.54 406.56 563.61" fill="none" />
    <path d="M479.74,443.83A174.78,174.78,0,0,1,415.6,579.31l40.15,52.74a241.41,241.41,0,0,0,6.7-370.87L420.36,312.4A174.7,174.7,0,0,1,479.74,443.83Z" fill="none" />
    <rect x="289.6" y="166.91" width="92.15" height="42.65" rx="6.97" transform="translate(602.39 -89.2) rotate(104.59)" fill="none" />
    <rect x="331.04" y="159.41" width="147.74" height="45.69" rx="9.14" transform="translate(58.96 -96.11) rotate(14.59)" fill="none" />
    <polygon points="460.01 233.58 478.89 161.38 502.61 206.15 460.01 233.58" fill="none" />
    <path d="M354.72,199.71s3.1-6.1,9-4.56-9.51-5.63-9.51-5.63Z" fill="none" />
    <path d="M168.68,25A255.35,255.35,0,0,0,35.94,80.47,76.13,76.13,0,0,0,72.58,141,185.15,185.15,0,0,1,186,93.51a76.75,76.75,0,0,0,2.08-17.73A75.87,75.87,0,0,0,168.68,25Z" fill="none" />
    <circle cx="112.33" cy="76.16" r="76.16" fill="none" />
    <line x1="72.58" y1="140.98" x2="174.02" y2="240.66" fill="none" />
    <line x1="195.34" y1="231.52" x2="186.79" y2="93.51" fill="none" />
    <line x1="294.08" y1="204.13" x2="294.04" y2="204.75" fill="none" stroke="#040080" stroke-linecap="round" stroke-linejoin="round" stroke-width="2.25" />
    <line x1="293.8" y1="208.78" x2="292.95" y2="222.61" fill="none" stroke-dasharray="1.26 4.03" stroke-linecap="round" stroke-linejoin="round" stroke-width="2.25" stroke="#040080" />
    <line x1="292.82" y1="224.62" x2="292.79" y2="225.24" fill="none" stroke="#040080" stroke-linecap="round" stroke-linejoin="round" stroke-width="2.25" />
    <line x1="370.4" y1="224.06" x2="370.14" y2="224.63" fill="none" stroke="#040080" stroke-linecap="round" stroke-linejoin="round" stroke-width="2.25" />
    <line x1="368.44" y1="228.28" x2="362.63" y2="240.86" fill="none" stroke-dasharray="1.26 4.03" stroke-linecap="round" stroke-linejoin="round" stroke-width="2.25" stroke="#040080" />
    <line x1="361.78" y1="242.69" x2="361.52" y2="243.26" fill="none" stroke="#040080" stroke-linecap="round" stroke-linejoin="round" stroke-width="2.25" />
    <line x1="501.24" y1="371.99" x2="500.64" y2="372.19" fill="none" stroke="#040080" stroke-linecap="round" stroke-linejoin="round" stroke-width="2.25" />
    <line x1="496.83" y1="373.48" x2="483.71" y2="377.94" fill="none" stroke-dasharray="1.26 4.03" stroke-linecap="round" stroke-linejoin="round" stroke-width="2.25" stroke="#040080" />
    <line x1="481.8" y1="378.59" x2="481.21" y2="378.79" fill="none" stroke="#040080" stroke-linecap="round" stroke-linejoin="round" stroke-width="2.25" />
    <line x1="511.74" y1="450.16" x2="511.11" y2="450.13" fill="none" stroke="#040080" stroke-linecap="round" stroke-linejoin="round" stroke-width="2.25" />
    <line x1="507.09" y1="449.95" x2="493.24" y2="449.34" fill="none" stroke-dasharray="1.26 4.03" stroke-linecap="round" stroke-linejoin="round" stroke-width="2.25" stroke="#040080" />
    <line x1="491.23" y1="449.25" x2="490.6" y2="449.22" fill="none" stroke="#040080" stroke-linecap="round" stroke-linejoin="round" stroke-width="2.25" />
    <line x1="403.69" y1="644.51" x2="403.33" y2="644" fill="none" stroke="#040080" stroke-linecap="round" stroke-linejoin="round" stroke-width="2.25" />
    <line x1="400.98" y1="640.72" x2="392.93" y2="629.45" fill="none" stroke-dasharray="1.26 4.03" stroke-linecap="round" stroke-linejoin="round" stroke-width="2.25" stroke="#040080" />
    <line x1="391.76" y1="627.81" x2="391.39" y2="627.3" fill="none" stroke="#040080" stroke-linecap="round" stroke-linejoin="round" stroke-width="2.25" />
    <line x1="331.88" y1="677.13" x2="331.72" y2="676.52" fill="none" stroke="#040080" stroke-linecap="round" stroke-linejoin="round" stroke-width="2.25" />
    <line x1="330.73" y1="672.62" x2="327.32" y2="659.18" fill="none" stroke-dasharray="1.26 4.03" stroke-linecap="round" stroke-linejoin="round" stroke-width="2.25" stroke="#040080" />
    <line x1="326.83" y1="657.23" x2="326.67" y2="656.63" fill="none" stroke="#040080" stroke-linecap="round" stroke-linejoin="round" stroke-width="2.25" />
    <line x1="250.86" y1="682.83" x2="250.89" y2="682.21" fill="none" stroke="#040080" stroke-linecap="round" stroke-linejoin="round" stroke-width="2.25" />
    <line x1="251.07" y1="678.18" x2="251.72" y2="664.34" fill="none" stroke-dasharray="1.26 4.03" stroke-linecap="round" stroke-linejoin="round" stroke-width="2.25" stroke="#040080" />
    <line x1="251.82" y1="662.33" x2="251.85" y2="661.7" fill="none" stroke="#040080" stroke-linecap="round" stroke-linejoin="round" stroke-width="2.25" />
    <line x1="174.26" y1="664.01" x2="174.51" y2="663.44" fill="none" stroke="#040080" stroke-linecap="round" stroke-linejoin="round" stroke-width="2.25" />
    <line x1="176.15" y1="659.76" x2="181.79" y2="647.1" fill="none" stroke-dasharray="1.26 4.03" stroke-linecap="round" stroke-linejoin="round" stroke-width="2.25" stroke="#040080" />
    <line x1="182.61" y1="645.26" x2="182.86" y2="644.69" fill="none" stroke="#040080" stroke-linecap="round" stroke-linejoin="round" stroke-width="2.25" />
    <line x1="33.47" y1="477.58" x2="34.09" y2="477.48" fill="none" stroke="#040080" stroke-linecap="round" stroke-linejoin="round" stroke-width="2.25" />
    <line x1="38.07" y1="476.84" x2="51.75" y2="474.66" fill="none" stroke-dasharray="1.26 4.03" stroke-linecap="round" stroke-linejoin="round" stroke-width="2.25" stroke="#040080" />
    <line x1="53.74" y1="474.34" x2="54.36" y2="474.25" fill="none" stroke="#040080" stroke-linecap="round" stroke-linejoin="round" stroke-width="2.25" />
    <line x1="35.3" y1="398.75" x2="35.91" y2="398.89" fill="none" stroke="#040080" stroke-linecap="round" stroke-linejoin="round" stroke-width="2.25" />
    <line x1="39.85" y1="399.74" x2="53.39" y2="402.68" fill="none" stroke-dasharray="1.26 4.03" stroke-linecap="round" stroke-linejoin="round" stroke-width="2.25" stroke="#040080" />
    <line x1="55.36" y1="403.11" x2="55.97" y2="403.24" fill="none" stroke="#040080" stroke-linecap="round" stroke-linejoin="round" stroke-width="2.25" />
    <circle cx="182.3" cy="232.19" r="9.5" fill="none" stroke="#040080" stroke-linecap="round" stroke-linejoin="round" stroke-width="2.25" stroke-dasharray="2 4" />
</svg>
