<?xml version="1.0" encoding="utf-8"?>
<!-- Generator: Adobe Illustrator 23.1.0, SVG Export Plug-In . SVG Version: 6.00 Build 0)  -->
<svg version="1.1" id="Layer_1" xmlns="http://www.w3.org/2000/svg" xmlns:xlink="http://www.w3.org/1999/xlink" x="0px" y="0px"
	 viewBox="0 0 56.7 72.9" style="enable-background:new 0 0 56.7 72.9;" xml:space="preserve">
<style type="text/css">
	.st0{fill:#007DFF;}
	.st1{fill:#FFFFFF;}
</style>
<title>Asset 52</title>
<path class="st0" d="M7.7,0L0,71c18.8,2.4,37.8,2.5,56.7,0.5l-7-71C35.7,2,21.6,1.9,7.7,0z"/>
<path class="st1" d="M14.1,31.6c-0.9,0-1.4,0.4-1.4,0.9c0,2.1,6,1.3,6,5.9c0,2.7-2.1,4.3-5.4,4.3c-1.9-0.1-3.6-0.7-5.1-1.8
	c0.6-0.9,1.1-1.8,1.7-2.7c1,0.8,2.2,1.3,3.4,1.4c0.9,0,1.5-0.4,1.5-1.1c0-2-6-1.4-6-6c-0.1-2.3,1.9-3.9,4.9-3.8
	c1.5,0,2.9,0.4,4.2,1.1l-0.3,3C16.5,32.1,15.4,31.7,14.1,31.6z"/>
<path class="st1" d="M24.4,42.7c-2.6,0-3.5-1.1-3.5-3.8l0-3.1l-1.8,0c0.2-0.8,0.4-1.7,0.7-2.5l1.2,0l0-2.1l3.4-0.7
	c0,0.9,0,1.8,0,2.8l2.1,0l0,2.5l-2.1,0l0,3.2c0,0.9,0.2,1.2,0.8,1.2c0.5,0,1,0,1.5-0.1L26,42.7C25.5,42.7,25,42.8,24.4,42.7z"/>
<path class="st1" d="M32.4,42.9c-2.8-0.1-5.1-1.8-5-4.9s2.4-4.8,5.2-4.7c2.9,0.1,5.1,1.9,5,5C37.5,41.4,35.2,43,32.4,42.9z
	 M32.5,35.9c-0.9,0-1.7,0.8-1.8,2.2c0,1.4,0.7,2.2,1.7,2.2c0.9,0,1.7-0.7,1.7-2.1S33.4,35.9,32.5,35.9L32.5,35.9z"/>
<path class="st1" d="M49.3,38.4c-0.1,2.7-1.7,5-4.6,4.9c-0.7,0-1.4-0.2-2-0.4c0,1,0,2-0.1,3l-3.4,0.7c0,0,0.1-3.4,0.3-12.8l3.4,0.1
	c0,0.5,0,1.1,0,1.6c0.4-1.1,1.5-1.8,2.7-1.7C47.8,33.8,49.3,35.6,49.3,38.4z M44.4,36.3c-1,0-1.6,0.9-1.6,3.1l0,1
	c0.4,0.2,0.8,0.3,1.2,0.3c1.2,0,1.8-1,1.8-2.3C45.8,37.3,45.4,36.4,44.4,36.3z"/>
</svg>
