<svg xmlns="http://www.w3.org/2000/svg" width="116.79" height="92.32" viewBox="0 0 116.79 92.32"><title>Asset 51</title><path d="M95.08,19.25A170.13,170.13,0,0,1,36.48,0L0,61.61A240.77,240.77,0,0,0,85.37,90.17a244,244,0,0,0,26.09,2.15l5.33-71.48A172.08,172.08,0,0,1,95.08,19.25Z" fill="#134dcf"/><path d="M39.09,57.54c-8.09-1.81-13.43-8.25-11.49-17s9.62-12.41,17.81-10.57S58.93,38.3,56.86,47.07,47.18,59.35,39.09,57.54ZM44,35.88c-3.62-.82-7.29,1.44-8.4,6.36s1.22,8.49,4.82,9.3,7.21-1.31,8.37-6.31S47.7,36.69,44,35.88Z" fill="#fff"/><path d="M71.5,56.6c-.5-1.77-1.12-3.2-3.09-3.67q-1.26,5.24-2.5,10.46l-7.84-1.84q3.15-13.47,6.39-26.92l7,1.64C79.17,38.09,83,41.56,81.64,47.06a6,6,0,0,1-5.77,4.85c4,2.11,1.49,8.11,7.7,9.63l-2.85,5.63C72.61,65.2,72.43,60.17,71.5,56.6ZM71,42.17q-.65,2.7-1.3,5.38c2.24.53,3.9-.22,4.32-1.95C74.39,44.08,73.11,42.67,71,42.17Z" fill="#fff"/><path d="M91,41l7.88,2q-3.42,13.39-6.76,26.82l-7.8-1.93Q87.63,54.41,91,41Z" fill="#fff"/></svg>