<svg xmlns="http://www.w3.org/2000/svg" width="145.95" height="453.18" viewBox="0 0 145.95 453.18"><title>Asset 57</title><rect width="145.95" height="311.91" rx="72.97" fill="#1a203b"/><path d="M68.48,303.62c-1.2,14.7-1.48,32.32,10.36,43.14,6.16,5.64,15.32,7.44,20.9,13.62,6.6,7.32-.4,12-7.1,14.94-14.85,6.44-33.72,14.53-40,30.87-3.27,8.47-.5,15.86,5,22.56,6.28,7.67,12.9,15.08,19.34,22.61,4.62,5.39,12.37-2.42,7.78-7.78-6.43-7.51-13.26-14.82-19.35-22.6-2.53-3.25-4.09-6.3-2.71-10.44s4.7-7.52,7.91-10.3c6.59-5.73,14.5-10,22.54-13.31,6.09-2.5,12.58-5,16.8-10.29a17,17,0,0,0,1.14-19.39c-4-6.89-10.93-10.3-17.65-13.91-7-3.77-11.5-8.48-13.38-16.34-1.82-7.59-1.18-15.68-.55-23.38.58-7.05-10.42-7-11,0Z" fill="#1a203b"/></svg>