<svg xmlns="http://www.w3.org/2000/svg" width="162.21" height="243.7" viewBox="0 0 162.21 243.7"><title>Asset 49</title><path d="M134,26.5A255.44,255.44,0,0,0,1.29,82,76.12,76.12,0,0,0,37.93,142.5,185.07,185.07,0,0,1,151.37,95,76.17,76.17,0,0,0,134,26.5Z" fill="#8cc5ff"/><circle cx="77.68" cy="77.68" r="76.16" fill="none" stroke="#fff" stroke-miterlimit="10" stroke-width="3.05"/><line x1="37.93" y1="142.5" x2="139.37" y2="242.18" fill="none" stroke="#fff" stroke-linecap="round" stroke-linejoin="round" stroke-width="3.05"/><line x1="160.69" y1="233.04" x2="152.14" y2="95.04" fill="none" stroke="#fff" stroke-linecap="round" stroke-linejoin="round" stroke-width="3.05"/><path d="M27.76,100l-2-.81c-1.39,1-2.77,2.11-4.12,3.18.19.62.39,1.24.59,1.86q-1.85,1.47-3.66,3L14.65,92l.65-.51q8.36,2.63,16.26,5.79C30.28,98.18,29,99.11,27.76,100Zm-7.07-.35L23,97.9l-3.26-1.36Z"/><path d="M39,92.19q-1.81,1.2-3.6,2.43c-2.37-2.81-4.79-5.57-7.29-8.31l-3,2.12c-.49-.92-1-1.83-1.48-2.74q4.32-3.12,8.83-6.07c.7.78,1.39,1.57,2.07,2.35-.91.6-1.82,1.2-2.72,1.81Q35.46,87.94,39,92.19Z"/><path d="M39.84,83.22c-2.84-3.38-2-7.32,2.55-10a11,11,0,0,1,5.17-1.59l1.75,2.75a7.76,7.76,0,0,0-4.54,1,3.34,3.34,0,0,0-1,5.37A4.69,4.69,0,0,0,50,81.91,5.86,5.86,0,0,0,52.45,79c1,.4,2,.81,2.95,1.23a8.27,8.27,0,0,1-3.92,4.41C47.15,87.14,42.69,86.63,39.84,83.22Z"/><path d="M55.12,74.35c-2.68-3.55-1.52-7.43,3.26-9.83a11.52,11.52,0,0,1,5.39-1.27l1.61,2.84a8.33,8.33,0,0,0-4.71.78c-2.32,1.14-2.85,3.31-1.39,5.3a4.88,4.88,0,0,0,6.29,1.47A5.93,5.93,0,0,0,68.3,70.9q1.49.69,2.94,1.41A8.38,8.38,0,0,1,67,76.47C62.35,78.7,57.81,77.91,55.12,74.35Z"/><path d="M83.48,69.19c-5.1,2-9.56,1-12.15-2.78s-1-7.52,4.11-9.67a13.71,13.71,0,0,1,5.85-1l1.47,2.94a10.16,10.16,0,0,0-5.13.57c-2.56,1.05-3.33,3.2-2,5.26a5.15,5.15,0,0,0,6.39,1.88,7.14,7.14,0,0,0,1.4-.76c-.83-1.34-1.66-2.68-2.51-4,1.49-.59,3-1.17,4.49-1.74,1.13,1.85,2.25,3.69,3.33,5.55A13.65,13.65,0,0,1,83.48,69.19Z"/><path d="M101.13,62.72q-2.26.72-4.5,1.47Q93.9,59.26,91,54.36c-1.26.44-2.5.88-3.75,1.34l-.87-3q5.42-2,11-3.75.83,1.4,1.62,2.79c-1.13.35-2.25.72-3.38,1.08Q98.45,57.74,101.13,62.72Z"/><path d="M116,58.51c-1.57.4-3.12.81-4.67,1.23-1.7-3.39-3.46-6.76-5.31-10.12l-3.88,1.13c-.25-1-.49-2-.74-3.06Q107,46,112.75,44.53l1.51,2.87-3.5.9Q113.46,53.39,116,58.51Z"/><path d="M119.66,50.22c-2-4.1.12-7.6,5.79-8.77a13.6,13.6,0,0,1,6.06.07c.36,1.06.72,2.11,1.07,3.16a9.83,9.83,0,0,0-5.23-.39c-2.74.55-3.82,2.52-2.72,4.82a5.66,5.66,0,0,0,6.4,3,6.31,6.31,0,0,0,3.57-2l2.84,2.1a9,9,0,0,1-5.58,3C126.4,56.2,121.7,54.33,119.66,50.22Z"/><path d="M37.67,118.65c-1.06.8-2.11,1.61-3.14,2.43-2.25-2.78-4.55-5.53-6.93-8.24-.88.7-1.75,1.4-2.61,2.12-.49-.91-1-1.82-1.47-2.73q3.8-3.11,7.75-6.07c.66.77,1.32,1.55,2,2.33-.8.6-1.6,1.2-2.39,1.81Q34.36,114.43,37.67,118.65Z"/><path d="M48.89,110.69c-.59-.33-1.18-.66-1.78-1Q45,111.09,43,112.51c.14.63.29,1.26.43,1.9-1.22.86-2.43,1.74-3.62,2.62l-2.73-15.51.65-.45q7.68,3.34,14.89,7.18C51.39,109.06,50.13,109.87,48.89,110.69Zm-6.61-1,2.29-1.57c-1-.56-2-1.11-3-1.65Z"/><path d="M60.33,103.79c-4.25,2.45-8.22,1.83-10.85-1.76s-1.68-7.4,2.65-10a10.82,10.82,0,0,1,5-1.52c.53.93,1.05,1.87,1.56,2.8a7.94,7.94,0,0,0-4.43,1,3.5,3.5,0,0,0-1.22,5.39,4.2,4.2,0,0,0,5.75,1.34,5.87,5.87,0,0,0,1.15-.87q-1.26-1.91-2.56-3.79c1.24-.72,2.5-1.42,3.76-2.12q1.76,2.61,3.42,5.23A12.29,12.29,0,0,1,60.33,103.79Z"/><path d="M75.27,95.88c-4.53,2.19-8.57,1.32-11-2.43S63,86,67.62,83.67a11.49,11.49,0,0,1,5.26-1.2c.48,1,1,1.93,1.42,2.9a8.36,8.36,0,0,0-4.61.72c-2.29,1.13-2.91,3.28-1.62,5.31a4.39,4.39,0,0,0,5.83,1.69,6.19,6.19,0,0,0,1.23-.79q-1.17-2-2.38-3.94c1.33-.64,2.66-1.26,4-1.88,1.08,1.81,2.13,3.62,3.17,5.44A12.72,12.72,0,0,1,75.27,95.88Z"/><path d="M80,85.81c-2.22-3.78-.78-7.53,4-9.48a10.59,10.59,0,0,1,5.23-.77c.43,1,.86,2,1.28,3a7.55,7.55,0,0,0-4.55.34A3.38,3.38,0,0,0,84.1,84a4.51,4.51,0,0,0,5.83,2,5.8,5.8,0,0,0,2.84-2.48l2.66,1.67A8.2,8.2,0,0,1,91,89C86.41,90.81,82.18,89.62,80,85.81Z"/><path d="M108.7,82.67,107,81.26q-2.6.81-5.16,1.67l0,1.95c-1.55.53-3.1,1.07-4.63,1.62q.56-7.84,1.12-15.71l.82-.27q7.43,5.19,14.29,10.76Q111.05,82,108.7,82.67ZM101.77,80l2.89-.94-2.8-2.35Z"/><path d="M125.87,78.11l-1.65-1.52c-1.81.43-3.62.87-5.4,1.33l-.15,1.94q-2.44.63-4.85,1.31,1-7.8,2.09-15.61l.85-.22q7.32,5.67,14,11.71C129.15,77.39,127.5,77.74,125.87,78.11Zm-7-3.09c1-.26,2-.51,3-.75-.9-.85-1.82-1.7-2.74-2.54C119.1,72.83,119,73.92,118.91,75Z"/><path d="M140.69,75.38c-5.46.9-9.65-1-11.39-5.3s.54-7.58,6.09-8.58a13.71,13.71,0,0,1,6,.24c.28,1.06.56,2.12.83,3.18a10.42,10.42,0,0,0-5.18-.53c-2.75.48-4,2.41-3.05,4.72a5.22,5.22,0,0,0,5.91,3.2,6.78,6.78,0,0,0,1.54-.44c-.53-1.49-1.08-3-1.63-4.46,1.59-.27,3.19-.51,4.8-.75.73,2,1.44,4.09,2.13,6.14A13.91,13.91,0,0,1,140.69,75.38Z"/></svg>