<svg xmlns="http://www.w3.org/2000/svg" width="187.49" height="109.25" viewBox="0 0 187.49 109.25"><title>Asset 54</title><rect x="-24.46" y="41.74" width="92.15" height="42.65" rx="6.97" transform="translate(84.52 40.97) rotate(89.57)" fill="#54a8ff"/><rect x="13.06" y="16.5" width="147.74" height="45.69" rx="9.14" transform="translate(-0.3 0.66) rotate(-0.43)" fill="#54a8ff"/><polygon points="153.46 74.63 152.98 0 187.49 37.09 153.46 74.63" fill="#54a8ff"/><path d="M31.18,42.28c0,1.24.05,2.47.08,3.7l-4.11.1-.33-14.16,3.73-.09c4.77-.1,7.11,2,7.17,5.06S35.61,42.05,31.18,42.28Zm-.05-7.35H31l.09,4.27h.09a2.16,2.16,0,1,0-.09-4.27Z"/><path d="M46.1,39.13c-1.78-.09-2.89,1-2.83,3.73,0,1,0,1.92,0,2.87l-3.47.07c-.06-3.19-.13-6.38-.19-9.57l3.48-.06,0,1.66a2.8,2.8,0,0,1,1.66-1.7,4.06,4.06,0,0,1,1.6-.21S46.06,39.1,46.1,39.13Z"/><path d="M52.21,45.72c-2.92,0-5.31-1.7-5.36-4.85s2.27-5,5.2-5,5.29,1.72,5.34,4.89S55.13,45.67,52.21,45.72Zm-.14-7.24c-1,0-1.75.87-1.73,2.33s.84,2.27,1.8,2.26,1.75-.83,1.73-2.29S53.05,38.46,52.07,38.48Z"/><path d="M70.15,39.94c0-1-.11-1.58-1-1.57s-1,.91-.93,2.73c0,1.42,0,2.84.05,4.25l-3.54,0c0-1.8,0-3.6-.07-5.39,0-1-.11-1.58-1-1.57s-1,.91-.93,2.73l.06,4.25-3.49,0q-.08-4.78-.14-9.57l3.5,0c0,.56,0,1.11,0,1.67a2.48,2.48,0,0,1,.9-1.43,2.58,2.58,0,0,1,1.53-.45,2.52,2.52,0,0,1,2.77,1.88,2.93,2.93,0,0,1,2.7-2c2.07,0,3,1.11,3.07,4l.06,5.71-3.54,0Z"/><path d="M80.79,45.36c-2.92,0-5.29-1.73-5.33-4.88s2.31-5,5.25-5S86,37.23,86,40.41,83.71,45.34,80.79,45.36Zm-.08-7.24c-1,0-1.76.86-1.75,2.32s.83,2.28,1.78,2.27,1.76-.81,1.75-2.27S81.69,38.11,80.71,38.12Z"/><path d="M92,45.26c-2.65,0-3.68-1.07-3.7-3.84,0-1.08,0-2.16,0-3.24H86.39c.21-.86.43-1.72.64-2.58h1.19V33.47l3.53-.75c0,1,0,1.91,0,2.86H93.9c0,.86,0,1.72,0,2.58H91.77c0,1.09,0,2.19,0,3.29,0,.93.22,1.23.9,1.23a9.32,9.32,0,0,0,1.56-.15l-.63,2.61A9.8,9.8,0,0,1,92,45.26Z"/><path d="M100.14,45.25c-2.92,0-5.28-1.76-5.3-4.91s2.34-5,5.27-5,5.28,1.79,5.28,5S103.07,45.24,100.14,45.25Zm0-7.24c-1,0-1.76.85-1.76,2.31s.81,2.28,1.77,2.28,1.76-.8,1.76-2.27S101.08,38,100.1,38Z"/><path d="M113.65,38.54c-1.78-.12-2.9,1-2.9,3.68V45.1h-3.48q0-4.79,0-9.57h3.49v1.67a2.77,2.77,0,0,1,1.69-1.67,3.92,3.92,0,0,1,1.6-.18S113.61,38.52,113.65,38.54Z"/><path d="M117.14,33.91c-1.08,0-2-.58-2-1.56s.88-1.53,2-1.53,1.94.56,1.94,1.54S118.24,33.91,117.14,33.91Zm-1.74,1.62h3.52c0,3.19,0,6.38,0,9.57h-3.52Q115.39,40.32,115.4,35.53Z"/><path d="M124.68,40.94c0,1,.34,1.58,1.21,1.58,1.25,0,1.4-1.71,1.4-2.71,0-1.42,0-2.83,0-4.25l3.5,0q0,4.79-.05,9.57l-3.49,0V43.46a3.21,3.21,0,0,1-2.89,1.84c-2.51,0-3.26-1.61-3.26-4.49,0-1.76,0-3.51,0-5.27h3.55C124.69,37.34,124.69,39.14,124.68,40.94Z"/><path d="M137,37.88c-.46,0-.76.17-.76.45,0,1,4.75.69,4.73,3.87,0,2.08-1.77,3.18-4.14,3.17a9.28,9.28,0,0,1-4.56-1.49l1.56-2.19a5.13,5.13,0,0,0,2.9,1.09c.5,0,.8-.22.8-.54,0-1.12-4.7-.69-4.68-3.89,0-1.85,1.41-2.92,4-2.9a9.68,9.68,0,0,1,3.7.81c-.17.78-.35,1.56-.52,2.34A9.45,9.45,0,0,0,137,37.88Z"/><path d="M43,69.21s1.41-6.7,7.53-6.74-10.65-3-10.65-3Z" fill="#54a8ff"/></svg>