<?xml version="1.0" encoding="utf-8"?>
<!-- Generator: Adobe Illustrator 23.1.0, SVG Export Plug-In . SVG Version: 6.00 Build 0)  -->
<svg version="1.1" id="Layer_1" xmlns="http://www.w3.org/2000/svg" xmlns:xlink="http://www.w3.org/1999/xlink" x="0px" y="0px"
	 viewBox="0 0 385 135.4" style="enable-background:new 0 0 385 135.4;" xml:space="preserve">
<style type="text/css">
	.st0{fill:#15FFC7;}
	.st1{fill:#14192E;}
</style>
<title>Asset 53</title>
<polygon class="st0" points="305.7,133.6 384.2,67.6 376.8,135.1 "/>
<path class="st0" d="M182.3,66.8c52.4-2.8,103.3,18.1,138.7,57l50.6-42.9C322.8,26.3,251.9-3.2,178.8,0.6c-70,3.6-135,37.6-178,93
	l53.4,39.3C85.4,93.5,132,69.4,182.3,66.8z"/>
<path class="st1" d="M160.9,52.8c-9.3,2.5-16.8-0.1-20.5-8.5c-3.5-8.1,1.1-16.3,12.6-19.4c4-1.1,9.1-1.2,11.9-0.2l0.6,6.5
	c-3.2-1.2-6.6-1.3-9.9-0.5c-5.5,1.4-8,5.8-6.5,10.4c1.3,4.4,6,6.9,10.4,5.6h0.1c1-0.3,1.9-0.6,2.8-1.1c-0.7-3-1.5-6-2.2-9
	c3-0.7,6.1-1.4,9.2-1.9c0.8,4.1,1.5,8.3,2.2,12.5C168.5,49.7,164.8,51.6,160.9,52.8z"/>
<path class="st1" d="M186.1,48.4c-2.8,0.1-5.6,0.4-8.4,0.8c-1.2-9.4-2.4-18.7-3.8-28.1c7.3-0.9,14.6-1.3,22-1.2v6.2
	c-3.8-0.1-7.5,0-11.3,0.3l0.3,4c2.5-0.1,5.1-0.3,7.6-0.2l0.1,6.3c-2.4,0-4.9,0.1-7.3,0.2C185.6,40.5,185.8,44.5,186.1,48.4z"/>
<path class="st1" d="M208.2,41.6l-0.8,7.4c-2.8-0.3-5.6-0.5-8.4-0.6c0.4-9.4,0.7-18.9,0.9-28.3c3.1,0.1,6.2,0.3,9.3,0.7
	c12,1.3,16.8,7,15.5,13C223.4,40,217.8,42.4,208.2,41.6z M209.9,27h-0.2c-0.3,2.8-0.5,5.7-0.8,8.5h0.1h0.1c3.2,0.4,5.8-0.8,6.2-3.6
	C215.7,29.3,213.3,27.3,209.9,27z"/>
</svg>
