<?xml version="1.0" encoding="utf-8"?>
<!-- Generator: Adobe Illustrator 23.1.0, SVG Export Plug-In . SVG Version: 6.00 Build 0)  -->
<svg version="1.1" id="Layer_1" xmlns="http://www.w3.org/2000/svg" xmlns:xlink="http://www.w3.org/1999/xlink" x="0px" y="0px"
	 viewBox="0 0 190 111" style="enable-background:new 0 0 190 111;" xml:space="preserve">
<style type="text/css">
	.st0{fill:#134DCF;}
	.st1{fill:#FFFFFF;}
</style>
<title>Asset 51</title>
<path class="st0" d="M119.2,21.5c-20.6,2.3-41.4,0.7-61.5-4.5L37.2,85.6c29.2,8,59.7,10.4,89.7,7.1c8.7-0.9,17.3-2.4,25.8-4.2
	l-12-70.7C133.6,19.5,126.4,20.7,119.2,21.5z"/>
<path class="st1" d="M74.1,72.2c-8.3,0.2-15-4.8-15.3-13.7c-0.2-9,6.3-14.4,14.7-14.6c8.4-0.2,15.1,4.8,15.2,13.8
	C89,66.8,82.4,71.9,74.1,72.2z M73.7,50C70,50,67,53.2,67.1,58.2s3.2,7.9,6.9,7.9c3.7-0.1,6.7-3,6.6-8.1
	C80.5,52.8,77.5,49.9,73.7,50z"/>
<path class="st1" d="M105.4,63.4c-0.9-1.6-1.9-2.8-3.9-2.8c0,3.6,0.1,7.2,0.1,10.8l-8.1,0.1c-0.1-9.2-0.2-18.4-0.3-27.7l7.2-0.1
	c7.9-0.1,12.5,2.3,12.5,8c0.1,2.8-1.7,5.4-4.4,6.1c4.4,1.1,3.4,7.5,9.8,7.5l-1.4,6.2C108.5,71.4,107.1,66.7,105.4,63.4z M101.4,49.5
	c0,1.9,0,3.7,0,5.5c2.3,0,3.7-1.2,3.7-2.9C105.1,50.5,103.6,49.5,101.4,49.5z"/>
<path class="st1" d="M120.5,43.6h8.1c-0.1,9.2-0.1,18.4-0.1,27.7h-8C120.5,62,120.5,52.8,120.5,43.6z"/>
</svg>
