<?xml version="1.0" encoding="utf-8"?>
<!-- Generator: Adobe Illustrator 23.1.0, SVG Export Plug-In . SVG Version: 6.00 Build 0)  -->
<svg version="1.1" id="Layer_1" xmlns="http://www.w3.org/2000/svg" xmlns:xlink="http://www.w3.org/1999/xlink" x="0px" y="0px"
	 viewBox="0 0 482.8 685.1" style="enable-background:new 0 0 482.8 685.1;" xml:space="preserve">
<style type="text/css">
	.st0{fill:#8CC5FF;}
	.st1{fill:none;}
	.st2{fill:none;stroke:#040080;stroke-width:2.25;stroke-linecap:round;stroke-linejoin:round;}
	.st3{fill:none;stroke:#040080;stroke-width:2.25;stroke-linecap:round;stroke-linejoin:round;stroke-dasharray:1.26,4.03;}
	.st4{fill:none;stroke:#040080;stroke-width:2.25;stroke-linecap:round;stroke-linejoin:round;stroke-dasharray:2,4;}
	.st5{fill:#FFFFFF;stroke:#000000;stroke-miterlimit:10;}
</style>
<path id="plasmid-main" class="st0" d="M241.4,202.2C108.1,202.2,0,310.3,0,443.6S108.1,685,241.4,685s241.4-108,241.4-241.4
	S374.7,202.2,241.4,202.2z M241.2,662.2C120.7,662.2,23,564.5,23,444s97.7-218.2,218.2-218.2S459.4,323.5,459.4,444
	S361.7,662.2,241.2,662.2L241.2,662.2z"/>
<g>
	<path class="st1" d="M138.6,25C89.9,30.4,43.9,49.6,5.9,80.5c1.5,25,15.2,47.6,36.6,60.5c31.3-28.3,71.3-45,113.4-47.5
		c1.4-5.8,2.1-11.8,2.1-17.7C158,57,151.1,38.9,138.6,25z"/>
	<circle class="st1" cx="82.2" cy="76.2" r="76.2"/>
	<line class="st1" x1="42.5" y1="141" x2="143.9" y2="240.7"/>
	<line class="st1" x1="165.3" y1="231.5" x2="156.7" y2="93.5"/>
	<line class="st2" x1="264" y1="204.1" x2="264" y2="204.8"/>
	<line class="st3" x1="263.7" y1="208.8" x2="262.9" y2="222.6"/>
	<line class="st2" x1="262.7" y1="224.6" x2="262.7" y2="225.2"/>
	<line class="st2" x1="340.3" y1="224.1" x2="340.1" y2="224.6"/>
	<line class="st3" x1="338.4" y1="228.3" x2="332.5" y2="240.9"/>
	<line class="st2" x1="331.7" y1="242.7" x2="331.4" y2="243.3"/>
	<line class="st2" x1="471.2" y1="372" x2="470.6" y2="372.2"/>
	<line class="st3" x1="466.7" y1="373.5" x2="453.6" y2="377.9"/>
	<line class="st2" x1="451.7" y1="378.6" x2="451.1" y2="378.8"/>
	<line class="st2" x1="481.7" y1="450.2" x2="481" y2="450.1"/>
	<line class="st3" x1="477" y1="450" x2="463.2" y2="449.3"/>
	<line class="st2" x1="461.1" y1="449.2" x2="460.5" y2="449.2"/>
	<line class="st2" x1="373.6" y1="644.5" x2="373.2" y2="644"/>
	<line class="st3" x1="370.9" y1="640.7" x2="362.8" y2="629.5"/>
	<line class="st2" x1="361.7" y1="627.8" x2="361.3" y2="627.3"/>
	<line class="st2" x1="301.8" y1="677.1" x2="301.6" y2="676.5"/>
	<line class="st3" x1="300.6" y1="672.6" x2="297.2" y2="659.2"/>
	<line class="st2" x1="296.7" y1="657.2" x2="296.6" y2="656.6"/>
	<line class="st2" x1="220.8" y1="682.8" x2="220.8" y2="682.2"/>
	<line class="st3" x1="221" y1="678.2" x2="221.6" y2="664.3"/>
	<line class="st2" x1="221.7" y1="662.3" x2="221.8" y2="661.7"/>
	<line class="st2" x1="144.2" y1="664" x2="144.4" y2="663.4"/>
	<line class="st3" x1="146.1" y1="659.8" x2="151.7" y2="647.1"/>
	<line class="st2" x1="152.5" y1="645.3" x2="152.8" y2="644.7"/>
	<line class="st2" x1="3.4" y1="477.6" x2="4" y2="477.5"/>
	<line class="st3" x1="8" y1="476.8" x2="21.7" y2="474.7"/>
	<line class="st2" x1="23.7" y1="474.3" x2="24.3" y2="474.2"/>
	<line class="st2" x1="5.2" y1="398.8" x2="5.8" y2="398.9"/>
	<line class="st3" x1="9.8" y1="399.7" x2="23.3" y2="402.7"/>
	<line class="st2" x1="25.3" y1="403.1" x2="25.9" y2="403.2"/>
	<circle class="st4" cx="152.2" cy="232.2" r="9.5"/>
</g>
<polygon id="prom-d" pointer-events="visible" class="st1" points="310.3,212.2 318.4,214.7 331.1,219.4 338.6,222.5 339.3,222.8 
	339.6,223 329.6,244.4 325.9,242.8 321.7,241.1 318.9,240.1 313.4,238.3 307.2,236.2 302.8,234.8 299.9,233.8 297.8,233.2 
	295.1,232.5 291.6,231.6 287.7,230.7 283.9,230 280.2,229.2 273.1,228.1 268.9,227.5 265.7,227.1 264,226.9 265.2,203.3 
	268.7,203.7 271.9,204.1 274.9,204.5 278.1,205 281.6,205.5 284.4,206 288.2,206.7 291.3,207.3 294.7,208.1 298.1,208.9 
	301.8,209.8 "/>
<polygon id="gfp-d" pointer-events="visible" class="st1" points="472.8,374.5 473.3,376.1 473.8,377.9 474.3,379.7 474.8,381.7 
	475.2,383.3 476,386.3 477.5,392.8 477.8,394.6 478.7,398.8 479.4,402.9 480.3,408.3 480.7,411.2 481,414 481.4,417.5 481.8,421 
	482,424 482.3,427.1 482.5,430.3 482.6,433.3 482.7,435.8 482.8,438.6 482.8,440.9 482.8,443.6 482.8,445.9 482.8,447.8 482.8,449 
	459.4,448 459.4,440.5 459.3,437.6 459.2,433.5 459,430.7 458.7,426.5 458.3,421.6 457.9,418.2 457.3,413.6 456.8,410.2 456,405.2 
	455.1,400.8 454,395.5 453.3,392.7 452.5,389.1 451.8,386.6 451,383.7 450.4,381.6 450,380.4 472.3,372.9 472.5,373.5 472.6,374 "/>
<polygon id="stop-d" pointer-events="visible" class="st1" points="343.9,636.6 346.6,635.1 350,633.2 353.4,631.2 356.6,629.2 
	358.8,627.8 359.6,627.3 373.2,645.9 370.9,647.4 366.9,650 360.7,653.6 355.2,656.6 350,659.3 342,663.2 331.3,667.8 322.2,671.2 
	311,674.9 306.2,676.3 303.1,677.1 297.2,654.9 307.4,652 317.2,648.6 326.1,645.1 334,641.6 340.3,638.4 "/>
<polygon id="ori-d" pointer-events="visible" class="st1" points="154.3,644.2 160.9,646.9 165,648.5 170,650.3 174.9,651.9 
	179.7,653.4 183.9,654.6 188.7,655.8 193.8,657 197.9,657.9 201.9,658.7 206.6,659.5 210.4,660.1 214,660.5 217.4,660.9 
	220.5,661.2 219.5,684.1 213.8,683.5 207.5,682.7 201.2,681.7 195.6,680.7 189.6,679.5 184.4,678.3 179.6,677.1 175,675.8 
	171.3,674.7 167.3,673.5 163.2,672.1 159.2,670.7 155.4,669.3 152.5,668.2 149.7,667 147.5,666.1 144.9,665 "/>
<polygon id="antib-d" pointer-events="visible" class="st1" points="23.3,433.9 23,438.9 23,442.6 23,446.1 23,449.4 23.2,453.1 
	23.4,457.4 23.7,461.2 24,464.2 24.3,467.8 24.6,470.6 24.9,472.9 2.2,476.5 1.6,471.9 1.2,467.8 0.9,464.5 0.6,461.2 0.4,458 
	0.2,454.3 0.1,450.7 0,447.2 0,440.5 0.3,432.5 0.5,427.5 1,421.9 1.5,416.6 2,412.3 2.5,408.7 2.9,405.8 3.5,402.7 4,399.7 
	26.6,404.7 26.2,407.4 25.9,411 25.6,414.1 25.3,416.6 24.9,419.3 24.6,421.7 24.3,424 24,426.9 23.7,429.3 23.4,431.6 "/>
<ellipse class="st1" cx="152.2" cy="232.2" rx="8.2" ry="8.4"/>
<path class="st5" d="M300.1,222.6"/>
<path class="st5" d="M470.1,411"/>
<path class="st5" d="M335.2,654.1"/>
<path class="st5" d="M179.6,665.9"/>
<path class="st5" d="M11.8,438.1"/>
<path class="st5" d="M152.2,232.2"/>
</svg>
