<?xml version="1.0" encoding="utf-8"?>
<!-- Generator: Adobe Illustrator 23.1.0, SVG Export Plug-In . SVG Version: 6.00 Build 0)  -->
<svg version="1.1" id="Layer_1" xmlns="http://www.w3.org/2000/svg" xmlns:xlink="http://www.w3.org/1999/xlink" x="0px" y="0px"
	 viewBox="0 0 190 111" style="enable-background:new 0 0 190 111;" xml:space="preserve">
<style type="text/css">
	.st0{fill:#007DFF;}
	.st1{fill:#FFFFFF;}
</style>
<title>Asset 52</title>
<path class="st0" d="M74.3,19l-7.7,71c18.8,2.4,37.8,2.5,56.7,0.5l-7-71C102.3,21,88.2,20.9,74.3,19z"/>
<path class="st1" d="M80.8,50.7c-0.9,0-1.4,0.4-1.4,0.9c0,2.1,6,1.3,6,5.9c0,2.7-2.1,4.3-5.4,4.3c-1.9-0.1-3.6-0.7-5.1-1.8
	c0.6-0.9,1.1-1.8,1.7-2.7c1,0.8,2.2,1.3,3.4,1.4c0.9,0,1.5-0.4,1.5-1.1c0-2-6-1.4-6-6c-0.1-2.3,1.9-3.9,4.9-3.8
	c1.5,0,2.9,0.4,4.2,1.1l-0.3,3C83.2,51.1,82.1,50.8,80.8,50.7z"/>
<path class="st1" d="M91.1,61.8c-2.6,0-3.5-1.1-3.5-3.8v-3.1h-1.8c0.2-0.8,0.4-1.7,0.7-2.5h1.2v-2.1l3.4-0.7c0,0.9,0,1.8,0,2.8h2.1
	v2.5h-2.1v3.2c0,0.9,0.2,1.2,0.8,1.2c0.5,0,1,0,1.5-0.1l-0.7,2.6C92.2,61.8,91.7,61.8,91.1,61.8z"/>
<path class="st1" d="M99.1,62c-2.8-0.1-5.1-1.8-5-4.9c0.1-3.1,2.4-4.8,5.2-4.7c2.9,0.1,5.1,1.9,5,5C104.2,60.5,101.8,62,99.1,62z
	 M99.2,55c-0.9,0-1.7,0.8-1.8,2.2c0,1.4,0.7,2.2,1.7,2.2c0.9,0,1.7-0.7,1.7-2.1S100.1,55,99.2,55L99.2,55z"/>
<path class="st1" d="M115.9,57.5c-0.1,2.7-1.7,5-4.6,4.9c-0.7,0-1.4-0.2-2-0.4c0,1,0,2-0.1,3l-3.4,0.7c0,0,0.1-3.4,0.3-12.8l3.4,0.1
	c0,0.5,0,1.1,0,1.6c0.4-1.1,1.5-1.8,2.7-1.7C114.4,52.8,115.9,54.6,115.9,57.5z M111.1,55.3c-1,0-1.6,0.9-1.6,3.1v1
	c0.4,0.2,0.8,0.3,1.2,0.3c1.2,0,1.8-1,1.8-2.3C112.4,56.3,112.1,55.5,111.1,55.3z"/>
</svg>
